<svg width="161" height="161" viewBox="0 0 161 161" fill="none" xmlns="http://www.w3.org/2000/svg">
<path d="M54.3375 40.5016C54.3375 43.5204 51.8219 46.036 48.8031 46.036H24.4016C21.3828 46.036 18.8672 43.5204 18.8672 40.5016V33.7094C18.8672 30.6907 21.3828 28.175 24.4016 28.175H48.8031C51.8219 28.175 54.3375 30.6907 54.3375 33.7094V40.5016Z" fill="#212528"/>
<path d="M152.698 39.9986C152.698 41.508 151.441 43.0174 149.68 43.0174H136.598C135.089 43.0174 133.58 41.7596 133.58 39.9986V36.4768C133.58 34.9674 134.837 33.458 136.598 33.458H149.68C151.189 33.458 152.698 34.7158 152.698 36.4768V39.9986Z" fill="#212528"/>
<path d="M161 126.536C161 134.083 154.962 140.12 147.416 140.12H13.5844C6.0375 140.12 0 134.083 0 126.536V122.511H161V126.536Z" fill="#212528"/>
<path d="M0 50.5641C0 43.0172 6.0375 36.9797 13.5844 36.9797H147.164C154.711 36.9797 160.748 43.0172 160.748 50.5641V54.5891H0V50.5641Z" fill="#51575B"/>
<path d="M0 54.0859H161V125.278H0V54.0859Z" fill="#3E4347"/>
<path d="M137.605 45.2814H56.853L64.903 18.1126C65.6577 16.6033 68.928 14.0876 70.9405 13.5845C83.2671 10.0626 110.939 10.0626 123.266 13.5845C125.278 14.0876 128.548 16.6033 129.303 18.1126L137.605 45.2814Z" fill="#51575B"/>
<path d="M133.58 74.4625H60.6265L67.9218 37.7344C68.4249 35.7219 71.6952 32.4516 73.4562 31.6969C84.5249 27.1687 109.681 27.1687 120.75 31.6969C122.511 32.4516 125.53 35.7219 126.284 37.7344L133.58 74.4625Z" fill="#3E4347"/>
<path d="M152.447 94.5876C152.447 125.278 127.542 149.931 97.103 149.931C66.664 149.931 41.7593 125.278 41.7593 94.5876C41.7593 64.1486 66.664 39.2439 97.103 39.2439C127.794 39.2439 152.447 64.1486 152.447 94.5876Z" fill="#788287"/>
<path d="M146.409 94.5875C146.409 121.756 124.272 143.894 97.1031 143.894C69.9344 143.894 47.7969 121.756 47.7969 94.5875C47.7969 67.4188 69.9344 45.2812 97.1031 45.2812C124.272 45.5328 146.409 67.4188 146.409 94.5875Z" fill="#212528"/>
<path d="M97.1034 134.586C119.194 134.586 137.102 116.678 137.102 94.5875C137.102 72.497 119.194 54.5891 97.1034 54.5891C75.0129 54.5891 57.105 72.497 57.105 94.5875C57.105 116.678 75.0129 134.586 97.1034 134.586Z" fill="#3E4347"/>
<path d="M97.1031 116.222C109.051 116.222 118.738 106.536 118.738 94.5875C118.738 82.6392 109.051 72.9531 97.1031 72.9531C85.1548 72.9531 75.4688 82.6392 75.4688 94.5875C75.4688 106.536 85.1548 116.222 97.1031 116.222Z" fill="#212528"/>
<path opacity="0.5" d="M126.536 77.7329C126.536 84.5251 121.002 90.0595 114.209 90.0595C107.417 90.0595 101.883 84.5251 101.883 77.7329C101.883 70.9407 107.417 65.4063 114.209 65.4063C121.002 65.1548 126.536 70.9407 126.536 77.7329Z" fill="#F5F5F5"/>
<path opacity="0.5" d="M89.5562 110.184C93.8632 110.184 97.3547 106.693 97.3547 102.386C97.3547 98.0789 93.8632 94.5874 89.5562 94.5874C85.2493 94.5874 81.7578 98.0789 81.7578 102.386C81.7578 106.693 85.2493 110.184 89.5562 110.184Z" fill="#F5F5F5"/>
<path opacity="0.5" d="M75.7206 121.002C78.3604 121.002 80.5003 118.862 80.5003 116.222C80.5003 113.582 78.3604 111.442 75.7206 111.442C73.0809 111.442 70.9409 113.582 70.9409 116.222C70.9409 118.862 73.0809 121.002 75.7206 121.002Z" fill="#F5F5F5"/>
<path d="M37.734 113.958C37.734 116.977 35.2184 119.492 32.1996 119.492H9.05586C6.03711 119.492 3.52148 116.977 3.52148 113.958V65.1547C3.52148 62.136 6.03711 59.6204 9.05586 59.6204H32.1996C35.2184 59.6204 37.734 62.136 37.734 65.1547V113.958Z" fill="#636C72"/>
<path d="M25.4074 56.757C29.8533 56.757 33.4574 53.1529 33.4574 48.707C33.4574 44.2611 29.8533 40.657 25.4074 40.657C20.9615 40.657 17.3574 44.2611 17.3574 48.707C17.3574 53.1529 20.9615 56.757 25.4074 56.757Z" fill="#212528"/>
</svg>
