<svg width="23" height="25" viewBox="0 0 23 25" fill="none" xmlns="http://www.w3.org/2000/svg">
<path d="M11.4087 9.20382H13.6905V5.75239H17.1131V3.45143H13.6905V0H11.4087V3.45143H7.98611V5.75239H11.4087V9.20382ZM6.84524 19.5581C5.59028 19.5581 4.5749 20.5936 4.5749 21.8591C4.5749 23.1246 5.59028 24.16 6.84524 24.16C8.1002 24.16 9.12698 23.1246 9.12698 21.8591C9.12698 20.5936 8.1002 19.5581 6.84524 19.5581ZM18.254 19.5581C16.999 19.5581 15.9836 20.5936 15.9836 21.8591C15.9836 23.1246 16.999 24.16 18.254 24.16C19.5089 24.16 20.5357 23.1246 20.5357 21.8591C20.5357 20.5936 19.5089 19.5581 18.254 19.5581ZM7.03919 15.8191L7.07341 15.681L8.1002 13.8057H16.5997C17.4554 13.8057 18.2083 13.334 18.5962 12.6207L23 4.55589L21.0149 3.45143H21.0035L19.7485 5.75239L16.5997 11.5048H8.59077L8.44246 11.1941L5.8869 5.75239L4.80308 3.45143L3.73065 1.15048H0V3.45143H2.28175L6.38889 12.1836L4.84871 15.0022C4.66617 15.3244 4.56349 15.704 4.56349 16.1067C4.56349 17.3722 5.59028 18.4076 6.84524 18.4076H20.5357V16.1067H7.32441C7.17609 16.1067 7.03919 15.9801 7.03919 15.8191Z" fill="#667A52"/>
</svg>
