<svg width="62" height="66" viewBox="0 0 62 66" fill="none" xmlns="http://www.w3.org/2000/svg">
<path d="M30.754 25.227H36.9048V15.8794H46.131V9.64767H36.9048V0.300049H30.754V9.64767H21.5278V15.8794H30.754V25.227ZM18.4524 53.2699C15.0694 53.2699 12.3323 56.0742 12.3323 59.5016C12.3323 62.9291 15.0694 65.7334 18.4524 65.7334C21.8353 65.7334 24.6032 62.9291 24.6032 59.5016C24.6032 56.0742 21.8353 53.2699 18.4524 53.2699ZM49.2063 53.2699C45.8234 53.2699 43.0863 56.0742 43.0863 59.5016C43.0863 62.9291 45.8234 65.7334 49.2063 65.7334C52.5893 65.7334 55.3571 62.9291 55.3571 59.5016C55.3571 56.0742 52.5893 53.2699 49.2063 53.2699ZM18.9752 43.1433L19.0675 42.7694L21.8353 37.6905H44.747C47.0536 37.6905 49.0833 36.413 50.129 34.4812L62 12.6389L56.6488 9.64767H56.6181L53.2351 15.8794L44.747 31.4588H23.1577L22.7579 30.6175L15.869 15.8794L12.9474 9.64767L10.0565 3.41592H0V9.64767H6.15079L17.2222 33.2971L13.0704 40.931C12.5784 41.8035 12.3016 42.8317 12.3016 43.9223C12.3016 47.3497 15.0694 50.154 18.4524 50.154H55.3571V43.9223H19.744C19.3442 43.9223 18.9752 43.5795 18.9752 43.1433Z" fill="#FCF2EA"/>
</svg>
