<svg width="59" height="66" viewBox="0 0 59 66" fill="none" xmlns="http://www.w3.org/2000/svg">
<path d="M57.3611 13.4534C48.8061 15.7435 38.7761 16.725 29.5 16.725C20.2239 16.725 10.1939 15.7435 1.63889 13.4534L0 19.9967C6.09667 21.6325 13.1111 22.7122 19.6667 23.2684V65.8H26.2222V46.17H32.7778V65.8H39.3333V23.2684C45.8889 22.7122 52.9033 21.6325 59 19.9967L57.3611 13.4534ZM29.5 13.4534C33.1056 13.4534 36.0556 10.5089 36.0556 6.91003C36.0556 3.3112 33.1056 0.366699 29.5 0.366699C25.8944 0.366699 22.9444 3.3112 22.9444 6.91003C22.9444 10.5089 25.8944 13.4534 29.5 13.4534Z" fill="#FCF2EA"/>
</svg>
