<svg width="57" height="62" viewBox="0 0 57 62" fill="none" xmlns="http://www.w3.org/2000/svg">
<path d="M18.3374 -3.98261C18.1871 -3.87855 18.083 -3.25996 18.0194 -2.12105C17.9848 -1.46777 17.9443 -0.924332 17.9327 -0.912769C17.898 -0.872299 17.9154 -2.03433 17.9558 -2.55464C18.0137 -3.21949 17.9674 -3.53745 17.8229 -3.53745C17.7477 -3.53745 17.6726 -3.4623 17.5974 -3.30621C17.4413 -2.97668 17.2158 -1.82042 17.2158 -1.34058C17.2158 -1.12089 17.1754 -0.808704 17.1291 -0.652611C17.0829 -0.496517 17.0424 -0.219017 17.0424 -0.0340195C17.0424 0.150982 17.0193 0.312859 16.9904 0.3302C16.8921 0.393795 16.5857 0.0700455 16.5163 -0.161205C16.4758 -0.282612 16.3602 -0.490738 16.2504 -0.612144C16.0133 -0.895424 15.4352 -1.23074 15.3485 -1.14402C15.2618 -1.0573 16.2851 0.966137 16.7129 1.54426C17.2968 2.34208 17.4933 2.71786 17.6263 3.31333C17.7882 4.07645 17.8518 5.77614 17.8113 8.40083C17.7824 10.2277 17.794 10.7191 17.8807 11.5227C18.0194 12.864 17.9848 17.9515 17.8229 18.8071C17.6957 19.5008 17.6957 20.42 17.8229 21.1774C17.9558 21.9579 17.9269 22.958 17.7766 23.1141C17.7188 23.1719 17.6841 23.2644 17.6957 23.3222C17.7304 23.4552 17.3777 23.779 17.1985 23.779C17.1291 23.779 16.9152 23.6922 16.7244 23.5824C16.2966 23.3454 16.1983 23.143 16.2966 22.6632C16.3313 22.5013 16.3718 22.3047 16.3833 22.2411C16.4007 22.1486 16.4412 22.1197 16.5452 22.1313C16.6551 22.1429 16.6782 22.1255 16.6551 22.0388C16.6377 21.9752 16.5741 21.9 16.5163 21.8654C16.4527 21.8365 16.4065 21.7844 16.4065 21.7497C16.4065 21.715 16.4354 21.7093 16.4758 21.7324C16.8458 21.9636 15.019 20.2004 14.464 19.7957C14.0998 19.5297 13.5621 19.2811 13.1285 19.1771C12.6949 19.073 11.8393 19.0961 11.504 19.2118C11.3999 19.2522 11.3016 19.2696 11.2843 19.2522C11.2669 19.2349 11.3594 19.1886 11.4866 19.1482C11.6196 19.1077 11.7121 19.0672 11.7005 19.0499C11.5965 18.9458 10.3188 19.6165 9.9546 19.9691C9.85632 20.0616 9.75803 20.1194 9.72913 20.0963C9.706 20.0674 9.70022 20.079 9.71757 20.1136C9.73491 20.1483 9.68866 20.235 9.60772 20.3044C9.41694 20.4721 9.19725 20.9519 9.11632 21.374C9.08741 21.5532 8.99491 21.7902 8.91975 21.9C8.8446 22.0099 8.76944 22.2238 8.74632 22.3799C8.69429 22.8019 8.69429 23.4205 8.7521 23.5015C8.78679 23.5419 8.86772 23.7327 8.94288 23.9235C9.14522 24.4669 9.2435 24.6461 9.59038 25.0797C10.0008 25.5943 10.2552 25.814 10.7004 26.0452C11.0357 26.2129 11.1051 26.2244 11.8393 26.2533C12.4348 26.2707 12.7585 26.2533 13.1805 26.1782C13.8512 26.0568 14.0882 26.0799 14.9843 26.3169C16.0769 26.606 16.7476 27.028 16.7533 27.4269C16.7591 27.5021 16.7938 27.6293 16.8401 27.7102C17.0077 28.005 16.8921 29.4041 16.6319 30.225C16.3429 31.1443 16.2851 31.5374 16.233 33.029C16.2041 33.8094 16.1637 34.4974 16.1521 34.561C16.1348 34.6246 15.9729 35.3415 15.7994 36.1508C15.308 38.4055 15.1982 38.8333 14.886 39.6485C14.4351 40.8336 14.1865 41.7471 13.9263 43.1461C13.2094 47.0427 13.1632 47.193 12.3827 48.4129C11.9144 49.1529 11.6658 49.5749 11.6658 49.65C11.6658 49.6905 11.5618 49.8582 11.4346 50.0201C11.2207 50.2918 10.6368 51.344 10.1223 52.3846C9.91413 52.8066 9.90257 53.009 10.1049 52.743C10.1627 52.6621 10.2321 52.6216 10.2552 52.639C10.2783 52.6621 10.1801 52.8066 10.0413 52.9569C8.49772 54.6566 7.6421 55.4602 6.28929 56.4777C5.27757 57.2408 4.90757 57.5415 4.41038 58.0097C4.06929 58.3335 2.70491 59.299 2.29444 59.5129C2.17882 59.5707 1.89554 59.6574 1.67585 59.7094C1.2596 59.8077 0.797098 60.0621 0.398192 60.4263C0.29413 60.5246 0.166942 60.6055 0.126473 60.6055C0.0166296 60.6055 -0.0411829 60.8772 0.0339733 61.0391C0.166942 61.3224 0.814442 61.3686 1.42147 61.1316C1.60069 61.0565 1.73366 61.0391 1.78569 61.0738C1.91288 61.149 2.46788 61.1374 2.82632 61.0449C3.00554 60.9986 3.46225 60.8021 3.8496 60.6171C4.50288 60.2933 4.57804 60.2702 5.09835 60.2297C5.49725 60.2008 5.7921 60.2124 6.191 60.2818C6.85007 60.3916 7.68257 60.3974 7.98319 60.2933C8.29538 60.1777 8.40522 60.0563 8.54975 59.6863C8.6596 59.3915 8.66538 59.3279 8.60179 59.0099C8.50928 58.5301 8.51507 58.1658 8.61913 57.9693C8.74632 57.7322 9.521 56.9865 10.1627 56.4951C10.4633 56.258 11.7294 55.3908 12.9666 54.5641C15.7532 52.7083 16.0076 52.4771 16.7938 51.1532C16.9268 50.9277 17.3257 50.3554 17.6783 49.8813C18.349 48.9794 18.4299 48.9043 19.8463 47.7885C20.199 47.511 20.7308 47.0774 21.0315 46.8172C21.3321 46.5629 21.9912 46.0252 22.4941 45.6321C22.9971 45.239 23.7371 44.6377 24.136 44.2966C24.8182 43.7127 24.9165 43.6549 25.6796 43.3196C26.1305 43.123 26.6913 42.8513 26.9283 42.7241C27.7204 42.2963 28.7437 41.5679 29.3391 41.0013C29.686 40.6718 30.0849 40.3538 30.3219 40.2266C30.8943 39.9086 31.1487 39.6832 31.5476 39.1397C31.8713 38.6946 31.9291 38.6483 32.2471 38.5327C32.4379 38.4691 32.7327 38.3015 32.9062 38.1743L33.2241 37.9315L33.3918 38.0529C33.4843 38.1165 33.8832 38.5038 34.2705 38.9085C35.1262 39.8046 35.5887 40.2266 36.7565 41.2036C37.6815 41.9725 38.3579 42.6432 39.9419 44.3313C40.4449 44.869 41.2774 45.7015 41.7862 46.1813C42.9424 47.2624 43.5668 47.9793 44.0582 48.7886C44.6537 49.7772 45.411 50.5346 46.9546 51.6677C47.6946 52.2169 49.4983 53.7085 50.0938 54.2693C50.5621 54.7029 51.1518 55.4313 51.1518 55.5758C51.1518 55.6394 51.1113 55.836 51.0651 56.021C50.8974 56.6511 50.9841 57.2177 51.279 57.4952C51.4698 57.6744 51.753 57.7669 52.308 57.8305C52.5162 57.8536 52.7301 57.8941 52.7821 57.9172C52.8399 57.9404 53.0307 58.1774 53.2099 58.4491C53.5799 59.0157 53.869 59.3047 54.158 59.3972C54.2679 59.4377 54.4991 59.5476 54.6726 59.6401C55.0368 59.8482 55.4704 59.8829 55.6438 59.721C55.7132 59.6632 55.7999 59.6401 55.8808 59.6632C55.9791 59.6863 56.0601 59.6458 56.2046 59.5071C56.3838 59.3279 56.3954 59.2932 56.3838 58.9868C56.378 58.8076 56.3376 58.611 56.2971 58.5416C56.2508 58.478 55.9849 58.2699 55.6958 58.0849C54.8576 57.5415 54.2158 56.8246 53.5741 55.7146C53.2562 55.1654 52.996 54.8243 52.389 54.1883C52.1635 53.9513 51.7473 53.4021 51.4698 52.9743C50.1863 51.0029 48.7526 49.1066 47.394 47.5688C47.0298 47.1525 46.4805 46.5282 46.1799 46.1813C45.8851 45.8286 45.5208 45.4124 45.3763 45.2505C45.2318 45.0886 45.0352 44.8343 44.9485 44.6897C44.8618 44.5452 44.6363 44.2561 44.4513 44.0538C44.2663 43.8515 43.9773 43.4352 43.8096 43.1404C43.428 42.464 42.0694 40.3654 41.4335 39.475C40.0344 37.5152 38.6296 35.9947 36.6293 34.295C36.0396 33.7921 35.4615 33.266 35.3574 33.133C35.051 32.7572 34.7908 32.3525 34.7908 32.2658C34.7908 32.1849 34.4729 31.734 34.2532 31.4969C34.1954 31.4333 33.9757 31.1327 33.7618 30.8205C32.3916 28.8375 31.0619 27.3402 29.8479 26.4152C29.5646 26.1955 29.183 25.8775 29.0096 25.7157C28.3505 25.0913 27.6163 24.6115 26.0323 23.779C25.6507 23.5766 25.0783 23.2355 24.7604 23.0216C24.4424 22.8135 23.9337 22.4897 23.633 22.3047C22.5982 21.6746 21.8582 21.0155 21.3783 20.2755C20.9505 19.6165 20.9158 19.4604 20.9158 17.9919C20.9158 16.4368 20.7598 14.4307 20.4823 12.5055C20.4302 12.1355 20.384 11.2972 20.3724 10.3665C20.3435 8.5627 20.2683 7.95567 19.7943 5.81661C19.326 3.71801 19.1988 2.56755 19.378 2.06458C19.4185 1.93739 19.4879 1.65411 19.5283 1.43442C19.5688 1.20895 19.6671 0.821606 19.748 0.573013C19.8868 0.13364 19.8868 0.0758247 19.8579 -0.901207C19.8232 -1.93027 19.7307 -2.52574 19.5977 -2.57199C19.563 -2.58355 19.511 -2.54308 19.4937 -2.48527C19.4763 -2.42746 19.4358 -2.33496 19.4069 -2.28292C19.378 -2.22511 19.3549 -1.91293 19.3491 -1.58917C19.3491 -1.25964 19.326 -0.889641 19.3029 -0.762455C19.274 -0.600578 19.2566 -0.756676 19.2566 -1.28277C19.2508 -2.50261 19.1641 -3.23105 18.9965 -3.4334C18.9155 -3.53168 18.8346 -3.47386 18.8346 -3.31199C18.8346 -3.24261 18.8057 -3.15589 18.7768 -3.12698C18.7421 -3.0923 18.6901 -2.86105 18.6612 -2.60667L18.6091 -2.14996L18.638 -2.68761C18.6785 -3.46808 18.5282 -4.11558 18.3374 -3.98261ZM21.1529 31.549C21.3668 31.7513 21.6096 31.9074 21.8235 31.9883C22.1299 32.104 22.2224 32.1155 22.8237 32.075C23.8701 32.0115 25.0205 32.0346 25.2576 32.1329C25.3096 32.1502 25.4021 32.2716 25.4541 32.3988C25.5119 32.526 25.6218 32.711 25.6969 32.815C25.8762 33.0521 26.2982 34.509 26.3213 34.9657C26.3387 35.2258 26.4254 35.5554 26.5237 35.723C26.5815 35.8213 26.6451 35.9832 26.6624 36.0757C26.7433 36.4457 26.7029 36.4804 24.8933 37.4227C23.9626 37.9083 22.9913 38.446 22.7369 38.6252C21.8408 39.2496 20.2279 40.984 19.1237 42.5102C17.8576 44.2561 17.1291 45.1869 16.8054 45.4702C16.6088 45.6379 16.2215 46.0888 15.9324 46.4704C15.4352 47.141 14.1633 48.6268 14.0882 48.6325C14.0651 48.6383 14.0708 48.54 14.1055 48.4186C14.1344 48.303 14.1807 48.0718 14.2096 47.9157C14.2732 47.4936 14.5969 46.6785 15.256 45.2505C16.5741 42.3946 17.0829 40.955 17.3083 39.4288C17.3546 39.105 17.4587 38.5905 17.5396 38.2899C17.7824 37.3938 18.1929 35.8386 18.4357 34.9079C19.0716 32.474 19.5341 31.6415 20.436 31.3177C20.7655 31.2021 20.7829 31.2079 21.1529 31.549Z" fill="black"/>
<path d="M11.8274 19.021C11.8679 19.0384 11.9199 19.0326 11.9372 19.0152C11.9604 18.9979 11.9257 18.9806 11.8621 18.9863C11.7985 18.9863 11.7812 19.0037 11.8274 19.021Z" fill="black"/>
</svg>
