<svg width="23" height="25" viewBox="0 0 23 25" fill="none" xmlns="http://www.w3.org/2000/svg">
<path d="M22.1654 5.13523C18.9885 5.94426 15.2719 6.26031 11.8391 6.21559C8.40625 6.17087 4.6991 5.75812 1.54405 4.8666L0.906313 7.28805C3.15472 7.92478 5.74543 8.35944 8.16881 8.59754L7.96582 24.3883L10.3919 24.4199L10.4855 17.1319L12.9116 17.1635L12.8179 24.4515L15.2439 24.4831L15.4469 8.69235C17.8756 8.51746 20.4766 8.15043 22.7406 7.57248L22.1654 5.13523ZM11.8547 5.00092C13.189 5.0183 14.2948 3.93931 14.312 2.60317C14.3292 1.26703 13.2515 0.159597 11.9172 0.142215C10.5828 0.124833 9.47708 1.20382 9.4599 2.53996C9.44273 3.87611 10.5204 4.98354 11.8547 5.00092Z" fill="#677B53"/>
</svg>
