<svg width="408" height="727" viewBox="0 0 408 727" fill="none" xmlns="http://www.w3.org/2000/svg">
<path d="M253.819 165.215C251.287 168.184 247.015 168.589 243.302 168.508C238.562 168.411 233.914 167.351 229.386 166.014C224.706 164.63 220.098 163.012 215.444 161.546C213.071 160.801 210.695 160.075 208.288 159.445C209.619 159.35 210.951 159.25 212.282 159.171C214.321 159.044 216.359 159.015 218.401 158.935C226.505 158.62 234.603 157.873 242.584 156.407C247.092 155.579 251.553 154.518 255.936 153.188C256.097 153.141 256.218 153.049 256.303 152.932C256.386 153.065 256.502 153.18 256.651 153.262C256.718 153.302 256.791 153.324 256.86 153.36C256.924 153.461 256.999 153.55 257.085 153.634C257.038 154.02 256.982 154.403 256.937 154.785C256.768 156.128 256.596 157.465 256.403 158.804C256.059 161.165 255.396 163.366 253.819 165.215ZM211.041 154.048C215.31 151.637 219.176 148.595 223.303 145.962C225.213 144.739 227.198 143.606 229.307 142.759C231.338 141.939 233.456 141.408 235.611 141.054C240.109 140.319 244.966 139.652 249.172 141.881C251.256 142.989 253.173 144.699 254.429 146.708C255.347 148.171 255.873 149.821 256.304 151.49C256.231 151.617 256.179 151.756 256.15 151.903C256.031 151.838 255.884 151.819 255.706 151.87C247.999 154.206 240.059 155.697 232.058 156.598C224.117 157.491 216.138 157.551 208.174 158.119C206.675 158.227 205.169 158.323 203.663 158.368C203.178 158.268 202.69 158.162 202.2 158.076C202.152 158.068 202.108 158.062 202.055 158.052C205.119 156.868 208.174 155.664 211.041 154.048ZM316.906 97.3486C316.881 97.4007 316.757 97.6508 316.761 97.6525C316.636 97.8661 316.496 98.0748 316.359 98.2789C316.007 98.7965 315.625 99.2828 315.211 99.7465C313.826 101.304 312.002 102.692 310.174 103.68C308.185 104.756 305.994 105.029 303.753 105.065C301.306 105.105 298.792 105.038 296.376 104.64C293.955 104.24 291.61 103.459 289.342 102.539C286.979 101.587 284.692 100.46 282.404 99.3478C280.047 98.1997 277.668 97.0993 275.28 96.0213C271.001 94.0868 266.596 92.2279 261.995 91.2063C262.395 91.0952 262.798 90.9903 263.202 90.896C267.761 89.821 272.387 89.0988 276.944 88.0434C278.951 87.5777 280.951 87.048 283 86.8128C285.233 86.5647 287.399 86.8234 289.519 87.5762C291.735 88.3598 293.839 89.444 296.007 90.3426C298.103 91.2143 300.226 92.0142 302.388 92.6958C307.024 94.1554 311.847 95.0608 316.715 95.0221C316.695 95.0759 316.677 95.1359 316.656 95.1942C316.413 95.8705 316.709 96.4211 317.175 96.7233C317.081 96.9336 316.998 97.1428 316.906 97.3486ZM263.41 87.5018C265.438 85.8423 267.524 84.2304 269.788 82.8995C274.254 80.2763 279.316 78.4846 284.329 77.2368C289.452 75.9537 294.81 75.2342 300.102 75.4718C302.754 75.5953 305.397 76.0021 307.858 77.0357C309.942 77.913 311.646 79.313 312.999 81.1184C314.486 83.1015 315.505 85.457 316.048 87.8693C316.338 89.164 316.428 90.4302 316.466 91.7535C316.478 92.4073 316.519 93.0517 316.627 93.6954C312.424 93.7072 308.257 93.0213 304.218 91.8522C302.005 91.2127 299.835 90.4414 297.696 89.5893C295.557 88.7373 293.482 87.7406 291.36 86.8543C289.278 85.9877 287.092 85.3689 284.823 85.3731C282.767 85.3807 280.748 85.7808 278.752 86.2454C274.295 87.2817 269.785 88.0735 265.311 89.047C263.482 89.4465 261.675 89.8846 259.892 90.4237C260.01 90.325 260.128 90.2308 260.246 90.1321C261.304 89.26 262.349 88.3678 263.41 87.5018ZM331.88 150.786C333.014 150.08 334.273 149.534 335.5 149.017C336.757 148.49 338.048 148.048 339.4 147.828C342.139 147.376 345.005 148.05 347.182 149.79C349.122 151.34 350.623 153.625 351.714 155.833C356.22 164.961 354.2 175.577 353.827 185.321C353.697 188.74 353.702 192.224 354.276 195.609C354.434 196.542 354.674 197.435 354.997 198.282C352.173 196.304 349.401 194.254 346.833 191.943C343.547 188.979 340.8 185.532 338.328 181.871C335.857 178.205 333.62 174.34 331.672 170.369C330.707 168.402 329.942 166.352 329.146 164.315C328.752 163.314 328.352 162.315 327.917 161.329C327.483 160.353 326.919 159.422 326.562 158.418C326.264 157.571 326.128 156.604 326.142 155.704C326.149 155.385 326.168 155.06 326.179 154.742C328.24 153.678 329.907 152.011 331.88 150.786ZM356.029 201.537C355.042 201.577 354.053 201.508 353.067 201.533C350.167 201.593 347.322 202.026 344.413 201.781C341.251 201.517 338.072 200.639 335.166 199.372C332.255 198.103 329.621 196.258 327.215 194.202C319.552 187.646 312.285 177.685 314.26 167.052C314.868 163.792 316.457 160.567 318.799 158.202C320.172 156.814 321.769 155.719 323.433 154.731C323.733 155.217 324.285 155.413 324.821 155.307C324.819 155.312 324.824 155.313 324.824 155.313C324.737 156.82 325.02 158.393 325.679 159.755C326.599 161.664 327.43 163.591 328.201 165.572C328.97 167.543 329.733 169.516 330.695 171.41C334.512 178.914 339.016 186.429 345.197 192.241C348.606 195.45 352.438 198.158 356.287 200.806C356.437 201.035 356.596 201.253 356.76 201.473C356.481 201.507 356.207 201.527 356.029 201.537ZM290.107 180.299C289.647 183.011 289.166 185.725 288.714 188.445C288.376 188.513 288.077 188.738 287.936 189.171C286.267 194.186 284.407 199.14 282.173 203.929C281.956 204.385 281.746 204.838 281.534 205.295C281.194 205.879 280.855 206.457 280.523 207.044C279.007 209.703 277.409 212.311 275.792 214.912C274.899 216.357 273.988 217.795 273.162 219.281C273.16 219.285 273.159 219.29 273.157 219.294C272.99 218.562 272.754 217.85 272.424 217.184C271.89 216.094 271.109 214.882 270.088 214.188C269.501 213.784 268.86 213.446 268.251 213.075C267.578 212.67 266.919 212.254 266.18 211.983C264.955 211.535 263.64 211.313 262.342 211.293C258.895 211.229 255.452 212.18 252.477 213.91C253.093 213 253.712 212.096 254.317 211.177C256.163 208.386 257.997 205.601 259.963 202.885C263.894 197.474 267.811 192.114 272.108 186.983C280.523 176.926 288.342 166.41 296.151 155.88C295.349 158.233 294.683 160.633 294.071 163.037C293.351 165.871 292.561 168.685 291.869 171.524C291.16 174.424 290.607 177.357 290.107 180.299ZM275.471 224.819C276.394 224.761 277.319 224.78 278.13 225.007C279.846 225.485 281.138 226.301 282.164 227.708C282.543 228.229 282.885 229.067 283.026 229.774C283.206 230.676 283.187 231.466 283.031 232.405C282.668 234.611 281.698 236.728 280.502 238.601C277.956 242.593 274.357 245.843 270.531 248.588C266.443 251.527 261.882 253.69 257.253 255.639C254.992 256.592 252.722 257.353 250.316 257.874C249.247 258.103 248.154 258.246 247.096 258.515C246.412 258.688 245.742 258.892 245.057 259.055C245.309 258.597 245.567 258.141 245.849 257.7C246.018 257.441 246.191 257.184 246.367 256.932C246.574 256.954 246.791 256.892 246.962 256.695C248.956 254.373 250.923 252.026 252.763 249.581C254.259 247.589 255.589 245.51 256.942 243.434C258.538 241.547 260.168 239.692 261.798 237.837C262.427 237.357 263.05 236.869 263.624 236.307C265.612 234.341 267.278 232.076 268.865 229.786C269.528 228.833 270.194 227.885 270.798 226.899C271.262 226.26 271.716 225.607 272.164 224.956C272.491 224.956 272.791 224.895 273.066 224.788C273.856 224.92 274.679 224.87 275.471 224.819ZM240.782 278.123C236.576 288.315 228.074 296.233 219.287 302.541C216.616 304.456 213.867 306.265 211.091 308.022C209.782 308.852 208.478 309.698 207.134 310.473C206.48 310.853 205.818 311.213 205.141 311.548C205.009 311.611 204.878 311.674 204.747 311.738C204.77 311.552 204.8 311.364 204.832 311.181C205.388 310.392 206.066 309.659 206.594 308.916C207.019 308.314 207.437 307.703 207.848 307.095C207.987 307.065 208.121 306.982 208.225 306.827C210.32 303.725 212.192 300.453 213.6 296.971C214.307 295.216 214.954 293.428 215.616 291.656C215.862 290.997 216.076 290.33 216.284 289.661C216.617 288.978 216.934 288.278 217.145 287.549C217.373 286.76 217.487 285.949 217.6 285.138C218.516 282.111 219.648 279.134 221.093 276.321C222.836 272.928 225.04 269.796 226.877 266.454C227.878 264.625 228.719 262.838 229.085 260.776C229.266 259.77 229.362 258.758 229.459 257.746C229.5 257.567 229.549 257.396 229.594 257.219C230.052 257.227 230.505 257.151 230.967 257.15C231.654 257.146 232.382 257.337 233.049 257.51C234.411 257.851 235.743 258.329 237.043 258.867C238.195 259.345 239.347 259.934 240.236 260.83C241.063 261.661 241.682 262.675 242.137 263.745C244.08 268.333 242.59 273.748 240.782 278.123ZM205.423 297.192C204.862 291.936 203.877 286.719 203.594 281.433C203.335 276.601 203.794 271.752 205.589 267.234C206.441 265.077 207.576 263.053 209.037 261.253C210.432 259.531 212.162 258.148 214.048 256.993C216.292 255.619 218.822 254.367 221.501 254.255C223.759 254.16 225.863 254.83 227.887 255.731C227.855 256.118 227.988 256.449 228.211 256.701C228.178 257.036 228.145 257.372 228.116 257.709C227.933 258.514 227.745 259.319 227.522 260.109C226.945 262.133 226.147 264.064 225.018 265.84C223.853 267.669 222.649 269.412 221.685 271.362C220.739 273.294 219.994 275.316 219.026 277.234C218.09 279.083 217.111 280.91 216.632 282.945C216.481 283.568 216.389 284.199 216.297 284.829C215.884 286.224 215.539 287.628 215.107 289.016C215.083 289.068 215.056 289.125 215.032 289.177C214.55 290.178 214.026 291.158 213.606 292.187C213.185 293.231 212.837 294.313 212.46 295.378C211.694 297.525 210.863 299.638 209.715 301.617C208.455 303.784 207.076 305.885 205.64 307.935C205.569 308.042 205.491 308.14 205.414 308.239C205.556 307.311 205.639 306.375 205.695 305.43C205.859 302.674 205.716 299.931 205.423 297.192ZM231.569 254.44C233.285 251.559 234.811 248.571 236.382 245.611C237.127 244.207 237.844 242.794 238.518 241.359C238.369 243.348 238.336 245.356 238.417 247.36C238.524 250.008 238.808 252.645 239.354 255.243C239.49 255.892 239.611 256.541 239.737 257.191C239.107 256.848 238.45 256.551 237.788 256.282C236.404 255.724 234.989 255.235 233.53 254.893C232.877 254.735 232.197 254.568 231.518 254.508C231.537 254.484 231.555 254.465 231.569 254.44ZM247.52 222.219C248.841 220.464 250.27 218.79 251.992 217.415C253.728 216.03 255.743 215.132 257.882 214.558C260.06 213.977 262.474 213.654 264.678 214.305C265.901 214.665 266.929 215.393 268.006 216.047C268.257 216.197 268.514 216.319 268.727 216.501C268.901 216.653 269.048 216.861 269.191 217.042C269.504 217.436 269.768 217.841 269.988 218.292C270.426 219.177 270.645 220.098 270.741 221.074C270.789 221.563 271.172 221.936 271.623 222.1C271.387 222.457 271.144 222.805 271.001 223.217C270.928 223.44 270.924 223.684 270.967 223.91C270.86 224.1 270.749 224.289 270.647 224.48C270.325 225.055 269.997 225.618 269.657 226.171C266.98 229.842 263.997 233.292 260.995 236.709C260.942 236.77 260.888 236.832 260.834 236.894C260.645 237.043 260.454 237.186 260.262 237.329C259.112 238.187 258.225 239.164 257.399 240.333C256.789 241.199 256.207 242.085 255.633 242.98C253.116 245.99 250.653 249.047 248.258 252.169C246.498 254.455 244.722 256.731 243.422 259.292C243.348 259.284 243.272 259.282 243.196 259.279C243.181 259.278 243.175 259.281 243.166 259.278C243.148 259.271 243.128 259.269 243.115 259.264C243.105 259.25 243.098 259.242 243.09 259.234C243.06 259.192 243.032 259.156 243.025 259.148C242.988 259.068 242.871 258.794 242.828 258.676C242.699 258.321 242.597 257.827 242.506 257.399C242.079 255.266 241.626 253.133 241.369 250.971C240.792 246.142 240.973 241.214 241.808 236.429C242.251 233.874 242.886 231.335 243.79 228.902C244.695 226.465 245.952 224.291 247.52 222.219ZM295.589 232.259C296.397 231.094 297.172 229.911 298.053 228.799C300.919 225.183 305.24 222.183 309.908 221.65C321.537 220.317 325.577 234.297 328.175 242.914C329.084 245.923 330.018 248.932 331.309 251.809C331.924 253.179 332.618 254.513 333.403 255.799C333.459 255.896 333.525 255.992 333.587 256.087C327.855 252.955 322.184 249.701 316.755 246.074C314.003 244.23 311.301 242.349 308.344 240.849C306.878 240.1 305.366 239.447 303.81 238.911C302.234 238.372 300.811 237.686 299.343 236.901C298.612 236.515 297.876 236.183 297.242 235.644C296.649 235.136 296.136 234.535 295.508 234.064C295.253 233.871 294.979 233.713 294.698 233.561C294.964 233.109 295.291 232.684 295.589 232.259ZM335.284 258.712C334.845 258.793 334.4 258.846 333.955 258.884C332.885 258.98 331.842 259.085 330.779 259.245C327.696 259.701 324.617 260.185 321.526 260.551C318.514 260.912 315.438 261.253 312.4 261.19C309.429 261.125 306.493 260.609 303.585 260.047C299.019 259.166 294.3 258.616 290.007 256.759C288.069 255.916 286.231 254.722 284.903 253.028C283.544 251.292 282.726 249.042 282.9 246.863C283.093 244.521 284.32 242.47 285.889 240.654C287.247 239.076 288.87 237.731 290.553 236.489C291.651 236.332 292.885 236.467 293.644 235.504C293.824 235.269 293.974 235.019 294.103 234.755C294.193 234.804 294.279 234.847 294.367 234.9C295.523 235.629 296.307 236.792 297.523 237.457C298.92 238.225 300.352 239.038 301.829 239.637C303.372 240.26 304.959 240.727 306.476 241.422C309.498 242.804 312.259 244.636 315.003 246.502C317.819 248.42 320.709 250.238 323.642 251.981C326.981 253.967 330.371 255.855 333.78 257.709C334.078 257.871 334.384 257.792 334.592 257.619C334.831 257.98 335.065 258.338 335.284 258.712ZM226.62 224.662C226.628 224.763 226.638 224.859 226.647 224.959C226.648 224.985 226.655 225.172 226.662 225.22C226.711 227.187 226.298 229.211 225.646 231.053C224.192 235.192 221.152 238.478 217.058 240.105C212.71 241.837 208.039 241.469 203.528 240.649C197.985 239.643 192.571 238.03 187.269 236.147C184.213 235.064 181.18 233.903 178.174 232.686C176.689 232.084 175.244 231.374 173.734 230.824C173.24 230.639 172.733 230.475 172.225 230.326C172.892 230.295 173.55 230.316 174.226 230.344C176.062 230.417 177.898 230.491 179.739 230.455C183.554 230.384 187.296 229.73 191.014 228.903C194.706 228.081 198.361 227.107 202.074 226.365C205.805 225.614 209.536 224.904 213.232 223.987C216.907 223.072 220.546 222.02 224.145 220.857C224.268 221.087 224.474 221.277 224.769 221.433C225.059 221.588 225.353 221.637 225.646 221.608C225.691 221.666 225.737 221.719 225.781 221.782C225.914 221.959 226.148 222.456 226.277 222.837C226.303 222.918 226.361 223.134 226.406 223.314C226.449 223.515 226.492 223.715 226.524 223.916C226.564 224.166 226.595 224.413 226.62 224.662ZM180.869 222.139C182.675 220.524 184.458 218.875 186.383 217.397C188.33 215.896 190.448 214.654 192.638 213.546C196.802 211.433 201.089 209.838 205.746 209.28C210.119 208.759 214.654 209.051 218.895 210.25C221.146 210.888 223.561 211.726 225.022 213.669C226.18 215.202 225.928 216.892 225.579 218.674C225.435 218.691 225.289 218.739 225.152 218.805C224.73 218.796 224.33 218.989 224.167 219.454C217.279 221.692 210.261 223.473 203.135 224.799C195.831 226.15 188.668 228.674 181.206 229.076C179.138 229.186 177.065 229.116 175 229.038C174.294 229.009 173.589 228.965 172.883 228.962C173.638 228.395 174.353 227.768 175.069 227.167C177.029 225.523 178.962 223.843 180.869 222.139ZM297.997 148.936C289.817 159.747 281.893 170.735 273.355 181.273C271.262 183.86 269.098 186.378 266.994 188.955C265.21 191.14 263.554 193.409 261.898 195.689C261.758 195.723 261.619 195.794 261.484 195.907C256.847 199.837 252.033 203.557 247.12 207.128C244.82 208.803 242.481 210.433 240.033 211.889C237.614 213.321 235.114 214.502 232.52 215.581C231.154 216.154 229.801 216.762 228.471 217.415C228.62 216.044 228.567 214.679 227.952 213.364C226.886 211.104 224.755 209.601 222.511 208.658C218.02 206.768 212.896 206.204 208.07 206.417C203.077 206.639 198.337 207.938 193.812 210.007C191.343 211.134 188.931 212.409 186.664 213.902C184.497 215.331 182.534 217.05 180.602 218.781C178.363 220.786 176.108 222.78 173.81 224.727C172.718 225.648 171.627 226.65 170.421 227.426C169.241 228.186 168.122 228.754 167.438 230.037C167.164 230.553 167.48 231.27 167.907 231.593C169.163 232.534 170.7 232.613 172.142 233.097C173.552 233.574 174.871 234.221 176.243 234.786C179.143 235.984 182.073 237.106 185.019 238.184C190.787 240.287 196.684 242.07 202.72 243.21C207.798 244.17 212.973 244.517 217.893 242.652C222.559 240.881 226.182 237.144 227.966 232.504C228.901 230.083 229.445 227.392 229.3 224.792C229.219 223.253 228.869 221.573 227.981 220.304C227.983 220.3 227.989 220.297 227.995 220.294C227.97 220.32 228.391 220.069 228.371 220.082C228.699 219.903 229.03 219.73 229.361 219.558C230.031 219.215 230.709 218.881 231.397 218.561C234.124 217.276 236.915 216.193 239.546 214.699C244.822 211.703 249.665 207.963 254.462 204.277C255.382 203.568 256.295 202.852 257.203 202.133C256.492 203.12 255.787 204.114 255.097 205.113C253.221 207.847 251.442 210.648 249.582 213.393C247.747 216.102 246.036 218.887 244.228 221.616C242.478 224.259 241.116 227.288 240.018 230.256C238.862 233.378 237.779 236.552 236.41 239.588C235.042 242.619 233.431 245.534 231.865 248.466C231.075 249.95 230.26 251.419 229.398 252.865C229.294 253.046 229.232 253.228 229.207 253.402C227.06 252.42 224.811 251.644 222.422 251.583C219.59 251.515 216.966 252.373 214.482 253.678C212.239 254.858 210.054 256.28 208.279 258.1C206.393 260.038 204.912 262.276 203.759 264.718C201.452 269.607 200.71 275.02 200.888 280.384C201.08 286.148 202.157 291.818 202.774 297.541C203.085 300.423 203.19 303.28 202.956 306.169C202.843 307.583 202.572 308.939 202.295 310.324C202.025 311.665 201.501 313.836 203.052 314.534C204.363 315.122 205.684 314.287 206.828 313.693C208.177 312.986 209.475 312.183 210.764 311.377C213.306 309.782 215.832 308.172 218.312 306.482C227.9 299.947 237.052 291.919 242.259 281.35C243.542 278.737 244.508 276 245.13 273.155C245.697 270.57 245.941 267.915 245.397 265.298C245.157 264.145 244.767 263.012 244.241 261.951C245.174 261.84 246.115 261.553 246.904 261.332C249.169 260.697 251.509 260.422 253.769 259.76C256.433 258.973 258.988 257.848 261.519 256.704C264.016 255.573 266.474 254.336 268.82 252.908C273.279 250.195 277.46 246.856 280.768 242.797C282.439 240.748 283.878 238.459 284.809 235.98C285.619 233.824 286.15 231.389 285.618 229.098C284.609 224.753 280.289 221.913 275.92 222.124C275.759 222.13 275.59 222.143 275.421 222.157C275.631 221.801 275.831 221.456 276.036 221.155C276.769 220.069 277.537 219.001 278.23 217.885C278.968 216.704 279.58 215.45 280.19 214.201C281.565 211.397 282.909 208.566 284.182 205.704C285.044 204.165 285.892 202.621 286.685 201.047C286.825 200.767 286.959 200.49 287.095 200.208C286.674 205.036 286.702 209.884 287.018 214.727C287.407 220.702 288.777 226.548 290.334 232.316C289.932 232.503 289.698 233.06 290.191 233.331C290.239 233.354 290.288 233.373 290.331 233.394C290.245 233.433 290.163 233.474 290.081 233.53C289.858 233.688 289.63 233.847 289.404 234.013C289.005 234.135 288.617 234.297 288.256 234.509C287.647 234.864 287.161 235.234 286.494 235.471C285.918 235.669 285.653 236.352 285.76 236.929C283.395 239.081 281.373 241.628 280.581 244.68C279.22 249.929 282.006 255.19 286.504 257.938C290.829 260.575 295.95 261.311 300.841 262.226C303.864 262.796 306.873 263.457 309.945 263.732C313.196 264.019 316.484 263.757 319.727 263.437C323.422 263.071 327.096 262.499 330.767 261.95C332.09 261.755 333.391 261.629 334.716 261.495C336.004 261.364 337.294 261.131 338.211 260.155C338.528 259.814 338.512 259.214 338.344 258.814C337.741 257.412 336.797 256.21 335.985 254.93C335.261 253.784 334.621 252.578 334.045 251.35C332.846 248.804 331.937 246.138 331.117 243.453C329.469 238.065 328.03 232.541 325.04 227.704C323.579 225.336 321.796 223.119 319.509 221.496C317.245 219.882 314.573 218.989 311.797 218.911C306.715 218.767 301.794 221.236 298.185 224.691C297.045 225.783 296.025 226.991 295.094 228.264C294.34 229.296 293.556 230.352 292.862 231.442C291.539 226.514 290.359 221.531 289.835 216.451C289.268 210.962 289.253 205.342 289.797 199.855C290.257 195.225 291.061 190.632 291.846 186.048C292.074 184.932 292.283 183.808 292.535 182.696C292.579 182.508 292.553 182.345 292.487 182.208C292.925 179.554 293.369 176.898 293.944 174.275C294.552 171.496 295.333 168.761 296.048 166.012C296.849 162.947 297.551 159.861 298.521 156.839C299.024 155.288 299.569 153.774 300.263 152.3C300.95 150.845 301.69 149.424 302.214 147.897C302.226 147.866 302.229 147.831 302.24 147.8C304.447 144.934 306.708 142.103 309.049 139.344C313.253 134.393 317.058 129.099 321.473 124.324C325.436 120.035 329.662 116.053 334.05 112.214C334.792 111.597 335.536 110.976 336.283 110.361C336.965 109.798 337.66 109.25 338.349 108.695C337.998 109.198 337.651 109.702 337.313 110.209C335.198 113.432 333.467 116.9 331.869 120.398C328.783 127.153 326.196 134.34 324.836 141.655C324.48 143.567 324.197 145.517 324.145 147.466C324.115 148.477 324.287 149.457 324.437 150.454C324.465 150.653 324.482 150.854 324.504 151.057C322.129 152.356 319.741 153.692 317.736 155.523C315.275 157.767 313.389 160.692 312.341 163.853C310.479 169.471 311.174 175.479 313.527 180.844C315.864 186.183 319.64 190.783 323.855 194.754C326.267 197.027 328.899 199.097 331.818 200.685C334.975 202.404 338.365 203.484 341.889 204.139C345.534 204.813 349.203 204.448 352.866 204.193C352.529 204.22 353.183 204.195 353.311 204.196C353.628 204.197 353.952 204.206 354.274 204.209C354.945 204.22 355.624 204.213 356.295 204.183C357.546 204.125 358.955 203.957 359.939 203.104C360.431 202.679 360.666 201.734 360.13 201.222C358.314 199.504 357.329 197.606 356.913 195.154C356.41 192.169 356.379 189.115 356.476 186.098C356.655 180.643 357.323 175.207 357.234 169.743C357.151 164.716 356.486 159.614 354.301 155.033C353.178 152.68 351.677 150.394 349.804 148.568C347.471 146.288 344.368 145.014 341.095 145.016C337.791 145.022 334.666 146.342 331.766 147.803C330.094 148.645 328.657 149.861 327.159 150.967C327.147 150.778 327.134 150.594 327.112 150.407C327.001 149.578 326.783 148.75 326.769 147.911C326.748 146.2 327.022 144.437 327.297 142.755C327.874 139.223 328.85 135.774 329.943 132.368C331.085 128.817 332.412 125.331 333.884 121.898C335.362 118.448 336.989 115.023 338.941 111.811C340.008 110.052 341.175 108.352 342.421 106.717C342.714 106.33 343.083 105.932 343.45 105.512C343.794 105.549 344.152 105.468 344.408 105.221C346.382 103.337 348.374 101.47 350.362 99.6011C352.198 97.8799 354.067 96.3297 356.214 95.0111C358.023 93.8939 359.877 92.8389 361.741 91.8085C363.335 91.1321 364.932 90.4769 366.521 89.7988C369.059 88.719 371.597 87.6285 374.056 86.3761C376.591 85.0854 379.084 83.7023 381.558 82.3018C385.511 80.0645 389.35 77.697 392.917 74.9164C392.968 74.8895 393.019 74.8625 393.07 74.8356C393.219 74.7532 393.33 74.6466 393.415 74.53C394.041 74.0331 394.661 73.5239 395.271 73.0006C396.976 71.5217 398.607 69.9643 400.207 68.38C400.51 68.0895 400.8 67.7939 401.096 67.4955C401.327 67.26 401.567 67.0278 401.799 66.7923C403.996 64.5826 406.153 62.3018 407.833 59.6683C408.371 58.8316 407.934 57.63 406.869 57.5483C405.828 57.4705 405.118 58.3448 404.548 59.0879C403.939 59.8825 403.327 60.671 402.718 61.4657C401.104 63.5664 399.389 65.5119 397.45 67.3172C395.513 69.118 393.52 70.9031 391.398 72.4863C389.402 73.9788 387.115 75.1118 384.978 76.3928C382.679 77.7771 380.262 78.9173 377.892 80.1777C376.236 81.0611 374.585 81.9568 372.93 82.8508C370.241 84.0478 367.52 85.177 364.756 86.1772C360.232 87.8174 355.602 89.1218 350.901 90.1536C345.982 91.232 341.037 92.2033 336.046 92.9016C331.687 93.5094 327.196 94.073 322.792 93.8151C321.71 93.7524 320.451 93.6545 319.409 94.0315C319.338 93.5089 319.201 92.9975 319.158 92.4698C319.048 91.2014 319.126 89.9369 318.926 88.6759C318.537 86.2238 317.714 83.7936 316.49 81.6276C315.25 79.4246 313.608 77.4039 311.5 75.9755C309.122 74.3642 306.266 73.5251 303.447 73.1089C300.546 72.6775 297.594 72.7278 294.679 72.9099C291.904 73.088 289.148 73.4624 286.423 74.0274C280.935 75.1637 275.499 76.9582 270.498 79.489C267.658 80.926 265.051 82.7779 262.571 84.7588C261.308 85.7689 260.075 86.821 258.829 87.8529C258.198 88.3784 257.569 88.9101 256.912 89.3952C256.291 89.8529 255.671 90.25 255.221 90.8943C255.058 91.1248 254.982 91.4085 254.986 91.6861C254.341 91.7411 253.697 91.7249 253.06 91.5787C252.385 91.4279 252.212 92.4782 252.801 92.7243C253.775 93.1347 254.846 93.1166 255.898 92.9325C257.116 93.2912 258.433 93.2473 259.685 93.4451C260.95 93.6479 262.193 93.9394 263.423 94.2925C265.996 95.0256 268.496 95.9667 270.957 97.0004C275.784 99.0324 280.447 101.392 285.197 103.589C287.493 104.653 289.829 105.636 292.263 106.342C294.8 107.077 297.359 107.463 299.992 107.569C302.414 107.663 304.867 107.717 307.27 107.328C309.591 106.954 311.601 105.891 313.48 104.519C315.352 103.154 317.113 101.578 318.391 99.6227C318.906 98.8337 319.231 98.0043 319.621 97.153C319.75 96.8743 319.939 96.5205 320.08 96.3332C320.017 96.4218 320.159 96.286 320.241 96.2042C320.26 96.1958 320.284 96.1846 320.298 96.1745C320.353 96.1644 320.487 96.1223 320.508 96.12C322.004 95.7901 323.621 96.0939 325.146 96.0409C327.678 95.9509 330.204 95.7666 332.719 95.491C337.77 94.9329 342.777 94.0305 347.746 92.9812C351.258 92.2406 354.745 91.4186 358.188 90.4374C357.249 90.8531 356.329 91.3012 355.438 91.8111C354.252 92.492 353.157 93.299 352.047 94.0904C350.819 94.9653 349.493 95.6911 348.27 96.5677C347.295 97.2716 346.399 98.0814 345.553 98.9355C343.037 100.929 340.593 103.031 338.163 105.123C334.467 108.3 330.771 111.452 327.222 114.772C326.239 115.431 325.247 116.072 324.291 116.768C322.956 117.736 321.729 118.841 320.469 119.898C317.947 122.032 315.337 124.057 312.527 125.797C303.421 131.439 294.245 137.198 284.55 141.826C280.576 143.309 276.6 144.797 272.561 146.071C269.846 146.926 267.107 147.706 264.384 148.512C262.961 148.936 261.552 149.38 260.147 149.851C259.901 149.933 259.66 150.016 259.419 150.1C259.205 149.918 258.94 149.793 258.668 149.767C258.643 149.764 258.627 149.767 258.601 149.768C258.262 148.593 257.853 147.438 257.289 146.357C256.193 144.234 254.567 142.418 252.675 140.974C250.627 139.409 248.235 138.371 245.702 137.929C243.213 137.493 240.641 137.675 238.15 137.985C235.844 138.278 233.533 138.624 231.296 139.27C228.986 139.929 226.791 140.845 224.698 142.02C220.262 144.507 216.261 147.667 211.973 150.388C207.216 153.393 201.922 155.134 196.755 157.275C196.47 157.393 196.246 157.636 196.108 157.922C195.732 157.874 195.353 157.834 194.971 157.788C194.31 157.72 194.057 158.74 194.708 158.943C195.217 159.102 195.735 159.224 196.262 159.32C196.27 159.328 196.268 159.332 196.275 159.34C196.796 159.878 197.392 160.27 198.154 160.355C198.813 160.428 199.477 160.39 200.143 160.471C201.563 160.645 202.97 160.921 204.367 161.224C207.111 161.816 209.812 162.603 212.496 163.423C217.432 164.944 222.311 166.643 227.244 168.157C232.119 169.65 237.136 170.925 242.248 171.151C246.55 171.34 251.414 170.998 254.796 168.015C257.034 166.04 258.308 163.301 258.858 160.403C259.14 158.893 259.31 157.356 259.502 155.827C259.601 155.067 259.712 154.305 259.787 153.541C259.794 153.467 259.793 153.39 259.8 153.316C259.915 153.282 260.03 153.248 260.14 153.213C260.163 153.206 260.341 153.155 260.399 153.136C261.882 152.704 263.423 152.458 264.913 152.044C268.264 151.12 271.572 150.007 274.838 148.816C278.424 147.509 281.91 146.002 285.325 144.356C285.782 144.189 286.24 144.018 286.696 143.852C296.008 140.47 304.989 136.014 312.952 130.088C313.129 129.955 313.302 129.82 313.48 129.687C312.462 130.932 311.45 132.189 310.438 133.447C306.298 138.621 301.999 143.649 297.997 148.936Z" fill="#7A8DB5" fill-opacity="0.3"/>
<path d="M165.325 478.673C165.325 478.677 165.325 478.677 165.325 478.677C165.325 478.682 165.325 478.682 165.32 478.687C165.273 478.777 165.23 478.872 165.178 478.963C165.064 479.172 164.941 479.376 164.804 479.571C164.738 479.675 164.667 479.77 164.596 479.87C164.577 479.894 164.572 479.908 164.558 479.922C164.553 479.927 164.553 479.932 164.544 479.941C164.349 480.17 164.16 480.407 163.956 480.63C163.081 481.609 162.105 482.498 161.102 483.344C159.88 484.375 159.066 484.998 157.769 485.938C155.445 487.625 153.04 489.208 150.587 490.7C148.656 491.874 146.696 492.867 144.67 493.869C142.544 494.915 140.442 495.984 138.298 496.977C140.618 494.587 142.994 492.254 145.498 490.058C149.489 486.561 153.863 483.591 158.455 480.949C160.609 479.709 162.915 478.62 165.396 478.369C165.372 478.478 165.353 478.587 165.325 478.673ZM129.355 500.755C129.066 499.805 128.768 498.849 128.503 497.894C127.935 495.856 127.395 493.803 126.908 491.74C125.97 487.744 125.227 483.695 124.9 479.599C124.81 478.464 124.754 477.323 124.73 476.187C124.905 476.534 125.076 476.886 125.237 477.242C126.032 478.963 126.766 480.668 127.249 482.512C127.826 484.712 128.167 486.965 128.56 489.203C128.929 491.294 129.365 493.375 129.554 495.495C129.71 497.262 129.71 499.035 129.355 500.755ZM128.115 521.858C130.491 519.953 132.953 518.142 135.438 516.379C137.805 514.702 140.329 513.077 143.183 512.407C143.794 512.264 144.22 512.193 144.679 512.164C144.897 512.15 145.12 512.141 145.337 512.15C145.361 512.155 145.527 512.179 145.574 512.183C145.64 512.198 145.716 512.217 145.759 512.226C145.816 512.255 145.896 512.288 145.901 512.293C145.825 512.226 145.711 512.16 145.901 512.293C145.901 512.283 145.901 512.283 145.896 512.274C145.901 512.283 145.901 512.288 145.905 512.293C145.915 512.307 145.924 512.316 145.934 512.326C145.934 512.35 145.929 512.373 145.924 512.378C145.934 512.407 145.943 512.44 145.948 512.468C145.939 512.478 145.967 512.768 145.967 512.777C145.995 512.663 145.65 513.333 145.849 512.972C145.674 513.295 145.527 513.637 145.347 513.965C144.675 515.163 143.804 516.208 142.767 517.111C141.583 518.137 140.385 519.164 139.159 520.138C136.622 522.167 133.924 523.978 131.126 525.627C128.323 527.275 125.454 528.82 122.746 530.63C121.104 531.728 119.494 532.887 117.856 533.995C116.862 534.669 115.891 535.311 114.973 536.081C114.093 536.822 113.425 537.397 112.554 537.986C112.341 538.134 112.118 538.271 111.896 538.4C111.91 538.29 111.92 538.181 111.934 538.072C112.322 537.273 112.705 536.48 113.094 535.682C113.392 535.682 113.7 535.563 113.969 535.263C118.306 530.412 123.04 525.921 128.115 521.858ZM110.689 530.25C110.4 532.612 109.751 534.921 109.392 537.273C109.292 537.478 109.193 537.682 109.093 537.891C108.937 536.751 108.79 535.61 108.62 534.475C108.194 531.628 107.389 528.867 106.821 526.045C106.248 523.198 105.803 520.328 105.415 517.448C105.069 514.92 104.691 512.373 104.572 509.817C104.463 507.398 104.629 504.932 105.547 502.689C105.604 502.722 105.666 502.755 105.727 502.793C105.997 502.965 105.86 502.86 106.087 503.079C106.168 503.164 106.485 503.511 106.419 503.43C107.001 504.172 107.375 505.074 107.664 505.844C108.525 508.149 109.278 510.477 109.742 512.901C110.267 515.638 110.518 518.418 110.779 521.193C111.058 524.21 111.058 527.242 110.689 530.25ZM104.151 564.768C108.165 561.024 112.762 557.502 117.918 555.516C120.422 554.556 123.035 553.986 125.7 554.133C125.7 554.152 125.705 554.171 125.705 554.19C125.7 554.214 125.7 554.233 125.696 554.243C125.696 554.252 125.625 554.466 125.625 554.495C125.596 554.552 125.563 554.613 125.53 554.67C125.454 554.794 125.279 554.998 125.066 555.179C124.612 555.554 124.015 555.82 123.561 556.262C122.983 556.823 122.401 557.374 121.804 557.911C119.584 559.935 117.241 561.874 114.722 563.518C112.275 565.115 109.666 566.431 107.091 567.8C104.397 569.23 101.841 570.808 99.3317 572.538C97.9067 573.521 96.477 574.491 95 575.384C94.9337 575.422 94.8722 575.47 94.8059 575.512C94.9385 575.199 95.071 574.885 95.2036 574.571C98.063 571.188 100.908 567.795 104.151 564.768ZM90.3227 575.769C90.2091 575.493 90.1097 575.203 90.0103 574.89C89.7121 573.939 89.4422 572.979 89.1203 572.034C88.2161 569.411 87.4823 566.735 86.8101 564.041C85.4656 558.638 84.2537 553.24 83.8371 547.675C83.6667 545.404 83.482 543.076 83.9365 540.842C86.4645 543.014 87.4966 546.706 88.3629 549.823C89.8636 555.241 90.3037 560.838 90.3842 566.441C90.4268 569.549 90.3654 572.656 90.3227 575.769ZM91.4921 605.05C95.142 602.099 99.0997 599.747 103.322 597.723C104.904 596.962 106.698 596.178 108.459 596.349C107.361 599.994 104.345 602.57 100.974 604.513C97.0309 606.789 92.7939 608.163 88.3865 609.474C87.4255 609.764 86.4598 610.045 85.494 610.33C87.4445 608.514 89.4185 606.728 91.4921 605.05ZM81.6404 653.411C83.2595 651.244 84.9496 649.129 86.7012 647.062C88.1783 645.313 89.6174 643.512 91.1702 641.83C92.2448 640.666 93.4283 639.563 94.7869 638.789C94.1573 640.913 93.0544 642.914 91.9134 644.772C90.2991 647.409 88.5049 649.942 86.7769 652.503C85.0206 655.112 82.9708 657.493 80.7742 659.731C79.638 660.885 78.4686 662.002 77.2756 663.095C76.8732 663.47 76.4567 663.836 76.0448 664.198C76.1111 664.122 76.1773 664.045 76.2436 663.969C76.9159 663.219 76.4424 662.292 75.7228 662.078C77.5881 659.118 79.5527 656.219 81.6404 653.411ZM71.8077 713.247C75.2826 706.38 78.8805 699.561 83.108 693.127C85.191 689.958 87.4255 686.893 89.8541 683.985C91.1086 682.483 92.4673 681.081 93.7407 679.603C94.9953 678.144 96.3492 676.776 97.7884 675.502C99.379 674.101 101.126 672.946 102.806 671.663C103.526 671.112 104.392 670.646 105.311 670.584C106.007 670.537 106.655 670.703 107.271 670.983C107.417 674.091 106.144 676.98 104.473 679.618C102.598 682.578 100.264 685.192 98.1103 687.943C95.3598 691.464 92.6993 695.052 89.8588 698.506C88.4102 700.265 86.7627 701.8 85.0821 703.334C83.4488 704.827 81.7114 706.205 80.1161 707.735C78.3124 709.464 76.5656 711.261 74.7193 712.948C73.8103 713.779 72.8683 714.558 72.0303 715.466C71.6753 715.851 71.3296 716.25 70.984 716.645C70.8467 716.065 70.7521 715.48 70.6384 714.896C70.5722 714.544 70.4822 714.197 70.3875 713.846C70.9035 714.012 71.4858 713.879 71.8077 713.247ZM56.2517 706.594C51.6785 702.831 46.9019 699.333 42.9063 694.928C41.9974 693.926 41.1358 692.885 40.5156 691.673C40.0659 690.789 39.8434 689.853 39.8055 688.879C40.8565 688.632 41.879 688.684 42.9678 689.079C44.3691 689.582 45.6331 690.48 46.8924 691.255C49.5861 692.909 52.1804 694.714 54.6042 696.748C57.0612 698.801 59.3572 701.049 61.4497 703.477C63.5516 705.91 65.4073 708.533 66.7281 711.484C66.8559 711.774 66.9743 712.068 67.0926 712.363C67.1589 713.009 67.2253 713.656 67.2963 714.302C63.6368 711.703 59.7265 709.45 56.2517 706.594ZM62.2072 670.883C60.4319 670.337 58.7607 669.667 57.1511 668.731C55.5084 667.776 53.932 666.716 52.3555 665.656C50.7933 664.611 49.2358 663.546 47.6025 662.61C45.9977 661.688 44.3455 660.866 42.7359 659.949C41.2115 659.084 39.4362 658.101 38.3711 656.727C37.661 655.815 37.4858 654.827 37.6467 653.691C38.5652 653.387 39.493 653.501 40.3641 654.024C41.0127 654.413 41.6329 654.822 42.3004 655.183C42.9773 655.554 43.6543 655.924 44.3313 656.29C46.9966 657.744 49.5624 659.341 52.0383 661.104C54.4148 662.796 56.7061 664.611 58.9453 666.488C60.4366 667.733 61.9561 668.959 63.4 670.266C63.8971 670.717 64.4416 671.23 64.9245 671.739C64.0156 671.463 63.1066 671.164 62.2072 670.883ZM49.6619 622.637C49.4394 621.392 49.2358 620.147 49.0464 618.897C49.5293 618.864 49.9743 618.574 50.1258 617.961C51.0253 614.288 51.9247 610.501 54.0219 607.298C54.8599 606.01 55.7167 604.713 56.8197 603.634C57.6008 602.869 58.472 602.332 59.4803 602.114C59.8638 604.789 58.7796 607.507 57.5061 609.916C56.7014 611.437 55.7876 612.9 54.874 614.359C53.9745 615.794 53.1603 617.296 52.2324 618.717C51.6312 619.639 50.9731 620.523 50.4003 621.468C50.1494 621.882 49.96 622.314 49.8085 622.775C49.7565 622.727 49.7092 622.68 49.6619 622.637ZM42.3571 623.241C40.7002 622.419 39.0574 621.577 37.481 620.608C34.4275 618.726 31.5682 616.403 29.452 613.48C29.2106 613.143 28.9692 612.805 28.7514 612.454C28.652 612.297 28.5621 612.14 28.4722 611.979C28.4627 611.964 28.4105 611.86 28.3869 611.812C28.3727 611.77 28.3491 611.712 28.3443 611.703C28.3396 611.689 28.3396 611.674 28.3349 611.66C28.3917 611.622 28.5052 611.546 28.5194 611.537C29.1159 611.18 29.4899 611.104 30.1764 611.137C30.8486 611.171 31.6582 611.413 32.3636 611.679C35.578 612.881 38.4657 615.053 40.9701 617.367C42.5654 618.845 44.0851 620.408 45.5763 621.991C46.1397 622.59 46.6699 623.269 47.238 623.906C47.2901 624.186 47.3469 624.462 47.399 624.742C45.5811 624.833 43.9525 624.039 42.3571 623.241ZM34.0772 585.201C29.9018 585.401 25.8258 584.731 21.8445 583.477C20.4053 583.025 19.0182 582.426 17.901 581.452C18.6158 580.882 19.4395 580.568 20.4905 580.407C20.4999 580.407 20.7934 580.373 20.8361 580.369C21.0396 580.354 21.2385 580.34 21.442 580.335C21.8586 580.321 22.2704 580.331 22.6823 580.354C23.506 580.407 24.1168 580.492 24.9264 580.644C28.5432 581.31 32.1078 582.331 35.4832 583.8C36.2312 584.123 36.9745 584.46 37.7177 584.802C36.5153 585.002 35.3034 585.14 34.0772 585.201ZM34.5649 552.888C33.8074 552.945 33.0547 552.969 32.2972 552.964C29.1633 552.941 25.8115 552.475 23.0705 551.092C22.6918 550.902 22.3272 550.698 21.9722 550.47C21.797 550.356 21.6267 550.241 21.461 550.123C21.4515 550.113 21.371 550.051 21.3284 550.018C21.2811 549.98 21.1627 549.88 21.1437 549.871C20.9402 549.69 20.7413 549.5 20.552 549.305C21.0632 549.172 21.3142 549.163 21.9439 549.163C23.2126 549.163 24.2872 549.381 25.5606 549.709C27.9987 550.346 30.3326 551.315 32.7186 552.104C33.4382 552.342 34.1483 552.598 34.8584 552.86C34.759 552.869 34.6595 552.884 34.5649 552.888ZM36.2313 524.21C36.1129 523.826 35.9946 523.441 35.8762 523.056C36.165 523.217 36.5106 523.284 36.8325 523.232C36.6384 523.564 36.4396 523.892 36.2313 524.21ZM28.0839 530.155C23.6765 531.471 19.1129 532.027 14.5681 532.64C12.9586 532.859 11.4294 533.016 10.1702 532.156C10.6152 531.429 11.2306 530.882 11.9691 530.459C12.9065 529.927 14.0568 529.628 15.2309 529.433C18.2039 528.939 21.6124 529.057 24.7369 529.276C26.427 529.395 28.117 529.537 29.8071 529.628C29.2295 529.794 28.6615 529.984 28.0839 530.155ZM27.0472 482.631C27.3076 480.721 27.5822 478.787 27.9988 476.905C28.2355 475.841 28.562 474.833 29.1065 473.945C30.1243 476.202 30.2048 478.834 29.987 481.334C29.6983 484.641 28.5715 487.901 27.6011 491.104C27.1845 492.472 26.7537 493.846 26.2282 495.181C26.3182 490.99 26.4886 486.789 27.0472 482.631ZM7.33448 502.214C6.40187 502.238 5.45508 502.209 4.52721 502.066C4.96747 501.914 5.47399 501.777 5.91899 501.677C7.4623 501.32 8.71205 501.197 10.2554 501.007C12.5893 500.722 14.9516 500.688 17.2902 500.917C17.3092 500.917 17.3329 500.921 17.3518 500.921C13.9954 501.235 10.7099 502.114 7.33448 502.214ZM8.69795 474.306C8.58433 473.688 8.50858 472.704 8.57486 472.063C8.57959 472.039 8.59381 471.939 8.59381 471.934C8.59855 471.92 8.60318 471.901 8.60318 471.882C11.027 475.056 12.116 479.039 13.3231 482.816C13.6877 483.966 14.0426 485.116 14.3977 486.266C11.7229 482.688 9.49801 478.83 8.69795 474.306ZM40.1843 513.547C40.6245 512.179 41.1262 510.824 41.7417 509.527C42.0588 508.862 42.4045 508.206 42.7833 507.574C42.9632 507.27 43.1478 506.97 43.3466 506.676C43.4507 506.519 43.5596 506.357 43.6732 506.201C43.749 506.096 43.8247 505.992 43.9004 505.892C43.9383 505.839 43.9619 505.806 43.9856 505.778C44.4922 505.146 45.0982 504.571 45.7326 504.062C45.7657 504.043 45.9456 503.905 45.9408 503.91C46.0308 503.844 46.1208 503.782 46.2155 503.72C46.419 503.587 46.6272 503.459 46.8403 503.345C46.9302 503.297 47.0202 503.254 47.1149 503.212C47.1528 503.197 47.3184 503.136 47.3326 503.131C47.4273 503.098 47.522 503.079 47.6167 503.05C47.9481 502.95 47.5173 503.074 47.7682 503.026C47.8014 503.017 47.9007 503.026 47.9528 503.031C47.9954 503.041 48.0333 503.05 48.0759 503.06C48.1043 503.074 48.1422 503.093 48.1753 503.112C48.1848 503.126 48.199 503.136 48.218 503.159C48.2558 503.193 48.2747 503.212 48.2889 503.226C48.3031 503.245 48.3126 503.259 48.3316 503.288C48.3363 503.297 48.4215 503.483 48.4452 503.511C48.4689 503.597 48.4925 503.682 48.5114 503.763C48.5067 503.791 48.5351 504.043 48.5351 504.086C48.5351 504.523 48.4215 505.013 48.2322 505.564C48.0428 506.134 47.8108 506.619 47.5221 507.17C44.9231 512.131 41.1074 516.284 38.1533 521.012C38.7924 518.513 39.3937 515.999 40.1843 513.547ZM51.1815 530.283C51.5981 529.585 52.0099 528.934 52.5733 528.373C53.0514 527.893 53.5769 527.57 54.1828 527.589C54.3485 527.594 54.4716 527.613 54.6467 527.67C54.6515 527.67 54.7272 527.698 54.7651 527.713C54.8124 527.741 54.9308 527.827 54.822 527.727C55.0634 527.941 55.0302 527.903 55.1107 528.216C55.1296 528.278 55.1391 528.345 55.1533 528.411C55.1533 528.444 55.1628 528.511 55.1628 528.525C55.177 528.711 55.177 528.891 55.1723 529.076C55.1628 529.447 55.1297 529.822 55.0824 530.188C54.5663 534.56 52.4596 538.58 50.263 542.315C48.9564 544.534 47.5977 546.711 46.1586 548.849C45.7183 549.505 45.2591 550.156 44.8425 550.835C45.9171 543.698 47.4794 536.504 51.1815 530.283ZM56.654 563.309C57.4446 561.888 58.2873 560.491 59.2294 559.161C59.3478 558.99 59.4756 558.819 59.5987 558.652C59.6318 558.61 59.6649 558.572 59.6933 558.534C59.7928 558.41 59.8874 558.291 59.9868 558.172C60.3845 557.702 60.8105 557.255 61.2839 556.861C61.2887 556.856 61.3171 556.832 61.3408 556.813C61.3787 556.785 61.4355 556.742 61.4497 556.733C61.5585 556.661 61.6674 556.585 61.7858 556.519C61.8236 556.495 61.9514 556.433 62.0177 556.4C62.0745 556.386 62.245 556.329 62.3018 556.314C62.335 556.31 62.3681 556.305 62.387 556.314C62.4296 556.333 62.4532 556.343 62.4627 556.343C62.4864 556.357 62.5101 556.372 62.529 556.386C62.5716 556.438 62.6427 556.514 62.6758 556.552C62.7042 556.604 62.7893 556.737 62.8035 556.761C62.813 556.775 62.813 556.78 62.8225 556.79C62.8225 556.809 62.8272 556.832 62.832 556.87C62.8462 556.937 62.8746 557.07 62.8841 557.089C62.8936 557.198 62.8983 557.303 62.8983 557.407C62.8983 557.54 62.8888 557.674 62.8794 557.807C62.8794 557.816 62.8794 557.821 62.8794 557.83C62.8699 557.883 62.8604 557.935 62.8509 557.992C62.7894 558.329 62.6947 558.662 62.5905 558.985C62.2071 560.183 61.5822 561.352 60.8816 562.544C60.2756 563.585 59.6081 564.588 58.9927 565.619C56.8718 569.168 54.9309 572.813 52.6112 576.244C51.4655 577.94 50.2346 579.575 49.0795 581.267C51.3566 575.175 53.5011 569.012 56.654 563.309ZM77.4461 612.72C77.3277 612.487 77.1384 612.216 77.0673 612.088C76.7786 611.584 76.4519 611.109 76.1016 610.648C75.3252 609.631 74.5441 608.624 73.8009 607.578C72.4185 605.625 71.5474 603.259 70.629 601.059C69.6632 598.744 68.6455 596.454 67.7365 594.121C66.837 591.811 66.089 589.459 65.3221 587.102C64.825 585.582 64.0534 583.747 64.4369 582.165C67.2868 583.99 68.9011 587.064 70.2929 590.148C72.2954 594.572 74.0849 599.087 75.4436 603.753C76.2437 606.504 76.9016 609.289 77.4035 612.107C77.4413 612.321 77.5503 612.506 77.697 612.653C77.6118 612.677 77.5266 612.701 77.4461 612.72ZM140.618 479.452C141.304 474.976 142.213 470.575 143.202 466.161C143.78 463.576 144.182 461.053 144.547 458.444C144.632 457.812 145.02 454.956 145.702 454.205C146.298 455.768 146.265 457.565 146.44 459.204C146.706 461.67 146.634 464.113 146.279 466.565C145.636 471.074 144.211 475.432 142.345 479.576C141.489 481.476 140.561 483.334 139.581 485.164C140.021 483.282 140.329 481.367 140.618 479.452ZM167.744 476.672C167.346 475.955 166.778 475.636 165.945 475.665C164.913 475.708 163.876 475.869 162.877 476.13C159.085 477.133 155.7 479.452 152.424 481.529C146.933 485.012 142.109 489.365 137.545 493.969C142.932 485.378 147.78 476.054 149.016 465.89C149.352 463.148 149.181 460.539 148.95 457.802C148.807 456.096 148.812 452.418 146.994 451.539C144.012 450.095 142.611 454.357 142.213 456.419C141.948 457.797 141.815 459.19 141.654 460.582C141.436 462.473 140.722 465.144 140.243 467.273C139.6 470.124 138.965 472.985 138.506 475.874C138.037 478.81 137.678 481.776 136.987 484.674C136.423 487.06 135.552 489.407 135.694 491.893C134.596 493.67 133.46 495.433 132.309 497.177C132.243 494.52 131.717 491.836 131.254 489.284C130.818 486.922 130.482 484.537 129.9 482.203C129.384 480.122 128.565 478.198 127.679 476.254C126.898 474.524 125.928 472.196 124.11 471.331C123.196 470.894 122.169 471.416 122.121 472.476C121.743 480.996 123.447 489.441 125.681 497.619C126.269 499.776 126.818 501.995 127.551 504.119C127.561 504.148 127.575 504.181 127.585 504.21C125.407 507.422 123.253 510.653 121.25 513.98C118.846 517.962 116.8 522.12 114.751 526.297C114.32 527.171 113.894 528.05 113.463 528.924C113.681 526.354 113.662 523.773 113.425 521.193C113.141 518.185 112.862 515.168 112.294 512.198C111.815 509.684 111.034 507.241 110.106 504.856C109.638 503.649 109.093 502.48 108.237 501.496C107.337 500.47 106.158 499.938 104.823 499.786C104.392 499.733 103.876 500.071 103.682 500.441C101.116 505.364 101.921 510.948 102.608 516.222C103.005 519.292 103.441 522.357 104.009 525.403C104.553 528.316 105.401 531.167 105.898 534.09C106.172 535.691 106.357 537.307 106.584 538.918C106.722 539.906 106.944 540.804 107.266 541.683C105.637 545.071 104.023 548.464 102.433 551.871C99.1708 558.862 96.0083 565.909 93.0022 573.018C93.0637 568.109 93.0874 563.195 92.5809 558.31C92.2685 555.34 91.7808 552.38 90.9997 549.495C90.4174 547.343 89.7594 545.204 88.7936 543.194C87.7001 540.928 86.1047 538.88 83.8418 537.706C83.0702 537.302 82.2795 537.677 81.986 538.466C81.0108 541.065 81.0392 543.902 81.2191 546.635C81.4085 549.567 81.7209 552.47 82.2369 555.364C82.7577 558.291 83.4394 561.19 84.1495 564.079C84.8501 566.921 85.5934 569.743 86.5308 572.519C87.3213 574.852 87.6954 577.67 89.7547 579.257C89.9156 579.38 90.1239 579.437 90.337 579.442C86.9521 587.777 83.8133 596.207 81.0297 604.77C80.5326 606.3 80.0451 607.835 79.5622 609.37C78.6391 604.879 77.3183 600.484 75.6898 596.197C74.7998 593.859 73.8103 591.564 72.7925 589.283C71.9545 587.406 71.0741 585.534 69.8905 583.857C68.494 581.88 66.7281 580.207 64.5079 579.214C63.8025 578.896 63.1823 579.062 62.7136 579.684C60.9952 581.984 61.8804 584.997 62.6899 587.463C63.6651 590.438 64.6215 593.394 65.8002 596.297C66.9885 599.229 68.2099 602.161 69.5023 605.046C70.1414 606.476 70.8136 607.901 71.7273 609.175C72.5984 610.401 73.5972 611.551 74.421 612.815C74.8139 613.414 75.0601 614.202 75.5288 614.73C76.1347 615.409 76.8827 615.566 77.7253 615.381C73.3037 630.269 69.7769 645.47 68.0537 660.9C67.7886 663.276 67.5708 665.661 67.372 668.051C62.6663 657.393 56.6777 647.281 53.0277 636.171C51.9247 632.821 51.0394 629.413 50.3151 625.963C50.6228 625.959 50.9211 625.84 51.2004 625.602C51.9626 624.951 52.0573 624.048 52.4454 623.193C52.7958 622.414 53.5107 621.53 54.0314 620.76C55.0492 619.273 55.9061 617.676 56.8671 616.146C58.7891 613.072 60.8626 609.912 61.781 606.352C62.2876 604.38 62.3728 602.299 61.781 600.336C61.6106 599.776 61.0993 599.372 60.5123 599.367C56.5073 599.353 54.0645 602.489 52.0383 605.535C50.2867 608.158 49.2405 611.095 48.4073 614.103C47.8581 609.436 47.5078 604.751 47.2522 600.084C47.0344 596.069 46.9019 592.044 46.7788 588.015C48.4073 587.587 49.3162 585.653 50.1683 584.365C51.4655 582.403 52.8431 580.511 54.1876 578.587C56.7582 574.914 58.9074 570.998 61.1561 567.125C62.529 564.768 64.1244 562.549 65.0286 559.94C65.4594 558.695 65.7482 557.213 65.2701 555.934C64.702 554.423 63.2817 553.449 61.6579 553.782C60.375 554.043 59.2767 555.065 58.4293 556.01C57.6529 556.88 56.9759 557.84 56.3368 558.814C51.92 565.562 49.3399 573.303 46.5421 580.82C46.3243 574.909 46.0166 569.002 45.3443 563.124C45.0792 560.791 44.7383 558.472 44.3454 556.162C45.3869 555.725 46.0497 554.19 46.4994 553.259C47.219 551.772 48.2416 550.432 49.1553 549.054C51.1057 546.117 52.9614 543.061 54.5426 539.901C56.1285 536.737 57.331 533.396 57.6624 529.846C57.7808 528.554 57.7144 527.114 56.7818 526.111C55.7829 525.032 54.0124 524.809 52.6822 525.322C51.2809 525.859 50.2725 526.995 49.4582 528.221C48.6061 529.509 47.9008 530.911 47.2617 532.312C44.9514 537.373 43.678 542.795 42.788 548.269C41.3441 541.797 39.5499 535.401 37.6752 529.048C37.9876 528.601 38.2385 528.093 38.4042 527.504C38.5368 527.047 38.3711 526.563 38.0444 526.249C38.6835 525.346 39.2326 524.362 39.7629 523.45C41.4103 520.613 43.4365 518.019 45.3586 515.367C47.096 512.967 48.8854 510.477 50.1399 507.774C50.708 506.548 51.2288 505.188 51.1388 503.81C51.0442 502.423 50.2868 501.088 48.9423 500.589C46.7409 499.776 44.3644 501.644 42.8921 503.088C40.6245 505.317 39.209 508.415 38.1391 511.366C36.9603 514.612 36.2171 517.99 35.3413 521.326C34.101 517.377 32.7422 513.462 31.0096 509.703C29.7787 507.037 28.3064 504.537 26.6448 502.119C26.5217 501.938 26.3938 501.762 26.266 501.582C26.3323 501.529 26.3986 501.482 26.4555 501.43C26.9147 501.002 26.9525 500.484 26.7584 500.056C27.0472 499.629 27.2886 499.173 27.5206 498.721C28.4674 496.887 29.1727 494.924 29.7976 492.962C30.8959 489.493 32.0652 485.981 32.5244 482.36C32.9979 478.573 32.8133 474.144 30.4415 470.975C29.9113 470.271 29.0544 470.091 28.3632 470.708C26.8577 472.053 26.0009 473.911 25.5275 475.855C25.0588 477.798 24.789 479.832 24.5144 481.814C23.8375 486.689 23.6481 491.598 23.5534 496.516C23.4682 496.478 23.3925 496.445 23.3309 496.416C22.9143 496.212 22.6113 495.794 22.261 495.452C22.1332 495.323 22.0053 495.195 21.8728 495.072C21.1769 493.912 20.5331 492.715 19.9556 491.493C19.7283 491.009 19.2406 490.895 18.8004 491.018C18.469 490.282 18.1945 489.517 17.9389 488.747C16.5186 484.408 15.4202 479.927 13.6923 475.688C12.6319 473.094 11.278 470.661 9.29918 468.646C8.7737 468.114 7.96409 468.176 7.42914 468.646C4.83013 470.932 6.04207 475.351 6.96994 478.145C8.34282 482.279 10.653 485.881 13.3467 489.27C14.8616 491.175 16.4713 493.005 18.0477 494.858C18.0761 494.891 18.0998 494.924 18.1234 494.958C18.7957 495.775 19.5674 496.678 20.429 497.357C20.732 497.875 21.0492 498.388 21.3758 498.897C21.0776 498.835 20.784 498.769 20.5094 498.716C19.3306 498.498 18.1376 498.331 16.9447 498.227C14.6818 498.032 12.3952 498.084 10.1417 498.369C8.44222 498.583 6.72849 498.75 5.05736 499.153C3.42884 499.543 1.61105 500.194 0.536417 501.563C0.058276 502.171 -0.0412227 503.24 0.806176 503.644C4.29992 505.326 8.21025 504.951 11.9218 504.39C13.6402 504.134 15.3493 503.791 17.0772 503.606C18.5164 503.449 19.965 503.454 21.4041 503.283C22.2563 503.183 23.1274 503.045 23.9558 502.793C24.8553 504.129 25.7453 505.474 26.5643 506.871C29.4994 511.893 31.3457 517.444 33.0737 522.975C33.4382 524.149 33.7933 525.327 34.1483 526.501C33.9163 526.653 33.6796 526.786 33.5044 526.853C32.9269 527.057 32.6901 527.066 32.0558 527.057C31.1374 527.047 30.219 527.005 29.3054 526.948C27.5538 526.843 25.8069 526.686 24.0552 526.577C20.6988 526.363 17.2288 526.306 13.9149 526.986C12.5988 527.256 11.2542 527.713 10.137 528.478C8.79253 529.404 7.88841 530.626 7.26825 532.127C7.08836 532.569 7.32031 533.097 7.60909 533.42C9.1382 535.145 11.2969 535.62 13.5125 535.42C15.8937 535.206 18.2892 534.826 20.6515 534.46C23.1795 534.071 25.6979 533.591 28.1596 532.897C29.2153 532.598 30.2474 532.217 31.3126 531.97C32.1363 531.785 32.9648 531.647 33.7838 531.443C34.3613 531.296 34.9152 531.105 35.4312 530.863C36.4159 534.289 37.3627 537.73 38.2764 541.18C39.2327 544.796 40.1369 548.412 40.9038 552.062C40.6671 552.085 40.4351 552.109 40.1984 552.138C39.3746 551.8 38.5509 551.463 37.7272 551.135C35.8667 550.403 33.9779 549.776 32.0984 549.106C29.0592 548.018 26.0009 546.792 22.7486 546.544C21.087 546.421 19.2407 546.635 17.8678 547.666C17.2997 548.094 17.0014 548.802 17.3944 549.476C19.1507 552.494 22.5545 554.067 25.8116 554.851C29.0686 555.635 32.5434 555.844 35.862 555.407C37.2254 555.226 38.5841 555.046 39.9428 554.884C40.492 555.117 41.0411 555.345 41.5903 555.568C41.8317 556.899 42.0541 558.234 42.2482 559.579C43.3608 567.405 43.7159 575.313 43.9715 583.215C43.2993 583.453 42.6128 583.657 41.9264 583.852C40.1606 583.044 38.409 582.203 36.6242 581.433C33.2488 579.979 29.7693 578.924 26.1714 578.197C23.1558 577.584 19.6005 577.18 16.8642 578.934C16.2015 579.357 15.6096 579.884 15.1315 580.507C14.6486 581.129 14.6439 581.752 15.1315 582.379C17.5222 585.458 21.9249 586.404 25.5322 587.178C30.1953 588.181 35.062 588.091 39.7203 587.131C40.402 586.993 41.0742 586.831 41.7464 586.66C42.5275 587.012 43.3134 587.359 44.1087 587.663C44.2034 590.69 44.3029 593.717 44.4402 596.739C44.7858 604.195 45.3207 611.674 46.4285 619.064C45.2307 617.823 44.0236 616.593 42.7596 615.428C39.8718 612.767 36.5437 610.344 32.818 609.032C31.0238 608.4 29.1065 608.22 27.3833 609.137C26.6637 609.522 26.0198 610.087 25.7642 610.886C25.5085 611.693 25.7879 612.535 26.1571 613.252C27.0519 614.991 28.4579 616.588 29.826 617.971C31.2794 619.439 32.9032 620.741 34.6075 621.901C36.4775 623.174 38.4563 624.267 40.4824 625.265C42.7027 626.363 45.0035 627.598 47.5646 627.399C47.6877 627.389 47.8108 627.356 47.9291 627.318C48.3505 629.276 48.8239 631.219 49.3541 633.153C52.507 644.586 58.3631 654.941 63.367 665.609C63.6558 666.222 63.9398 666.84 64.2191 667.453C62.6995 666.127 61.123 664.849 59.5655 663.57C56.7156 661.232 53.7757 658.994 50.6891 656.979C49.1506 655.977 47.5789 655.045 45.9693 654.166C45.1219 653.705 44.2792 653.24 43.4318 652.779C42.6033 652.327 41.8459 651.747 40.9843 651.367C39.3652 650.655 37.3533 650.65 35.81 651.6C35.0336 652.08 34.9815 653.339 34.9436 654.171C34.9152 654.85 34.9909 655.559 35.1803 656.214C36.1035 659.355 39.3936 661.137 42.0542 662.606C43.6401 663.485 45.2592 664.297 46.8167 665.224C48.3789 666.151 49.8749 667.182 51.385 668.194C52.9283 669.235 54.4858 670.266 56.1001 671.188C57.7145 672.109 59.4282 672.794 61.194 673.35C62.6852 673.82 64.1907 674.329 65.7056 674.718C65.947 674.785 66.1837 674.818 66.4109 674.837C66.4109 675.008 66.411 675.179 66.4299 675.355C66.4678 675.692 66.6051 675.982 66.7944 676.206C66.5388 680.829 66.3731 685.462 66.2784 690.086C66.1742 695.351 66.2642 700.597 66.5814 705.829C65.7009 704.522 64.7399 703.273 63.7173 702.066C59.3762 696.919 54.1308 692.586 48.4025 689.069C46.8734 688.133 45.368 687.13 43.6732 686.517C41.8743 685.871 39.9333 685.914 38.1581 686.617C37.5663 686.85 37.2444 687.259 37.1875 687.895C36.9414 690.761 38.1201 693.251 39.8623 695.437C41.6517 697.684 43.7537 699.699 45.9124 701.571C48.2463 703.596 50.6938 705.478 53.0987 707.421C55.5462 709.398 58.027 711.265 60.6496 713C63.0498 714.582 65.4784 716.131 67.7365 717.913C67.7697 718.165 67.7933 718.412 67.8312 718.664C68.1673 721.107 68.5555 723.544 68.9768 725.977C69.2656 727.655 71.8173 726.942 71.5238 725.269C71.2397 723.63 70.984 721.986 70.7473 720.346C71.0456 720.313 71.3344 720.194 71.5427 719.976C73.0056 718.436 74.3311 716.835 75.9217 715.423C77.6023 713.941 79.1835 712.349 80.7836 710.781C82.3885 709.203 84.1069 707.768 85.7827 706.266C86.6207 705.516 87.4539 704.755 88.2729 703.985C89.0871 703.225 89.9677 702.474 90.6968 701.628C93.7266 698.117 96.5575 694.396 99.3317 690.68C101.443 687.853 103.91 685.13 105.95 682.179C107.995 679.218 109.737 675.854 109.931 672.19C109.974 671.34 110.092 669.843 109.458 669.206C108.767 668.517 107.488 668.146 106.551 668.009C105.543 667.857 104.506 667.923 103.545 668.27C102.485 668.65 101.675 669.263 100.771 669.905C99.0477 671.131 97.3481 672.352 95.7669 673.763C94.2141 675.141 92.8602 676.676 91.4541 678.197C88.6042 681.276 85.9438 684.502 83.4915 687.91C78.6864 694.586 74.7051 701.804 70.951 709.108C70.5296 709.925 70.113 710.743 69.7011 711.56C69.0241 704.351 68.778 697.119 68.9295 689.82C69.0289 685.058 69.1993 680.283 69.4691 675.507C70.2834 674.609 70.9746 673.592 71.7652 672.67C72.8398 671.411 73.8435 670.095 74.9607 668.873C76.1111 667.614 77.4413 666.535 78.6958 665.386C79.8936 664.293 81.0723 663.185 82.218 662.035C84.5424 659.707 86.7012 657.222 88.5901 654.527C90.4033 651.942 92.1974 649.3 93.878 646.63C95.8048 643.56 97.4475 640.281 97.883 636.641C97.9919 635.748 96.9552 635.177 96.2119 635.363C91.5394 636.499 88.6374 640.756 85.6739 644.192C82.0002 648.459 78.5728 652.935 75.4436 657.621C73.673 660.268 71.9971 662.981 70.4065 665.742C70.1792 666.136 70.1745 666.516 70.3071 666.84C70.2266 666.939 70.1461 667.044 70.0704 667.144C70.4444 662.834 70.9272 658.533 71.5616 654.266C73.2658 642.733 75.9549 631.371 79.1315 620.166C79.638 618.37 80.1634 616.583 80.6936 614.796C80.8498 614.654 81.006 614.511 81.1575 614.369C81.5552 614.245 81.9481 614.126 82.3411 614.008C85.2478 613.157 88.1593 612.335 91.0518 611.442C95.0616 610.201 99.0807 608.738 102.698 606.576C106.745 604.166 110.547 600.588 111.323 595.717C111.446 594.948 111.129 594.368 110.4 594.083C108.208 593.227 105.798 593.793 103.706 594.663C101.524 595.565 99.3648 596.644 97.315 597.818C92.8176 600.398 88.8505 603.72 85.0111 607.184C84.0927 608.006 83.1743 608.838 82.2654 609.674C84.6608 602.033 87.2834 594.468 90.1712 586.998C91.1086 584.574 92.0744 582.17 93.0496 579.765C94.0816 579.461 94.9431 578.672 95.7053 578.093C96.2024 577.712 96.7658 577.418 97.2913 577.085C98.0535 576.605 98.8062 576.101 99.5494 575.598C102.205 573.787 104.837 572.02 107.668 570.494C110.457 568.993 113.307 567.591 115.967 565.866C118.703 564.093 121.26 561.983 123.674 559.788C124.309 559.213 124.896 558.491 125.582 557.987C126.202 557.536 126.851 557.222 127.357 556.623C128.342 555.464 128.579 553.986 128.077 552.556C127.864 551.938 127.424 551.662 126.804 551.582C120.929 550.817 115.087 553.421 110.272 556.571C105.955 559.394 102.13 562.848 98.6311 566.621C101.969 559.042 105.467 551.529 109.046 544.054C109.306 544.073 109.567 544.021 109.789 543.893C110.433 543.518 110.542 542.767 110.248 542.135C110.201 542.03 110.163 541.93 110.121 541.826C110.196 541.669 110.272 541.512 110.343 541.36C112.251 541.85 114.32 540.03 115.674 538.932C116.071 538.614 116.455 538.286 116.843 537.958C116.98 537.844 117.118 537.73 117.255 537.616C117.326 537.559 117.402 537.497 117.473 537.44C117.492 537.426 117.496 537.416 117.51 537.407C117.51 537.407 117.51 537.407 117.515 537.407C118.164 537.088 118.779 536.57 119.38 536.162C120.133 535.648 120.881 535.126 121.634 534.603C124.597 532.545 127.651 530.692 130.775 528.896C133.81 527.152 136.754 525.294 139.543 523.175C140.987 522.082 142.369 520.922 143.733 519.734C144.973 518.655 146.114 517.615 147.051 516.241C147.913 514.973 148.864 513.405 148.519 511.822C148.206 510.43 147.046 509.689 145.711 509.532C144.462 509.384 143.117 509.655 141.919 509.993C140.296 510.444 138.748 511.171 137.289 512.012C134.52 513.614 131.954 515.614 129.398 517.534C124.834 520.965 120.521 524.709 116.493 528.744C117.316 527.062 118.145 525.379 118.969 523.697C122.396 516.74 126.68 510.34 130.988 503.939C130.998 503.929 131.012 503.92 131.022 503.91C134.075 501.358 137.943 500.142 141.465 498.422C143.458 497.452 145.418 496.421 147.42 495.476C148.012 495.195 148.594 494.915 149.167 494.596C152.808 492.596 156.32 490.296 159.658 487.825C161.547 486.428 163.417 484.964 165.083 483.296C166.257 482.118 167.592 480.678 167.995 479.005C168.179 478.216 168.141 477.39 167.744 476.672Z" fill="#7A8DB5" fill-opacity="0.3"/>
</svg>
