<svg width="716" height="796" viewBox="0 0 716 796" fill="none" xmlns="http://www.w3.org/2000/svg">
<path d="M589.355 98.306C586.172 98.306 582.989 97.51 580.204 95.918C503.815 56.516 437.771 39.8 358.597 39.8C279.821 39.8 205.023 58.506 136.989 95.918C127.441 101.092 115.505 97.51 109.935 87.958C104.763 78.406 108.343 66.068 117.892 60.894C191.894 20.696 273.057 0 358.597 0C443.341 0 517.343 18.706 598.506 60.496C608.452 65.67 612.033 77.61 606.861 87.162C603.28 94.326 596.517 98.306 589.355 98.306ZM20.0186 307.256C16.04 307.256 12.0615 306.062 8.48072 303.674C-0.67004 297.306 -2.65934 284.968 3.70641 275.814C43.0945 220.094 93.2247 176.314 152.904 145.668C277.831 81.192 437.771 80.794 563.096 145.27C622.775 175.916 672.906 219.298 712.294 274.62C718.659 283.376 716.67 296.112 707.519 302.48C698.369 308.848 686.035 306.858 679.669 297.704C643.862 247.556 598.506 208.154 544.795 180.692C430.609 122.186 284.595 122.186 170.807 181.09C116.698 208.95 71.3425 248.75 35.5351 298.898C32.3523 304.47 26.3844 307.256 20.0186 307.256ZM268.681 787.642C263.508 787.642 258.336 785.652 254.756 781.672C220.142 747.046 201.442 724.758 174.786 676.6C147.334 627.646 133.011 567.946 133.011 503.868C133.011 385.662 234.067 289.346 358.199 289.346C482.331 289.346 583.387 385.662 583.387 503.868C583.387 515.012 574.634 523.768 563.494 523.768C552.354 523.768 543.601 515.012 543.601 503.868C543.601 407.552 460.449 329.146 358.199 329.146C255.949 329.146 172.797 407.552 172.797 503.868C172.797 561.18 185.528 614.114 209.797 657.098C235.26 702.868 252.766 722.37 283.401 753.414C290.961 761.374 290.961 773.712 283.401 781.672C279.025 785.652 273.853 787.642 268.681 787.642ZM553.946 714.012C506.6 714.012 464.825 702.072 430.609 678.59C371.328 638.392 335.919 573.12 335.919 503.868C335.919 492.724 344.672 483.968 355.812 483.968C366.952 483.968 375.705 492.724 375.705 503.868C375.705 559.986 404.351 612.92 452.889 645.556C481.137 664.66 514.16 673.814 553.946 673.814C563.494 673.814 579.409 672.62 595.323 669.834C606.065 667.844 616.41 675.008 618.399 686.152C620.388 696.898 613.227 707.246 602.087 709.236C579.409 713.614 559.516 714.012 553.946 714.012ZM473.976 796C472.385 796 470.395 795.602 468.804 795.204C405.544 777.692 364.167 754.21 320.8 711.624C265.1 656.302 234.465 582.672 234.465 503.868C234.465 439.392 289.369 386.856 357.005 386.856C424.641 386.856 479.546 439.392 479.546 503.868C479.546 546.454 516.547 581.08 562.301 581.08C608.054 581.08 645.055 546.454 645.055 503.868C645.055 353.822 515.751 232.034 356.607 232.034C243.615 232.034 140.172 294.918 93.6226 392.428C78.1061 424.666 70.1489 462.476 70.1489 503.868C70.1489 534.912 72.9339 583.866 96.8054 647.546C100.784 657.894 95.6119 669.436 85.2675 673.018C74.9232 676.998 63.3853 671.426 59.8045 661.476C40.3095 609.338 30.7608 557.598 30.7608 503.868C30.7608 456.108 39.9116 412.726 57.8152 374.916C110.731 263.874 228.099 191.836 356.607 191.836C537.633 191.836 684.841 331.534 684.841 503.47C684.841 567.946 629.937 620.482 562.301 620.482C494.665 620.482 439.76 567.946 439.76 503.47C439.76 460.884 402.759 426.258 357.005 426.258C311.252 426.258 274.251 460.884 274.251 503.47C274.251 571.528 300.509 635.208 348.65 682.968C386.447 720.38 422.652 741.076 478.75 756.598C489.492 759.384 495.46 770.528 492.675 780.876C490.686 790.03 482.331 796 473.976 796Z" fill="#FCF2EA"/>
</svg>
