<svg width="67" height="75" viewBox="0 0 67 75" fill="none" xmlns="http://www.w3.org/2000/svg">
<path d="M55.1492 9.46653C54.8513 9.46653 54.5535 9.39203 54.2929 9.24305C47.1447 5.55563 40.9646 3.99127 33.5558 3.99127C26.1843 3.99127 19.1851 5.74186 12.8188 9.24305C11.9253 9.72725 10.8084 9.39203 10.2872 8.49811C9.80321 7.60419 10.1383 6.44955 11.0318 5.96534C17.9565 2.20343 25.5514 0.266602 33.5558 0.266602C41.4858 0.266602 48.4106 2.01719 56.0054 5.92809C56.9362 6.4123 57.2713 7.5297 56.7873 8.42362C56.4522 9.09406 55.8193 9.46653 55.1492 9.46653ZM1.87325 29.021C1.50095 29.021 1.12866 28.9093 0.793587 28.6858C-0.0626993 28.0899 -0.248849 26.9352 0.346828 26.0785C4.03258 20.864 8.72354 16.7669 14.308 13.8989C25.9982 7.86492 40.9646 7.82767 52.692 13.8616C58.2765 16.7296 62.9674 20.7895 66.6532 25.9668C67.2489 26.7862 67.0627 27.9781 66.2064 28.5741C65.3501 29.17 64.196 28.9838 63.6003 28.1271C60.2496 23.434 56.0054 19.7466 50.9794 17.1766C40.2944 11.7013 26.6311 11.7013 15.9834 17.2138C10.9201 19.8211 6.6759 23.5458 3.32522 28.2388C3.02738 28.7603 2.46893 29.021 1.87325 29.021ZM25.1419 73.9777C24.6579 73.9777 24.1739 73.7915 23.8389 73.419C20.5999 70.1786 18.8501 68.0928 16.3557 63.5859C13.7868 59.0046 12.4465 53.4176 12.4465 47.4209C12.4465 36.3586 21.9029 27.3449 33.5186 27.3449C45.1343 27.3449 54.5907 36.3586 54.5907 47.4209C54.5907 48.4638 53.7716 49.2832 52.7292 49.2832C51.6868 49.2832 50.8677 48.4638 50.8677 47.4209C50.8677 38.4072 43.0867 31.0696 33.5186 31.0696C23.9505 31.0696 16.1695 38.4072 16.1695 47.4209C16.1695 52.7844 17.3609 57.7382 19.6319 61.7608C22.0146 66.0442 23.6527 67.8693 26.5194 70.7745C27.2268 71.5195 27.2268 72.6741 26.5194 73.419C26.1099 73.7915 25.6259 73.9777 25.1419 73.9777ZM51.8357 67.0871C47.4053 67.0871 43.4962 65.9697 40.2944 63.7722C34.7472 60.0102 31.4337 53.9018 31.4337 47.4209C31.4337 46.378 32.2528 45.5585 33.2952 45.5585C34.3377 45.5585 35.1567 46.378 35.1567 47.4209C35.1567 52.6726 37.8373 57.6265 42.3793 60.6807C45.0226 62.4685 48.1127 63.3252 51.8357 63.3252C52.7292 63.3252 54.2184 63.2135 55.7076 62.9527C56.7128 62.7665 57.6808 63.4369 57.8669 64.4798C58.0531 65.4855 57.3829 66.4539 56.3405 66.6401C54.2184 67.0499 52.3569 67.0871 51.8357 67.0871ZM44.3525 74.7599C44.2036 74.7599 44.0174 74.7227 43.8685 74.6854C37.949 73.0466 34.0771 70.849 30.019 66.8636C24.8068 61.6863 21.9401 54.7957 21.9401 47.4209C21.9401 41.3869 27.0779 36.4704 33.4069 36.4704C39.736 36.4704 44.8737 41.3869 44.8737 47.4209C44.8737 51.4063 48.3361 54.6467 52.6175 54.6467C56.899 54.6467 60.3613 51.4063 60.3613 47.4209C60.3613 33.3789 48.2616 21.9814 33.3697 21.9814C22.7964 21.9814 13.1167 27.8664 8.76077 36.9918C7.30881 40.0088 6.56421 43.5472 6.56421 47.4209C6.56421 50.3261 6.82482 54.9075 9.05861 60.8669C9.43091 61.8353 8.94692 62.9155 7.97895 63.2507C7.01097 63.6232 5.9313 63.1017 5.59624 62.1706C3.77197 57.2912 2.87846 52.4492 2.87846 47.4209C2.87846 42.9513 3.73474 38.8914 5.41009 35.353C10.3617 24.9611 21.3445 18.2195 33.3697 18.2195C50.3093 18.2195 64.0843 31.2931 64.0843 47.3836C64.0843 53.4176 58.9466 58.3341 52.6175 58.3341C46.2884 58.3341 41.1507 53.4176 41.1507 47.3836C41.1507 43.3982 37.6884 40.1578 33.4069 40.1578C29.1255 40.1578 25.6631 43.3982 25.6631 47.3836C25.6631 53.7528 28.1203 59.7123 32.6251 64.1819C36.1619 67.6831 39.5498 69.6199 44.7993 71.0725C45.8045 71.3332 46.3629 72.3761 46.1023 73.3445C45.9162 74.2012 45.1343 74.7599 44.3525 74.7599Z" fill="#FCF2EA"/>
</svg>
