<svg width="16" height="16" viewBox="0 0 16 16" fill="none" xmlns="http://www.w3.org/2000/svg">
<path d="M7.71896 3.67856C5.59068 3.67856 3.87401 5.40707 3.87401 7.55002C3.87401 9.69297 5.59068 11.4215 7.71896 11.4215C9.84724 11.4215 11.5639 9.69297 11.5639 7.55002C11.5639 5.40707 9.84724 3.67856 7.71896 3.67856ZM7.71896 10.067C6.34361 10.067 5.21924 8.93822 5.21924 7.55002C5.21924 6.16182 6.34026 5.03306 7.71896 5.03306C9.09765 5.03306 10.2187 6.16182 10.2187 7.55002C10.2187 8.93822 9.09431 10.067 7.71896 10.067ZM12.618 3.5202C12.618 4.02224 12.2164 4.4232 11.7212 4.4232C11.2226 4.4232 10.8244 4.01887 10.8244 3.5202C10.8244 3.02152 11.2259 2.61719 11.7212 2.61719C12.2164 2.61719 12.618 3.02152 12.618 3.5202ZM15.1646 4.43668C15.1077 3.22706 14.8333 2.15558 13.9532 1.2728C13.0765 0.39001 12.0123 0.113718 10.811 0.0530683C9.57283 -0.0176894 5.86174 -0.0176894 4.62359 0.0530683C3.4256 0.110348 2.36146 0.38664 1.48137 1.26943C0.601279 2.15221 0.330224 3.22369 0.26999 4.43331C0.199717 5.67999 0.199717 9.41667 0.26999 10.6634C0.326878 11.873 0.601279 12.9445 1.48137 13.8272C2.36146 14.71 3.42225 14.9863 4.62359 15.047C5.86174 15.1177 9.57283 15.1177 10.811 15.047C12.0123 14.9897 13.0765 14.7134 13.9532 13.8272C14.8299 12.9445 15.1043 11.873 15.1646 10.6634C15.2349 9.41667 15.2349 5.68336 15.1646 4.43668ZM13.565 12.001C13.304 12.6614 12.7987 13.1702 12.1395 13.4364C11.1523 13.8306 8.80987 13.7396 7.71896 13.7396C6.62805 13.7396 4.28226 13.8272 3.29843 13.4364C2.64255 13.1736 2.13725 12.6648 1.87289 12.001C1.48137 11.007 1.57172 8.64845 1.57172 7.55002C1.57172 6.45159 1.48471 4.08963 1.87289 3.09902C2.13391 2.43861 2.6392 1.92983 3.29843 1.66365C4.28561 1.26943 6.62805 1.3604 7.71896 1.3604C8.80987 1.3604 11.1557 1.2728 12.1395 1.66365C12.7954 1.92646 13.3007 2.43525 13.565 3.09902C13.9565 4.093 13.8662 6.45159 13.8662 7.55002C13.8662 8.64845 13.9565 11.0104 13.565 12.001Z" fill="white"/>
</svg>
