<svg width="869" height="786" viewBox="0 0 869 786" fill="none" xmlns="http://www.w3.org/2000/svg">
<path d="M0.684773 388.182C42.8472 345.409 85.1075 302.637 127.27 259.964C136.759 250.36 143.9 250.855 151.237 262.142C183.128 310.558 214.921 359.073 246.518 407.687C248.475 410.657 248.377 415.013 249.257 418.677C245.638 419.469 241.92 421.152 238.399 420.954C221.279 419.568 204.16 417.588 187.041 415.905C171.682 414.419 166.987 419.568 169.334 435.112C184.302 535.014 234.584 611.746 319.398 664.519C374.864 699.073 436.2 712.934 501.254 708.578C567.285 704.122 626.274 680.558 677.436 638.281C730.848 594.122 766.75 538.083 783.576 469.964C800.206 402.835 795.999 337.093 770.369 273.033C745.62 211.35 705.316 162.043 650.045 125.706C609.35 98.8747 564.742 82.5381 516.319 77.0925C498.906 75.1123 485.015 67.6866 479.047 49.6668C470.439 23.3301 491.373 -2.90752 519.058 0.260803C642.806 14.5182 738.968 74.8153 807.445 179.766C845.596 238.38 866.922 303.429 868.585 373.528C872.303 522.835 812.336 640.162 689.664 723.429C632.045 762.538 567.481 782.637 498.319 785.608C415.266 789.172 338.278 768.479 268.333 722.34C194.769 673.825 143.509 607.192 113.281 524.122C101.835 492.736 95.3791 460.162 92.1508 426.895C90.5856 410.756 85.3031 405.608 69.3577 403.924C50.5754 401.944 31.793 400.261 13.0107 398.083C8.60857 397.588 4.30429 396.004 0 394.914C0.195649 392.736 0.489123 390.459 0.684773 388.182Z" fill="#FCF2EA"/>
<path d="M495.483 76.3678L494.896 79.4371C494.211 82.4074 495.972 86.6648 497.635 86.6648C497.831 86.6648 498.026 86.6648 498.124 86.5658C499.689 85.6747 499.2 80.8232 497.342 78.447L495.483 76.3678ZM533.145 93.1005C532.754 93.1005 531.58 93.7935 530.211 94.6846C528.352 95.9718 527.569 97.3579 527.569 99.3381C527.569 101.021 527.569 101.615 528.059 101.615C528.352 101.615 528.841 101.318 529.722 100.823C531.58 99.7341 534.124 93.9916 533.145 93.1005C533.243 93.1005 533.243 93.1005 533.145 93.1005ZM474.059 95.9718C473.57 95.9718 473.081 96.6648 472.298 98.15C471.32 100.031 470.929 102.11 471.32 103.497C471.614 104.784 471.809 105.378 472.201 105.378C472.494 105.378 472.983 104.982 473.766 104.388C475.722 102.704 476.211 98.8431 474.744 96.5658C474.548 96.1698 474.255 95.9718 474.059 95.9718ZM431.31 99.2391C430.821 99.2391 430.527 100.031 430.527 100.922C430.527 103.497 433.364 106.764 435.516 106.764C437.082 106.764 437.375 106.368 436.886 104.586C436.201 102.605 432.777 99.3381 431.31 99.2391ZM453.321 109.932C452.929 109.932 452.244 110.526 450.973 111.714C448.136 114.289 447.255 118.348 449.114 118.348C449.408 118.348 449.799 118.249 450.19 118.051C452.636 116.863 454.299 113.794 453.907 111.318C453.712 110.427 453.614 109.932 453.321 109.932ZM535.395 118.15C534.026 118.15 533.537 118.348 534.222 118.645C534.515 118.744 535.004 118.744 535.395 118.744C535.787 118.744 536.276 118.744 536.667 118.645C537.254 118.348 536.765 118.15 535.395 118.15ZM439.821 117.853C439.625 117.853 439.527 118.645 439.527 119.932C439.527 121.219 439.625 121.912 439.821 121.912C439.919 121.912 439.919 121.813 440.016 121.516C440.212 120.625 440.212 119.14 440.016 118.249C440.016 117.952 439.919 117.853 439.821 117.853ZM356.474 122.11C356.181 122.11 356.083 122.209 356.083 122.605C356.083 125.279 359.018 130.031 360.876 130.526C361.365 130.625 361.757 130.724 362.05 130.724C362.833 130.724 362.931 130.13 362.735 128.645C362.539 126.566 357.941 122.11 356.474 122.11ZM403.626 126.566C402.843 126.566 401.963 126.863 400.887 127.457C398.245 128.942 400.593 131.12 404.702 131.12C408.81 131.12 409.691 129.833 406.854 127.952C405.484 126.962 404.604 126.566 403.626 126.566ZM367.235 130.625C367.039 130.625 367.039 131.021 367.235 131.714C367.528 132.704 368.017 134.883 368.409 136.467C368.8 138.348 369.778 139.635 370.952 139.932C371.246 140.031 371.441 140.031 371.637 140.031C374.083 140.031 373.104 135.576 369.778 132.506C368.311 131.219 367.528 130.625 367.235 130.625ZM557.308 134.487L556.134 137.556C554.96 140.724 555.939 145.279 557.895 145.279C559.558 145.279 560.047 140.922 558.58 137.655L557.308 134.487ZM595.949 138.744C595.362 138.744 594.286 139.536 592.721 141.021C590.079 143.497 589.492 147.16 591.645 147.16C593.405 147.16 595.068 145.18 596.145 141.615C596.731 139.734 596.634 138.744 595.949 138.744ZM517.787 153.794C517.004 153.794 516.809 154.685 517.2 156.269C517.885 158.843 521.015 162.209 522.776 162.209C524.537 162.209 523.559 158.249 521.211 156.071C519.646 154.487 518.472 153.794 517.787 153.794ZM646.329 153.794C645.742 153.794 644.763 154.487 643.394 155.873C641.339 158.051 640.459 162.209 642.024 162.209C643.883 162.209 646.133 159.635 646.72 156.764C647.111 154.784 647.013 153.794 646.329 153.794ZM490.298 164.19C489.711 164.19 489.809 165.18 490.396 167.061C490.885 168.744 492.255 170.922 493.526 171.714C494.407 172.407 494.994 172.803 495.287 172.803C495.679 172.803 495.776 172.209 495.972 170.823C496.266 168.942 495.581 167.853 493.526 166.269C491.863 164.883 490.885 164.19 490.298 164.19ZM504.092 175.477C503.896 175.477 504.385 175.972 505.461 177.16C506.635 178.447 507.32 179.041 507.711 179.041C507.907 179.041 508.005 178.843 508.005 178.348C508.005 177.952 507.026 177.16 505.852 176.368C504.874 175.774 504.287 175.477 504.092 175.477ZM302.671 187.259C301.399 187.259 299.736 187.556 298.464 188.15C294.355 190.13 294.649 191.219 299.149 191.219C302.573 191.219 305.214 189.932 305.214 188.348C305.116 187.655 304.04 187.259 302.671 187.259ZM613.362 192.209C612.481 192.209 610.916 193.101 609.84 194.091C607.688 196.17 607.199 199.734 609.155 199.734C612.677 199.635 616.883 192.209 613.362 192.209ZM420.843 193.2L421.919 195.972C422.799 198.447 426.125 201.417 427.69 201.417C427.886 201.417 428.082 201.318 428.277 201.219C429.647 199.833 427.397 196.17 424.267 194.685L420.843 193.2ZM444.81 190.724C444.321 190.724 444.321 191.516 444.321 193.596C444.321 195.576 445.103 198.051 446.179 199.338L448.038 201.615L448.527 199.041C449.114 196.071 448.038 193.101 445.886 191.318C445.397 191.021 445.005 190.724 444.81 190.724ZM630.97 203.001C630.579 203.001 630.481 203.299 630.481 203.893C630.481 206.566 632.633 209.932 634.981 210.922C635.764 211.318 636.35 211.417 636.742 211.417C637.231 211.417 637.427 211.021 637.427 210.229C637.427 208.15 634.981 204.685 632.437 203.497C631.655 203.2 631.264 203.001 630.97 203.001ZM645.155 213.893C644.666 213.893 643.687 214.388 642.318 215.279C641.144 216.071 640.166 217.556 640.166 218.447C640.166 219.338 639.774 220.328 639.187 220.526C638.698 220.724 638.6 221.417 639.09 222.011C639.285 222.308 639.579 222.407 639.872 222.407C641.535 222.407 644.763 219.14 645.448 216.269C645.937 214.685 645.839 213.893 645.155 213.893ZM310.497 219.635C309.91 219.635 309.127 219.833 307.855 220.13C306.094 220.526 304.627 224.091 305.312 226.071C305.41 226.269 305.605 226.368 305.801 226.368C307.171 226.368 310.692 223.398 311.279 221.318C311.67 220.13 311.475 219.635 310.497 219.635ZM536.471 222.209C534.613 222.209 532.069 222.803 531.091 223.794C528.743 225.972 529.232 226.962 532.265 226.962C534.808 226.962 538.33 224.586 538.33 222.902C538.33 222.407 537.548 222.209 536.471 222.209ZM560.928 217.655C560.243 217.655 559.852 218.546 559.852 220.229C559.852 222.902 563.178 228.15 564.351 228.15C564.645 228.15 564.743 227.952 564.841 227.457C565.036 224.091 564.547 221.912 563.178 219.734C562.297 218.348 561.515 217.655 560.928 217.655ZM622.655 226.071C619.72 226.071 619.72 226.071 621.285 228.447C622.655 230.427 624.416 231.516 626.177 231.516C626.861 231.516 627.546 231.318 628.133 231.021C629.601 230.229 629.601 230.031 627.644 228.15C626.47 226.863 624.318 226.071 622.655 226.071ZM297.779 234.388L300.518 236.764C302.279 238.348 303.747 239.14 304.529 239.14C304.921 239.14 305.214 238.942 305.214 238.447C305.116 236.863 303.551 235.576 300.812 234.982L297.779 234.388ZM344.442 235.576C343.561 235.576 342.681 236.17 340.431 237.556L337.007 239.635L340.724 239.932C341.116 239.932 341.605 239.932 341.898 239.932C343.855 239.932 345.322 239.536 346.496 238.546C348.257 236.962 348.257 236.764 346.594 236.17C345.616 235.873 345.029 235.576 344.442 235.576ZM610.133 236.665C609.84 236.665 609.449 237.16 608.666 237.952C606.807 239.932 606.318 242.903 607.786 242.903C609.351 242.903 611.014 240.13 610.623 238.15C610.525 237.16 610.427 236.665 610.133 236.665ZM441.777 251.714C441.484 251.714 441.386 251.813 441.386 252.11C441.386 254.784 443.734 258.744 445.788 259.635C446.668 260.031 447.255 260.229 447.647 260.229C448.136 260.229 448.234 259.833 448.234 259.041C448.234 258.15 447.549 256.368 446.668 255.279C445.299 253.497 442.755 251.714 441.777 251.714ZM318.812 255.18C318.42 255.18 318.518 256.566 319.007 258.15C319.888 261.318 322.236 263.497 323.605 263.497C324.29 263.497 324.779 263.002 324.779 261.714C324.779 259.833 320.475 255.18 318.812 255.18ZM414.875 249.437V253.299C414.875 255.477 415.56 258.546 416.343 260.13C418.104 263.596 423.288 267.16 426.321 267.16C426.517 267.16 426.712 267.16 426.908 267.061C429.06 266.665 429.06 266.665 426.908 266.467C424.951 266.368 424.658 265.774 424.658 262.506C424.658 258.15 422.31 254.388 417.81 251.318L414.875 249.437ZM386.995 259.338C386.506 259.338 386.017 259.833 385.528 260.724C384.061 263.299 384.158 265.972 385.822 267.259C386.115 267.556 386.506 267.655 386.8 267.655C388.365 267.655 389.441 264.883 388.756 262.209C388.365 260.328 387.68 259.338 386.995 259.338ZM656.013 268.249C655.622 268.249 654.057 269.437 652.491 271.021C650.144 273.497 649.85 274.388 650.339 277.655C650.633 279.833 651.122 281.813 651.318 282.11C651.513 282.209 651.709 282.308 651.905 282.308C653.274 282.308 655.915 280.031 656.894 277.754C658.068 274.883 657.481 268.249 656.013 268.249ZM646.524 289.14C646.329 289.14 646.133 289.635 646.231 290.526C646.231 291.12 646.329 291.516 646.524 291.516C646.622 291.516 646.72 291.417 646.818 291.12C647.111 290.427 647.013 289.635 646.72 289.338C646.622 289.14 646.622 289.14 646.524 289.14ZM347.083 289.041C346.887 289.041 345.322 289.734 343.561 290.427C340.431 291.714 337.496 295.873 338.866 297.061C339.061 297.259 339.355 297.358 339.648 297.358C341.409 297.358 344.833 294.685 346.007 291.912C346.692 290.427 347.083 289.14 347.083 289.041ZM668.143 300.229C666.774 300.229 664.817 301.12 663.741 302.11C661.198 304.586 661.296 305.873 664.035 305.873C666.774 305.873 668.046 304.982 669.513 302.308C670.589 300.427 670.393 300.229 668.143 300.229ZM340.724 325.576C339.061 325.576 336.811 326.368 334.855 327.952L332.116 330.229L336.127 330.328C338.768 330.328 340.627 329.734 341.703 328.645C343.561 326.566 342.583 325.576 340.724 325.576ZM561.906 333.002V336.368C561.906 338.249 562.493 340.922 563.275 342.407C564.645 344.784 570.612 349.932 571.982 349.932C572.08 349.932 572.177 349.932 572.177 349.833C572.471 349.635 572.275 347.259 571.786 344.586C570.906 339.437 568.949 336.566 564.645 334.487L561.906 333.002ZM570.514 354.784C569.145 354.784 567.775 355.081 566.895 355.576C565.819 356.269 566.21 356.764 568.558 357.952C569.928 358.645 570.808 358.942 571.786 358.942C572.569 358.942 573.254 358.744 574.134 358.348C576.58 357.358 576.677 357.16 575.014 355.972C573.938 355.18 572.177 354.784 570.514 354.784ZM472.103 355.18C472.983 355.378 473.668 355.576 474.157 355.675C474.744 355.972 475.429 356.17 476.114 356.467C476.603 356.962 477.092 357.259 477.288 357.259C478.461 357.259 485.896 377.16 492.842 398.645C493.722 401.516 494.113 404.883 494.798 414.685C495.972 432.804 495.874 433.101 492.059 439.536C490.298 442.506 488.635 444.883 488.342 444.883C486.972 444.883 484.918 442.704 484.233 440.625C483.255 437.16 483.842 433.596 486.19 429.734C487.266 427.952 488.831 426.071 489.613 425.576C491.276 424.586 492.94 419.734 492.353 417.556C492.157 416.764 491.766 413.992 491.472 411.12C490.69 402.903 487.363 398.249 480.516 395.774C478.364 394.982 476.407 394.685 474.548 394.685C472.103 394.685 469.755 395.279 467.212 396.566C460.657 399.833 458.016 404.883 457.723 414.487C457.625 420.526 458.31 424.091 460.266 425.675C460.951 426.368 462.223 427.952 462.907 429.437C463.69 430.823 464.766 432.804 465.353 433.794C465.94 434.784 466.429 436.269 466.429 437.16C466.429 440.427 463.103 445.18 460.657 445.18C460.07 445.18 458.603 443.2 456.647 440.031L453.418 434.883L453.321 430.13C453.321 427.457 453.516 423.695 453.712 421.714C454.005 419.734 454.397 414.586 454.592 410.328C455.081 401.813 455.375 400.724 462.614 376.17C467.016 361.219 468.288 358.249 471.125 355.873C471.516 355.675 471.809 355.378 472.103 355.18ZM463.592 553.101C465.157 553.101 467.896 553.794 469.07 554.586C470.342 555.477 470.538 555.873 470.538 558.546V561.615L468.777 561.318C468.581 561.318 468.19 561.219 467.896 561.219C466.82 561.219 465.255 561.417 464.081 561.615C462.81 561.912 461.342 562.011 459.483 562.011C458.212 562.011 456.744 561.912 454.984 561.813C451.56 561.516 446.668 561.219 444.027 561.12C441.484 560.922 439.527 560.625 439.723 560.427C440.016 560.229 442.364 559.437 445.005 558.645C451.364 556.764 462.027 553.497 462.712 553.2C462.907 553.101 463.299 553.101 463.592 553.101ZM507.907 89.7341C506.537 89.7341 504.092 90.7242 502.233 92.2094C499.396 94.4866 499.2 94.9817 499.2 101.516C499.2 107.16 498.613 110.823 498.026 110.823C497.733 110.823 497.439 110.13 497.244 108.546C496.853 106.17 495.874 104.685 493.429 103.199C491.863 102.209 490.69 101.714 489.907 101.714C488.44 101.714 488.244 103.299 489.32 106.566C490.298 109.932 493.526 113.398 496.461 114.388C497.439 114.784 492.157 125.774 489.124 129.635C488.733 130.13 488.44 130.526 488.146 130.526C487.657 130.526 487.266 129.239 486.581 125.774C485.407 120.031 481.494 113.298 477.483 109.932L475.331 108.15L476.994 110.526C481.298 116.566 483.255 119.833 482.472 119.833C482.179 119.833 481.69 119.437 480.809 118.744C479.635 117.655 478.266 117.16 476.798 117.16C475.82 117.16 474.744 117.457 473.864 117.952C471.809 119.14 476.309 121.615 480.027 121.615C480.32 121.615 480.516 121.615 480.809 121.615C481.201 121.615 481.592 121.615 481.983 121.615C483.646 121.615 484.135 122.11 484.624 123.695C485.994 128.348 485.505 134.982 483.548 138.744C477.581 150.031 477.385 164.19 482.961 179.932C484.918 185.378 486.287 189.932 486.19 190.031C486.19 190.031 486.19 190.031 486.092 190.031C485.7 190.031 483.646 188.843 481.494 187.259C479.146 185.576 473.766 182.308 469.462 179.932C462.223 175.972 461.831 175.477 461.538 172.209C461.342 168.645 458.799 163.992 457.136 163.992C456.549 163.992 456.157 166.17 456.157 168.744C456.157 172.11 456.06 173.1 455.179 173.1C454.886 173.1 454.494 173.001 453.907 172.803C445.495 170.328 440.897 164.487 437.375 151.318C434.245 140.031 435.321 130.328 440.114 125.279C441.092 124.289 441.19 123.596 440.603 123.596C439.919 123.596 438.842 122.209 438.06 120.526C437.375 118.942 435.321 116.269 433.658 114.784L430.625 112.011V116.071C430.625 119.536 431.212 120.625 433.951 123.199L437.375 126.17L435.419 132.11C434.44 135.279 433.56 138.942 433.56 140.328C433.56 141.12 433.462 141.615 433.169 141.615C432.68 141.615 431.408 140.427 428.669 137.655C424.854 133.695 423.875 132.011 423.777 129.437C423.777 127.655 422.897 125.081 421.821 123.794C420.843 122.605 420.354 122.11 420.158 122.11C419.962 122.11 419.865 122.506 419.767 123.398C419.375 127.16 419.375 130.922 419.767 130.922H419.864C421.038 130.922 428.962 139.833 431.701 144.289C433.266 146.962 435.419 152.011 436.397 155.576C437.375 159.041 438.94 163.596 439.821 165.675C440.995 168.15 441.386 168.942 440.799 168.942C440.603 168.942 440.212 168.843 439.723 168.645C438.745 168.15 431.799 167.754 424.267 167.556C405.582 167.061 406.071 167.259 406.756 162.11C407.245 158.744 406.952 157.259 404.897 153.893C403.528 151.615 401.669 149.338 400.887 148.645C400.495 148.348 400.202 148.15 399.908 148.15C399.419 148.15 399.126 148.942 398.734 150.823C397.854 155.576 399.028 160.328 401.767 162.803C404.017 164.784 404.604 165.774 403.528 165.774C402.843 165.774 401.669 165.477 399.908 164.883C394.234 163.001 388.267 157.952 382.202 149.635C379.561 146.071 376.43 142.506 375.354 141.813C375.061 141.714 374.963 141.615 374.865 141.615C374.572 141.615 375.159 142.506 376.724 144.19C378.387 146.071 379.854 147.754 379.854 147.952H379.756C379.365 147.952 377.898 147.556 376.235 146.962C373.887 146.17 371.539 145.774 369.387 145.774C367.626 145.774 365.963 146.071 364.691 146.665C363.713 147.061 363.42 147.259 363.713 147.259C363.909 147.259 364.496 147.16 365.474 147.061C365.963 146.962 366.354 146.962 366.746 146.962C367.528 146.962 368.115 147.16 368.115 147.556C368.115 148.051 367.528 148.447 366.746 148.447C364.594 148.447 360.876 151.714 358.431 155.972L356.083 160.031L359.213 159.437C365.67 158.249 369.289 155.774 371.246 151.516C372.224 149.239 373.398 147.457 373.691 147.457C373.985 147.457 376.137 148.447 378.485 149.833C383.082 152.506 390.615 161.615 388.071 161.615C386.017 161.615 380.832 164.388 380.832 165.378C380.832 166.071 381.909 166.368 383.278 166.368C385.43 166.368 388.463 165.576 389.637 164.388C390.615 163.497 391.104 163.001 391.691 163.001C392.376 163.001 393.256 163.596 395.017 164.784C396.974 166.071 399.81 167.358 401.376 167.655C404.604 168.348 405.386 170.031 402.452 170.031C398.245 170.031 386.8 176.665 381.419 182.308C378.387 185.378 375.941 188.348 375.941 188.744C375.941 189.041 375.159 189.14 374.083 189.14C373.496 189.14 372.909 189.14 372.224 189.041C371.441 188.942 370.854 188.843 370.267 188.843C368.8 188.843 367.822 189.239 367.137 190.13C365.963 191.417 365.963 191.813 367.235 192.605C367.822 193.001 368.702 193.101 369.583 193.101C371.833 193.101 374.572 192.209 375.452 191.021C382.985 179.338 392.767 173.497 410.473 169.635L413.115 169.041L410.767 171.516C409.397 172.902 408.321 174.289 408.321 174.784C408.321 175.18 408.028 176.071 407.734 176.962C407.245 178.051 407.734 178.447 409.789 178.447C413.702 178.447 418.006 175.675 419.278 172.11C420.354 169.239 420.745 169.041 424.951 169.041C431.506 169.041 442.658 172.308 454.592 177.655C464.766 182.308 466.136 183.299 464.081 184.487C462.81 185.279 462.81 188.348 464.179 190.823C464.668 191.813 464.962 192.308 465.255 192.308C465.549 192.308 465.94 191.714 466.625 190.625C467.309 189.437 467.896 187.655 467.994 186.665C467.994 185.774 468.092 185.279 468.581 185.279C469.364 185.279 471.027 186.368 474.646 189.041C481.298 193.992 489.222 202.902 491.863 208.546C494.896 215.081 495.287 233.497 492.548 244.388C490.69 252.11 485.114 264.883 483.646 264.883C483.353 264.883 480.418 261.219 477.19 256.665C471.614 248.645 471.418 248.249 471.125 241.318C470.733 232.407 471.614 229.833 475.429 229.437C478.07 229.14 483.353 224.784 482.277 223.695C482.179 223.695 482.081 223.596 481.885 223.596C481.201 223.596 479.733 223.794 478.168 224.19C476.798 224.586 476.016 224.784 475.527 224.784C475.038 224.784 475.135 224.586 475.527 224.091C476.212 223.398 476.701 220.922 476.701 218.447C476.701 214.289 476.309 213.398 472.201 209.239C469.657 206.665 467.309 204.586 466.918 204.586C465.94 204.685 466.722 211.714 468.092 215.18C468.679 216.566 470.538 218.645 472.201 219.734C473.864 220.823 475.429 221.912 475.625 222.011C475.82 222.209 475.038 223.497 473.864 225.081C470.929 228.942 467.896 235.774 467.114 240.13L466.429 243.794L460.07 240.13C456.549 238.051 451.658 235.576 449.114 234.784C443.636 232.902 442.951 230.724 447.353 228.942C450.19 227.853 452.244 223.992 450.875 222.506C450.777 222.407 450.581 222.407 450.386 222.407C449.701 222.407 448.429 222.803 447.255 223.497L444.418 225.081V221.615C444.418 218.447 445.299 212.011 446.766 204.982C447.06 203.695 447.158 203.001 447.158 203.001C447.06 203.101 446.864 203.596 446.473 204.487C445.886 205.774 445.005 208.744 444.418 211.021L443.245 215.279L441.484 212.011C440.506 210.229 438.256 207.457 436.495 205.873L433.266 203.101L436.103 206.368C440.897 212.11 442.462 216.467 442.462 224.883C442.462 229.239 442.071 232.704 441.679 232.704C439.919 232.704 424.169 227.259 420.451 225.378C413.506 221.912 413.31 221.615 416.343 220.625C419.278 219.536 421.234 215.873 420.745 212.308L420.451 210.031L417.028 212.308C414.484 213.893 413.506 215.378 413.115 217.754L412.625 220.922L409.593 217.457C407.93 215.477 405.973 212.11 405.386 210.031C404.604 207.556 402.256 204.388 398.93 201.219C396.093 198.447 393.55 195.18 393.158 193.893C392.669 191.912 388.952 188.546 387.68 188.546C387.485 188.546 387.387 188.546 387.289 188.645C387.093 188.843 387.387 190.328 387.778 191.912C388.365 193.992 390.028 195.675 393.452 197.754C396.778 199.734 399.224 202.209 401.278 205.675C403.821 209.833 404.702 212.11 404.017 212.11C403.723 212.11 403.039 211.714 402.06 210.724C400.104 208.843 395.311 207.556 391.398 207.556C390.028 207.556 388.756 207.754 387.778 208.051C385.43 208.843 385.528 208.942 390.224 212.407C393.941 215.18 395.115 215.774 398.343 215.774C398.93 215.774 399.517 215.774 400.202 215.774C401.18 215.675 402.06 215.675 402.647 215.675C405.289 215.675 405.778 216.269 407.245 218.447C409.495 221.912 414.582 225.675 421.723 228.942C424.462 230.229 426.712 231.714 426.81 232.011C426.81 232.308 424.462 232.407 420.843 232.407C409.691 232.407 386.702 231.318 382.789 230.328C378.289 229.239 378.289 229.239 377.996 223.596C377.898 221.417 371.637 213.992 369.974 213.893C368.115 213.893 369.094 221.219 371.441 224.487L373.887 227.853L368.8 225.873C365.963 224.883 360.974 223.101 357.55 222.11C352.855 220.724 350.116 219.239 346.496 215.774C341.116 210.823 340.627 209.536 344.05 208.744C347.572 207.853 350.507 202.704 350.507 197.457V193.001L347.376 194.586C342.387 196.962 340.724 198.843 340.724 201.615C340.724 203.596 340.333 204.685 339.746 204.685C339.159 204.685 338.377 203.794 337.496 202.11C336.714 200.328 334.561 197.457 332.801 195.576C330.061 192.605 329.866 191.813 330.746 189.833C331.529 188.249 331.529 186.764 330.942 185.18C330.355 183.695 329.67 182.902 328.985 182.902C327.909 182.902 327.029 184.982 327.029 188.447V191.12L322.627 189.536C319.105 188.249 317.736 187.061 315.975 183.794C314.018 180.13 310.105 176.368 308.344 176.368C308.149 176.368 307.953 176.467 307.855 176.566C306.584 177.754 308.736 182.407 311.964 185.378C314.899 188.051 315.094 188.447 313.431 188.447C312.355 188.447 310.203 189.437 308.736 190.823L305.997 193.101L309.812 193.2C312.453 193.2 314.41 192.506 315.877 191.219C316.953 190.229 318.225 189.833 319.79 189.833C323.605 189.833 328.398 192.803 332.996 198.348C335.246 201.12 335.637 202.11 334.757 202.803C334.366 203.101 333.583 203.2 332.507 203.2C329.768 203.2 325.562 202.308 322.627 201.021C321.355 200.427 320.67 200.13 320.475 200.13C320.377 200.13 320.768 200.526 321.649 201.219C323.996 203.001 329.377 204.487 333.681 204.487C336.616 204.487 337.007 204.883 339.355 209.833C340.724 212.803 342.876 216.368 344.246 217.754L346.692 220.328L343.463 220.922C341.605 221.219 338.572 222.209 336.616 223.299L333.094 224.982L326.638 222.11C322.431 220.229 320.181 218.645 320.181 217.556C320.181 216.665 319.007 214.784 317.54 213.497C315.779 212.011 314.605 211.219 313.92 211.219C312.942 211.219 313.236 213.002 314.801 216.368C315.975 218.645 317.344 219.635 320.377 220.526C324.485 221.714 329.964 225.081 329.964 226.467C329.964 227.853 319.399 234.784 314.605 236.665C312.355 237.556 311.279 238.249 311.964 238.249C312.062 238.249 312.16 238.249 312.355 238.249L314.899 237.952L313.04 241.417C312.062 243.299 310.986 246.368 310.692 248.249L310.105 251.714L313.529 249.833C319.007 246.764 321.355 243.596 321.844 239.14C322.333 235.279 322.822 234.586 328.496 230.625C336.322 225.18 340.431 223.497 346.398 223.497C351.387 223.497 362.148 225.873 363.615 227.259C364.887 228.447 359.8 233.695 355.887 235.378C354.322 236.071 353.539 236.566 354.224 236.665C356.278 236.665 359.507 234.784 363.322 231.417C365.474 229.437 366.354 228.744 367.528 228.744C368.115 228.744 368.898 228.942 369.876 229.239C373.496 230.427 373.887 231.516 371.05 232.209C369.876 232.506 369.094 233.497 369.094 234.685C369.094 235.972 369.68 236.566 370.463 236.566C371.441 236.566 372.713 235.576 373.789 233.794C374.67 232.209 375.55 231.417 376.43 231.417C376.626 231.417 376.724 231.417 376.919 231.516C381.028 233.2 389.05 234.784 396.289 235.378L404.31 235.972L399.028 238.051C390.615 241.318 375.452 250.526 373.496 253.596C373.398 253.794 373.202 253.893 372.909 253.893C372.322 253.893 371.441 253.497 370.267 252.704C368.898 251.714 367.822 251.318 366.648 251.318C366.061 251.318 365.474 251.417 364.789 251.615L361.952 252.407L364.691 254.487C366.159 255.576 368.017 256.566 368.8 256.566C372.126 256.566 367.528 260.724 360.583 263.893C354.615 266.665 351.681 267.259 345.518 267.655C343.757 267.259 342.29 267.259 341.116 267.259C338.866 267.259 337.496 267.16 337.496 266.962C337.496 266.566 337.985 265.378 338.572 264.289C339.746 262.11 337.594 255.18 335.051 253.2C334.757 253.002 334.464 252.803 334.268 252.803C333.681 252.803 333.192 253.695 332.605 256.071C330.551 263.299 333.779 268.15 340.724 268.15H344.833L341.605 270.625C338.474 273.002 333.974 280.13 334.953 281.021C335.051 281.12 335.246 281.12 335.54 281.12C337.398 281.12 342.974 279.041 344.833 277.556C345.811 276.665 347.474 274.289 348.55 272.011C349.626 269.635 351.094 268.051 352.072 268.051C352.952 267.952 356.083 267.16 358.822 266.269C361.365 265.477 363.42 264.784 363.909 264.784C364.007 264.784 364.007 264.784 364.007 264.784C364.007 264.982 363.126 266.566 362.05 268.447C353.833 282.407 352.268 287.457 354.615 290.724L355.985 292.605L357.061 290.724C358.528 288.051 358.431 285.873 356.768 284.091C355.496 282.704 356.083 281.318 362.246 271.813C370.463 258.942 372.517 256.467 378.778 251.912C383.963 248.15 392.963 243.794 394.821 243.794C395.311 243.794 395.213 244.091 394.528 244.784C392.376 246.863 393.843 258.645 396.191 258.645C398.93 258.645 400.202 248.15 397.756 244.883C396.484 243.002 396.582 242.803 399.028 241.714C401.082 240.922 409.593 238.051 410.669 237.952C410.767 238.051 410.18 239.338 409.299 240.823C408.517 242.308 408.126 243.893 408.419 244.19C408.615 244.388 408.908 244.487 409.202 244.487C410.962 244.487 414.288 242.011 415.169 239.833C416.049 237.457 416.93 237.061 420.549 236.467C421.919 236.269 424.364 236.17 427.104 236.17C428.962 236.17 431.017 236.17 432.875 236.269C444.125 236.863 450.288 239.833 460.462 249.635C468.972 257.853 473.179 264.784 476.016 275.279C477.875 282.011 477.972 285.081 476.505 291.417L475.429 296.17L471.222 290.724C468.875 287.853 464.668 283.695 461.929 281.615C456.451 277.556 451.658 271.615 450.581 267.655C450.19 266.071 449.897 265.378 449.701 265.378C449.408 265.378 449.505 267.16 450.19 269.833C450.777 272.407 450.777 273.398 450.288 273.398C450.19 273.398 450.092 273.398 449.995 273.299C442.755 270.328 436.103 267.952 433.462 267.556C432.386 267.358 431.603 267.259 431.408 267.259C431.017 267.259 431.799 267.556 434.147 268.15L437.962 269.338L434.343 270.922C432.386 271.813 430.821 273.002 430.821 273.596C430.821 274.289 431.799 274.586 433.169 274.586C435.223 274.586 438.06 273.893 439.429 272.704C440.31 271.912 440.897 271.417 441.679 271.417C443.245 271.417 445.788 273.2 452.636 278.15C457.723 281.813 459.19 283.398 457.331 283.398C456.94 283.398 456.451 283.299 455.766 283.2C455.473 283.2 455.277 283.101 454.984 283.101C452.831 283.101 450.386 284.487 450.386 285.774C450.386 286.665 452.049 287.16 453.907 287.16C455.375 287.16 456.842 286.863 457.918 286.17C458.799 285.576 459.483 285.279 460.168 285.279C461.831 285.279 463.396 287.259 467.407 293.101C473.375 301.615 473.57 303.101 470.44 311.417L467.799 318.348L464.375 314.685C460.755 310.823 451.168 304.586 445.495 302.605C443.636 301.912 440.799 300.427 439.136 299.338C433.853 295.576 430.43 294.487 420.549 292.803C410.278 291.12 404.408 289.734 404.408 288.843C404.408 288.546 405.484 287.16 406.854 285.576C408.908 283.2 409.299 281.813 409.299 276.863C409.299 273.596 408.908 270.625 408.419 270.427C408.321 270.427 408.321 270.328 408.223 270.328C406.56 270.328 401.473 278.447 401.473 281.219C401.473 282.605 401.865 284.883 402.452 286.269C403.039 287.655 403.234 288.15 402.843 288.15C402.55 288.15 401.865 287.853 400.593 287.259C397.952 285.972 394.919 282.803 391.887 278.645C391.495 277.952 391.202 277.655 391.104 277.655C391.006 277.655 391.3 278.249 391.789 279.239C392.474 280.526 393.843 282.704 394.821 284.091C396.387 287.061 396.387 287.061 394.332 287.061C393.256 287.061 390.908 287.754 389.245 288.546C386.898 289.635 386.506 290.229 387.582 290.922C388.463 291.417 389.539 291.714 390.615 291.714C392.278 291.714 393.941 291.12 395.408 290.031C396.582 289.14 397.169 288.645 397.854 288.645C398.539 288.645 399.321 289.14 400.789 290.031C402.452 290.922 408.126 292.803 413.506 294.289C425.441 297.259 427.593 298.348 422.017 298.447C414.875 298.447 403.919 301.219 399.224 304.091C396.68 305.576 391.789 310.031 388.169 313.893C384.648 317.655 380.148 321.714 378.191 322.704C376.528 323.695 375.55 324.19 375.159 324.19C374.572 324.19 375.159 323.2 376.333 320.724C377.702 317.952 377.702 316.764 376.724 312.308C376.137 309.437 375.256 306.764 374.767 306.467H374.67C373.398 306.467 369.876 313.596 369.876 316.17C369.876 317.358 370.561 319.833 371.343 321.714C372.517 324.487 372.615 325.279 371.637 325.873C371.441 325.972 371.246 326.071 371.148 326.071C370.463 326.071 370.17 325.081 369.778 323.002C369.387 320.427 368.115 318.15 365.963 315.972C364.104 314.19 362.344 312.704 362.05 312.704C361.659 312.704 361.757 314.883 362.05 317.556C362.539 321.219 363.322 322.804 365.278 324.388C368.702 326.962 368.604 327.655 364.985 327.655C363.028 327.655 360.778 326.566 358.137 324.289C356.083 322.605 354.909 321.714 354.42 321.714C353.931 321.714 354.713 323.002 356.67 325.477L359.115 328.546L355.985 328.942C354.909 329.14 355.3 329.14 356.963 329.14C357.844 329.14 359.213 329.14 360.778 329.041C362.931 328.942 364.398 328.942 365.572 328.942C368.702 328.942 368.604 329.338 367.92 330.922C367.43 332.11 367.43 334.289 367.822 335.675L368.507 338.249L370.757 335.477C372.224 333.695 372.811 331.912 372.615 330.229C372.224 327.952 372.615 327.457 375.354 326.665C377.115 326.071 380.343 324.388 382.495 322.804L386.506 320.031L385.919 323.992C385.626 326.269 384.941 329.437 384.452 331.219C383.963 333.002 383.865 334.685 384.061 334.982C384.158 334.982 384.159 334.982 384.159 334.982C384.354 334.982 384.55 334.586 384.55 334.091C384.55 333.893 384.648 333.893 384.745 333.893C385.235 333.893 386.506 334.982 388.071 336.764C390.321 339.338 391.691 340.526 392.474 340.526C393.061 340.526 393.354 339.833 393.354 338.447C393.354 334.685 391.398 330.625 388.854 329.338C386.702 328.348 386.408 327.655 386.995 324.784C389.05 314.289 398.441 305.576 409.984 303.596C411.256 303.398 412.039 303.299 412.43 303.299C413.115 303.299 412.625 303.695 411.354 304.784C410.18 305.774 408.81 307.457 408.126 308.546C406.952 310.823 406.658 321.021 407.832 321.021C409.397 321.021 415.658 313.992 416.245 311.516C416.538 310.229 416.343 307.754 415.854 306.17L414.973 303.2H421.038C427.984 303.2 435.027 304.784 440.995 307.754C445.005 309.734 447.158 311.714 445.397 311.714C443.832 311.714 435.419 319.338 433.853 322.11C432.777 324.091 431.701 324.883 429.745 324.883C426.614 324.883 422.114 327.556 424.658 327.754C426.223 327.952 427.495 328.051 428.473 328.051C430.625 328.051 431.701 327.556 431.995 326.566C432.288 325.675 433.658 323.992 435.027 322.804L437.571 320.526L436.886 322.704C436.103 324.982 438.158 328.843 439.625 328.843C439.919 328.843 440.212 328.744 440.408 328.348C441.582 326.566 441.484 321.219 440.31 320.427C439.723 320.031 439.527 319.437 439.919 318.942C440.799 317.556 447.842 314.388 449.995 314.388C452.636 314.388 457.331 320.427 461.538 329.14C463.886 333.992 464.766 335.972 465.255 341.12C464.864 342.506 464.57 344.19 464.277 346.071C463.103 353.299 462.223 355.378 453.81 372.506C444.321 391.714 443.147 395.081 442.266 404.388C441.973 407.259 441.19 413.893 440.505 419.14C439.723 425.18 439.234 432.506 439.038 439.041C438.843 449.14 438.842 449.536 440.408 455.279C442.071 461.417 442.853 463.596 445.005 466.665C445.788 467.952 446.473 470.031 446.766 472.804C447.549 478.051 449.114 484.091 451.658 491.318C453.614 496.863 455.179 505.477 455.473 512.605L455.668 516.467L453.321 518.942C450.484 521.912 443.44 527.457 441.875 528.051C441.19 528.249 439.429 529.338 437.766 530.328C436.201 531.417 434.44 532.209 433.951 532.209C431.897 532.209 417.419 537.754 404.506 543.398C394.137 547.952 383.865 553.398 382.887 554.982C382.691 555.279 381.811 555.873 380.832 556.269C379.854 556.665 378.289 557.754 377.409 558.645C372.224 563.695 372.811 569.338 378.974 572.209C382.398 573.794 386.604 574.586 394.43 574.586C401.082 574.586 410.278 573.992 423.777 572.903C438.158 571.714 446.864 571.12 452.147 571.12C454.201 571.12 455.668 571.219 456.744 571.318C459.386 571.714 463.103 574.883 464.766 577.952C465.451 579.338 466.625 582.705 467.407 585.576C468.19 588.447 469.364 591.615 470.146 592.606C471.125 593.992 471.516 595.18 471.516 597.358C471.516 599.833 471.614 600.229 472.592 600.229C473.962 600.229 474.059 602.507 472.885 606.764C472.494 608.447 472.005 612.21 472.005 615.279C471.907 618.348 471.516 622.21 471.125 624.091C467.505 638.546 467.212 641.516 468.679 651.12C470.538 663.2 470.538 667.259 468.972 675.081C468.19 678.942 467.309 683.101 467.114 684.388C466.82 685.675 466.625 690.13 466.527 694.388C466.429 701.417 466.429 702.21 467.407 703.695C467.994 704.586 468.483 705.774 468.483 706.269C468.483 706.863 468.875 707.853 469.364 708.447C469.951 709.239 470.44 709.437 471.516 709.437C471.712 709.437 472.005 709.437 472.201 709.437C473.962 709.239 474.157 709.14 474.059 708.051C473.962 707.358 474.059 706.962 474.255 706.962C474.548 706.962 475.038 707.358 475.82 708.249C476.505 709.041 476.798 709.338 477.19 709.338C477.483 709.338 477.875 709.14 478.461 708.744C479.048 708.348 479.635 708.051 479.831 708.051H479.929C479.929 708.15 480.027 708.249 480.125 708.249C480.809 708.249 483.157 706.17 483.548 705.081C484.233 703.2 483.646 701.913 480.32 697.754C477.483 694.19 476.994 692.804 476.994 687.655C476.896 682.309 477.581 679.14 481.103 668.546C482.472 664.19 484.135 658.645 484.82 656.17C488.146 643.2 487.95 644.487 488.146 626.17L488.342 608.843L490.2 603.101C491.276 599.932 492.548 595.477 493.233 593.002C494.603 587.655 496.07 583.299 498.907 575.378C503.896 561.912 505.559 552.308 504.678 542.308C503.994 533.893 503.505 532.308 498.809 523.398C494.7 515.675 494.407 514.883 494.407 511.813C494.309 506.17 495.679 496.665 497.146 492.705C499.2 487.16 501.939 476.071 502.526 471.516C502.82 468.447 503.407 466.764 504.874 464.388C507.026 460.724 509.081 453.398 509.863 446.467C511.135 435.576 508.102 406.071 504.483 395.18C502.722 389.635 500.961 385.873 494.798 374.091C487.266 359.635 483.451 351.12 482.961 347.655C482.472 344.289 481.201 339.536 480.222 337.457C479.635 324.784 484.037 314.289 494.994 300.823C500.863 293.497 502.82 291.615 506.146 291.615C506.831 291.615 507.515 291.714 508.396 291.813C513.581 292.704 525.515 297.358 528.548 299.833C530.211 301.12 530.798 302.506 530.504 304.685C530.211 307.457 529.917 307.754 527.276 307.754C525.613 307.754 522.972 308.645 521.406 309.635L518.472 311.516L522.091 311.813C522.483 311.813 522.776 311.813 523.167 311.813C524.928 311.813 526.787 311.516 527.765 311.021C528.45 310.724 528.841 310.526 529.135 310.526C529.624 310.526 529.722 310.922 529.722 312.011C529.722 314.883 526.2 323.101 523.363 326.665C521.015 329.635 514.559 333.596 512.113 333.596C511.526 333.596 510.352 334.19 509.668 334.883C508.2 336.269 506.635 341.12 507.613 341.12C509.668 341.12 513.972 338.051 514.461 336.269C514.754 334.982 516.907 333.101 519.841 331.615C526.2 328.249 530.602 322.011 533.145 312.605L535.2 305.18L537.548 308.645C539.211 311.417 539.993 314.487 540.678 321.318C541.069 326.269 541.852 331.417 542.341 332.903C543.221 335.18 543.026 335.477 540.091 335.873C536.276 336.566 534.319 338.546 532.167 343.398L530.602 346.962L533.83 346.269C538.428 345.378 541.852 342.705 542.243 339.833C542.439 338.447 542.928 337.259 543.417 337.259C545.765 337.259 546.058 347.061 543.808 350.427L542.243 352.804L544.297 350.526C545.471 349.338 546.352 347.061 546.352 345.477V342.605L550.558 346.665C552.808 348.942 555.547 351.219 556.623 351.615C556.819 351.714 556.917 351.714 557.015 351.714C557.308 351.714 556.33 350.625 554.373 349.041C552.123 347.16 549.189 343.893 547.917 341.714C545.374 337.655 543.417 328.645 543.417 321.516C543.417 318.744 543.515 317.853 544.395 317.853C544.689 317.853 545.08 317.952 545.667 318.15C549.678 319.239 553.004 321.219 556.232 324.388C557.406 325.477 558.189 326.17 558.482 326.17C558.58 326.17 558.58 325.972 558.384 325.675C556.721 322.804 552.123 318.942 547.33 316.467C541.95 313.695 540.971 311.714 544.982 311.714C545.471 311.714 545.96 311.714 546.645 311.813C547.428 311.912 548.21 311.912 548.797 311.912C550.265 311.912 551.341 311.714 551.634 311.318C552.515 309.932 549.287 308.447 545.96 308.447C545.569 308.447 545.276 308.447 544.884 308.546C544.395 308.645 543.906 308.645 543.515 308.645C541.852 308.645 541.069 308.051 540.091 306.467C536.08 300.031 524.341 292.11 514.559 289.14C511.526 288.249 509.081 287.061 509.081 286.665C509.081 284.883 527.472 274.487 530.602 274.487C531.189 274.487 531.091 275.576 530.113 277.259C529.33 278.744 528.646 280.625 528.646 281.516C528.646 282.11 528.939 282.308 529.33 282.308C530.798 282.308 534.417 278.942 535.2 276.17L536.178 273.2L537.841 277.556C539.308 281.219 540.384 282.209 544.884 284.487C547.33 285.774 549.58 286.566 550.558 286.566C550.754 286.566 550.852 286.566 550.95 286.467C552.319 285.081 547.037 276.962 543.711 275.477C541.95 274.685 540.482 273.695 540.482 273.2C540.482 272.903 541.558 272.704 543.417 272.704C548.895 272.704 561.123 273.992 572.08 275.972C583.134 278.051 586.166 278.843 589.492 281.219L593.503 284.091L589.884 286.071C585.971 288.15 585.677 289.734 589.101 289.734C589.395 289.734 589.688 289.734 589.982 289.734C590.471 289.734 590.862 289.635 591.253 289.635C592.916 289.635 592.916 290.229 592.623 293.299C592.232 296.962 594.775 305.378 596.242 305.378C596.634 305.378 597.808 303.002 598.884 300.229C600.351 295.972 600.449 294.487 599.568 292.209C598.981 290.625 598.688 289.437 598.981 289.437C599.764 289.536 610.036 298.249 610.036 298.942C610.036 299.338 609.155 299.833 608.079 300.031C606.025 300.526 603.384 304.982 604.557 306.071C604.753 306.269 604.949 306.368 605.34 306.368C607.101 306.368 610.623 303.695 610.916 301.912C611.112 300.625 611.307 299.932 611.894 299.932C612.481 299.932 613.655 300.625 615.612 302.11C620.209 305.477 621.383 309.734 619.818 317.259C619.035 321.021 618.057 323.299 617.275 323.299C615.514 323.299 612.09 326.665 612.09 328.447C612.09 329.239 612.873 329.833 613.851 329.833C616.394 329.833 619.916 325.873 619.916 323.101C619.916 321.813 620.503 318.942 621.285 316.863C622.166 314.487 622.459 311.615 622.166 309.536C621.775 307.358 621.775 306.467 622.459 306.467C622.557 306.467 622.753 306.467 622.948 306.566C623.731 306.863 626.666 307.853 629.503 308.744C634.198 310.229 634.59 310.625 634.59 313.398C634.59 315.675 635.47 317.16 638.013 319.338C639.97 320.922 641.926 322.209 642.416 322.209C643.981 322.209 643.492 315.279 641.829 313.002C640.361 311.021 640.459 310.922 643.687 310.922C646.916 310.922 657.578 308.249 656.894 307.655C656.894 307.655 656.796 307.655 656.698 307.655C656.013 307.655 653.665 308.15 650.828 308.942C648.187 309.635 646.426 309.932 644.372 309.932C642.905 309.932 641.242 309.734 639.187 309.338C635.861 308.744 631.851 307.853 630.285 307.259L627.546 306.269L633.22 303.497C639.383 300.625 646.329 295.081 646.329 293.2C646.329 292.704 646.231 292.506 646.035 292.506C645.839 292.506 645.448 292.704 644.959 293.101C644.568 293.398 644.274 293.596 644.176 293.596C643.883 293.596 643.883 293.101 644.079 291.912C644.666 289.14 642.513 285.18 638.111 281.12L634.59 277.853V283.299C634.59 288.348 634.883 289.041 638.405 292.407C641.829 295.675 642.024 296.17 640.557 297.358C638.698 298.942 626.47 304.487 624.709 304.487C622.068 304.487 609.938 295.477 601.525 287.259L592.329 278.447L597.123 277.754C602.992 276.962 609.351 274.19 619.329 267.952C623.535 265.18 627.351 263.101 627.742 263.101C628.133 263.101 629.209 264.091 630.09 265.477C631.068 266.962 632.633 267.853 634.1 267.853C637.231 267.853 637.231 266.566 634.003 263.398C631.459 261.021 631.459 260.823 633.22 259.536C636.253 257.358 648.579 251.813 650.437 251.813C651.415 251.813 652.198 252.308 652.198 252.704C652.198 253.992 656.698 258.348 658.067 258.348C659.828 258.348 659.144 255.576 656.698 253.2L654.35 250.922L658.165 251.12C658.361 251.12 658.557 251.12 658.752 251.12C661.296 251.12 662.763 250.526 664.915 248.447C668.437 245.18 668.535 244.586 665.502 243.893C664.915 243.794 664.328 243.695 663.741 243.695C661.002 243.695 658.459 245.081 657.187 247.259C656.209 249.041 654.644 249.833 650.437 250.625C647.405 251.12 644.079 251.813 643.198 252.209C643.003 252.308 642.807 252.308 642.611 252.308C640.85 252.308 643.003 247.259 646.231 244.289C647.894 242.803 649.263 241.12 649.263 240.427C649.263 239.932 650.046 239.437 651.22 239.437C651.318 239.437 651.415 239.437 651.513 239.437C652.296 239.536 653.47 239.536 654.35 239.536C654.741 239.536 655.035 239.536 655.328 239.536C657.578 239.437 661.687 235.675 662.47 233.101C663.057 231.219 662.763 231.021 659.144 231.021C656.111 231.021 654.839 231.615 653.274 233.497L651.318 235.873L650.926 232.308C650.731 230.625 650.633 229.734 650.535 229.734C650.437 229.734 650.437 230.823 650.437 233.002C650.242 237.061 647.307 243.299 645.448 243.299C645.057 243.299 644.372 240.229 644.176 236.566C643.883 232.803 642.905 228.249 642.024 226.467C641.437 225.378 641.144 224.685 641.046 224.586C641.046 224.586 641.046 224.784 641.242 225.081C641.535 226.071 642.024 230.229 642.318 234.289C642.807 243.794 641.242 249.239 636.644 253.596C632.144 257.952 614.731 268.348 606.905 271.318C602.112 273.2 595.558 274.289 589.297 274.289C585.971 274.289 582.743 273.992 579.906 273.398C574.33 272.308 571.884 270.625 575.797 270.625C576.775 270.625 580.101 269.14 583.232 267.358L588.906 264.19L591.547 266.071C592.818 266.962 593.699 267.457 594.677 267.457C595.362 267.457 596.242 267.259 597.416 266.863L600.742 265.774L598.101 263.497C596.634 262.407 594.775 261.318 593.895 261.318C593.014 261.318 594.286 259.239 597.612 255.378C599.96 252.803 601.329 251.021 601.231 251.021C601.134 251.021 601.036 251.12 600.938 251.219C599.96 252.011 599.471 252.407 599.275 252.407C598.981 252.407 599.079 251.912 599.275 250.823C599.471 249.536 598.688 247.655 597.318 245.972L594.971 243.2L593.699 246.764C592.623 250.031 592.721 250.625 594.677 253.2L596.927 255.972L592.623 259.536C590.275 261.516 587.145 263.794 585.677 264.586L583.036 266.071L584.406 262.803C585.188 260.922 585.873 258.15 585.873 256.368V253.299L582.253 256.764C579.319 259.536 578.634 261.021 578.438 264.289C578.34 268.051 578.047 268.447 574.525 269.635C572.862 270.13 571.395 270.427 569.341 270.427C567.58 270.427 565.33 270.229 562.297 269.833C557.602 269.239 549.873 268.843 544.884 268.843C536.08 268.843 534.613 268.249 537.45 266.071C538.232 265.378 538.917 264.19 538.917 263.299C538.917 262.704 538.819 262.308 538.721 262.308C538.624 262.308 538.33 262.605 538.037 263.101C537.743 263.497 537.548 263.794 537.352 263.794C537.058 263.794 536.863 263.398 536.569 262.506C535.885 260.625 531.678 257.16 530.406 257.16C530.211 257.16 530.113 257.259 530.113 257.457C530.113 259.635 532.265 263.794 534.124 265.18C536.178 266.566 536.178 266.566 533.83 268.051C532.656 268.843 530.309 269.734 528.646 270.13C517.396 272.804 502.624 280.724 492.646 289.338L487.07 294.19L487.657 288.744C488.342 281.912 494.896 267.358 498.516 264.586C499.983 263.596 502.918 261.12 505.07 259.14C508.396 256.368 510.646 255.279 517.787 253.695C535.591 249.635 538.819 248.744 544.395 246.17C547.526 244.784 552.221 242.011 554.765 240.13C557.406 238.15 558.776 237.358 559.754 237.358C560.145 237.358 560.536 237.556 560.928 237.754C561.417 238.15 562.004 238.348 562.884 238.348C563.765 238.348 564.938 238.15 566.504 237.655L570.514 236.566L567.384 235.675C566.21 235.081 564.547 234.685 563.471 234.685C563.178 234.685 562.982 234.685 562.786 234.784C562.199 234.883 561.808 234.982 561.515 234.982C560.634 234.982 561.025 234.19 562.591 231.813C562.786 231.516 562.884 231.318 562.786 231.318C562.493 231.318 560.83 232.803 558.58 235.18C550.46 243.398 539.308 248.447 523.656 250.526C519.646 251.021 515.439 251.714 514.363 252.011C514.265 252.011 514.167 252.011 514.07 252.011C513.287 252.011 514.265 250.724 517.004 248.051C519.548 245.576 523.167 240.625 525.124 237.061C528.548 230.823 528.646 230.526 526.885 229.239C525.711 228.348 523.95 227.853 522.58 227.853C521.504 227.853 520.722 228.15 520.722 228.744C520.722 229.338 521.896 230.229 523.461 230.823C524.928 231.516 526.298 232.011 526.493 232.11C528.254 233.299 514.167 247.754 505.559 253.596C502.331 255.774 500.57 256.764 499.885 256.764C499.298 256.764 499.298 256.269 499.592 255.18C499.885 254.289 500.765 249.734 501.646 245.081C503.7 233.398 508.885 223.398 517.004 215.576C530.015 203.002 542.732 196.665 555.449 196.665C563.96 196.665 566.112 197.457 565.33 199.833C563.862 204.289 563.765 206.962 564.841 210.13C565.33 211.813 566.21 213.002 566.797 213.002C566.895 213.002 566.895 213.002 566.993 213.002C568.949 211.813 571.591 204.784 571.004 202.011L570.417 199.239L574.721 201.417C577.069 202.506 580.003 204.19 581.275 204.883L583.525 206.269L580.982 208.249C579.221 209.536 578.438 211.021 578.732 212.407C578.927 213.497 579.025 213.893 579.612 213.893C580.003 213.893 580.59 213.695 581.471 213.2C582.743 212.506 584.406 211.12 584.993 209.932C585.384 209.14 585.677 208.744 586.264 208.744C587.242 208.744 589.003 210.13 593.895 213.596C598.101 216.764 602.503 219.932 603.481 220.625C604.46 221.318 605.634 223.398 606.025 225.378C606.416 227.259 606.612 228.15 606.71 228.15C606.807 228.15 606.807 227.358 606.905 225.972L607.003 223.002L611.014 224.289C613.655 225.18 615.22 225.675 615.709 225.675C616.492 225.675 615.025 224.685 611.307 222.902C608.177 221.417 603.188 218.249 600.449 215.972L595.264 211.813L599.275 209.734C601.231 208.744 602.307 208.348 603.09 208.348C603.775 208.348 604.264 208.645 604.949 209.239C606.025 210.13 608.373 210.724 610.329 210.724C611.796 210.724 612.97 210.427 613.459 209.833C614.242 208.645 610.818 206.962 607.59 206.962C606.025 206.962 605.242 206.566 605.634 205.972C605.731 205.873 605.731 205.774 605.536 205.774C605.144 205.774 604.068 206.17 602.601 206.962C600.155 208.249 598.101 208.843 596.047 208.843C593.014 208.843 589.884 207.457 585.188 204.289C573.058 196.269 564.449 192.506 557.015 192.209C553.297 192.011 550.363 191.516 550.363 191.219C550.363 189.734 566.112 184.883 573.84 184.091L579.221 183.398L580.884 187.061C582.058 189.437 584.112 191.516 587.047 193.2C589.786 194.784 591.645 195.675 592.623 195.675C594.09 195.675 593.503 193.596 591.058 188.942L588.808 184.487H598.297C603.481 184.487 610.036 184.091 612.873 183.596C614.34 183.299 615.612 183.2 616.883 183.2C620.209 183.2 622.851 184.19 625.296 186.467C627.057 188.051 629.503 188.843 631.655 188.843C633.024 188.843 634.198 188.546 635.079 187.853C636.742 186.566 636.84 186.269 635.568 185.378C634.59 184.784 633.122 184.487 631.655 184.487C630.187 184.487 628.72 184.784 628.035 185.477C627.742 185.774 627.448 185.873 627.057 185.873C626.274 185.873 625.296 185.279 623.829 184.091L620.796 181.615L624.905 179.635C629.209 177.457 637.035 171.021 638.6 168.249C638.698 168.051 638.698 167.952 638.6 167.952C638.209 167.952 636.546 169.437 634.198 171.714C630.774 174.982 628.329 176.764 627.546 176.764C627.057 176.764 627.253 175.972 628.329 174.388C630.188 171.615 629.796 164.982 627.644 160.427L626.177 158.348L624.025 162.407C621.383 167.061 621.188 171.021 623.144 174.388C623.927 175.675 624.514 177.16 624.611 177.853C624.611 179.338 616.394 181.912 609.057 182.506L602.797 183.101L604.362 180.823C605.242 179.635 606.025 177.16 606.025 175.279L605.927 172.011L603.481 174.784C601.623 176.764 601.036 178.249 601.427 180.328L601.818 183.101L593.895 182.407C589.492 182.011 583.623 181.516 580.786 181.219L575.699 180.625L579.514 176.665C581.569 174.487 583.819 171.813 584.406 170.625C585.188 169.338 586.46 168.645 588.319 168.645C589.884 168.645 591.938 167.754 593.308 166.269L595.558 163.893H592.818C591.351 163.893 589.395 164.289 588.416 164.784C588.123 164.982 587.829 165.081 587.536 165.081C586.656 165.081 586.46 163.299 586.069 156.665C585.677 148.249 585.482 147.556 582.938 145.477C581.471 144.289 579.906 143.2 579.514 143.2C577.753 143.2 579.808 148.051 582.449 150.13C584.993 152.209 585.286 153.001 585.286 158.249C585.286 163.893 583.134 170.427 581.275 170.427C580.786 170.427 580.688 169.734 580.982 169.041C582.058 166.467 579.319 161.219 575.21 157.556L571.101 153.992L570.808 156.566C570.123 162.506 574.232 169.536 579.612 171.714C580.493 172.11 579.71 173.2 577.46 175.18C572.764 179.239 567.775 181.615 559.069 183.695C550.558 185.873 546.254 187.853 539.895 192.506C537.352 194.388 534.222 196.269 532.95 196.764L530.602 197.655L533.439 191.912C535.004 188.843 536.569 183.794 536.863 180.922C538.037 170.625 538.232 169.734 540.678 169.14C543.026 168.546 546.547 164.487 545.96 162.803C545.863 162.704 545.765 162.605 545.471 162.605C544.787 162.605 543.515 163.001 542.047 163.794L538.33 165.576L538.917 163.001C540.482 156.962 542.732 153.497 547.526 149.932C549.091 148.843 549.971 147.853 549.482 147.853C548.993 147.853 546.939 149.14 544.884 150.724L541.265 153.497V151.021C541.265 149.635 540.58 147.259 539.602 145.873C538.134 143.398 538.134 143.1 539.602 141.615C540.678 140.724 541.265 138.645 541.265 136.17L541.167 132.209L539.308 134.487C538.232 135.675 537.254 137.457 537.254 138.447C537.156 139.338 537.058 140.823 536.961 141.318C536.863 142.011 537.548 144.091 538.526 145.873C540.776 150.031 540.678 151.021 538.33 159.833C537.352 163.794 536.178 168.15 535.885 169.734L535.298 172.506L533.537 169.734C532.559 168.249 530.504 165.972 528.939 164.685L526.102 162.308L528.646 165.081C530.113 166.665 531.776 168.942 532.461 170.13C534.319 173.596 533.928 182.308 531.678 187.16C529.917 191.12 521.602 202.506 519.743 203.596H519.646C518.472 203.596 512.896 193.695 512.896 191.516C512.896 190.724 513.776 189.536 514.852 188.843C517.396 187.061 518.57 182.407 516.417 182.407C515.635 182.407 514.07 183.299 513.091 184.289L511.233 186.269L510.548 184.091C510.254 182.902 509.961 180.031 509.863 177.655C509.765 175.477 509.765 174.487 509.668 174.487C509.57 174.487 509.374 175.18 508.983 176.467C508.2 179.833 511.135 192.11 514.657 199.635C515.83 202.209 516.711 204.685 516.711 205.279C516.613 205.873 513.189 209.437 508.983 213.2L501.352 220.031L499.689 212.902C498.809 208.843 495.874 199.635 493.135 192.308C485.7 172.11 483.646 165.675 482.961 158.744C482.179 150.922 483.353 148.348 491.766 139.536L498.026 133.1L500.179 135.675C501.548 137.358 503.309 138.249 504.581 138.249C505.461 138.249 506.048 137.853 506.048 136.863C506.048 135.972 504.972 134.289 503.602 133.1L501.059 130.922L503.798 129.041C508.005 126.269 512.015 124.487 519.841 121.912C523.852 120.625 526.102 119.437 524.928 119.437H522.678L524.635 116.368C525.711 114.784 526.591 112.704 526.493 111.912C526.493 111.615 526.396 111.516 526.298 111.516C526.102 111.516 525.809 112.011 525.515 112.803C524.243 115.873 520.917 119.239 517.494 121.021C516.222 121.615 515.341 122.011 514.754 122.011C513.874 122.011 514.07 121.021 514.95 118.744C515.733 116.269 515.635 114.982 513.874 111.021C512.015 106.962 510.352 104.685 509.276 104.685C508.983 104.685 508.787 104.784 508.591 105.081C508.298 105.576 507.809 108.249 507.418 111.021C506.928 115.477 507.124 116.566 509.374 119.536L511.82 123.001L506.048 125.972C502.918 127.556 497.342 131.318 493.624 134.289C490.103 137.16 487.07 139.437 486.679 139.437C486.581 139.338 488.244 136.071 490.396 132.11C497.537 119.536 499.298 114.091 499.885 103.893C500.374 95.2787 500.57 94.7836 502.624 94.7836C504.581 94.7836 508.983 91.3183 508.983 89.8331C508.983 90.0312 508.494 89.7341 507.907 89.7341Z" fill="#FCF2EA"/>
</svg>
