<svg width="317" height="284" viewBox="0 0 317 284" fill="none" xmlns="http://www.w3.org/2000/svg">
<g clip-path="url(#clip0_37:19)">
<path d="M0.249859 140.569C15.634 125.169 31.0539 109.77 46.4381 94.4063C49.9005 90.9485 52.5061 91.1268 55.1832 95.1905C66.8195 112.622 78.4201 130.089 89.9493 147.591C90.6632 148.661 90.6275 150.229 90.9488 151.548C89.6281 151.833 88.2717 152.439 86.9867 152.368C80.7402 151.869 74.4938 151.156 68.2473 150.55C62.6433 150.015 60.93 151.869 61.7866 157.465C67.2478 193.433 85.5946 221.059 116.541 240.059C136.78 252.5 159.16 257.49 182.897 255.922C206.991 254.318 228.514 245.834 247.182 230.613C266.671 214.714 279.771 194.538 285.91 170.013C291.978 145.845 290.444 122.175 281.092 99.1116C272.061 76.9037 257.355 59.1516 237.188 46.0692C222.339 36.4089 206.062 30.5272 188.394 28.5666C182.04 27.8537 176.972 25.1802 174.794 18.6924C171.653 9.21039 179.292 -0.236009 189.393 0.904689C234.546 6.03783 269.634 27.7467 294.62 65.5323C308.54 86.6353 316.322 110.055 316.929 135.293C318.285 189.049 296.404 231.29 251.644 261.269C230.62 275.349 207.062 282.586 181.826 283.655C151.522 284.938 123.43 277.488 97.9091 260.877C71.0671 243.41 52.3634 219.42 41.3339 189.512C37.1576 178.212 34.8018 166.484 33.6239 154.507C33.0528 148.696 31.1253 146.843 25.3072 146.237C18.4539 145.524 11.6006 144.918 4.74733 144.134C3.14109 143.955 1.57054 143.385 0 142.993C0.0713884 142.209 0.178471 141.389 0.249859 140.569Z" fill="#E58E88"/>
<path d="M182.945 28.7983L182.731 29.9034C182.481 30.9728 183.123 32.5056 183.73 32.5056C183.802 32.5056 183.873 32.5056 183.909 32.47C184.48 32.1491 184.301 30.4024 183.623 29.5469L182.945 28.7983ZM196.687 34.8227C196.544 34.8227 196.116 35.0722 195.616 35.393C194.938 35.8564 194.653 36.3555 194.653 37.0684C194.653 37.6744 194.653 37.8883 194.831 37.8883C194.938 37.8883 195.117 37.7813 195.438 37.6031C196.116 37.211 197.044 35.1435 196.687 34.8227C196.723 34.8227 196.723 34.8227 196.687 34.8227ZM175.128 35.8564C174.949 35.8564 174.771 36.1059 174.485 36.6406C174.128 37.3179 173.986 38.0665 174.128 38.5656C174.235 39.029 174.307 39.2429 174.45 39.2429C174.557 39.2429 174.735 39.1003 175.021 38.8864C175.735 38.2804 175.913 36.8902 175.378 36.0703C175.306 35.9277 175.199 35.8564 175.128 35.8564ZM159.529 37.0328C159.351 37.0328 159.244 37.3179 159.244 37.6387C159.244 38.5656 160.279 39.7419 161.064 39.7419C161.635 39.7419 161.743 39.5993 161.564 38.9577C161.314 38.2447 160.065 37.0684 159.529 37.0328ZM167.561 40.8826C167.418 40.8826 167.168 41.0965 166.704 41.5243C165.669 42.4511 165.348 43.9126 166.026 43.9126C166.133 43.9126 166.276 43.8769 166.418 43.8056C167.311 43.3779 167.918 42.2728 167.775 41.3817C167.703 41.0608 167.668 40.8826 167.561 40.8826ZM197.508 43.8413C197.008 43.8413 196.83 43.9126 197.08 44.0195C197.187 44.0552 197.365 44.0552 197.508 44.0552C197.651 44.0552 197.829 44.0552 197.972 44.0195C198.186 43.9126 198.008 43.8413 197.508 43.8413ZM162.635 43.7344C162.563 43.7344 162.528 44.0195 162.528 44.4829C162.528 44.9463 162.563 45.1959 162.635 45.1959C162.671 45.1959 162.671 45.1602 162.706 45.0533C162.778 44.7325 162.778 44.1978 162.706 43.8769C162.706 43.77 162.671 43.7344 162.635 43.7344ZM132.223 45.2672C132.116 45.2672 132.081 45.3028 132.081 45.4454C132.081 46.4079 133.151 48.1189 133.83 48.2971C134.008 48.3328 134.151 48.3684 134.258 48.3684C134.544 48.3684 134.579 48.1546 134.508 47.6199C134.436 46.8713 132.759 45.2672 132.223 45.2672ZM149.428 46.8713C149.142 46.8713 148.821 46.9782 148.429 47.1921C147.465 47.7268 148.321 48.511 149.821 48.511C151.32 48.511 151.641 48.0476 150.606 47.3703C150.106 47.0139 149.785 46.8713 149.428 46.8713ZM136.15 48.3328C136.078 48.3328 136.078 48.4754 136.15 48.7249C136.257 49.0814 136.435 49.8656 136.578 50.436C136.721 51.1132 137.078 51.5767 137.506 51.6836C137.613 51.7192 137.685 51.7192 137.756 51.7192C138.648 51.7192 138.291 50.1151 137.078 49.0101C136.542 48.5467 136.257 48.3328 136.15 48.3328ZM205.504 49.723L205.075 50.8281C204.647 51.9688 205.004 53.6085 205.718 53.6085C206.325 53.6085 206.503 52.0401 205.968 50.8637L205.504 49.723ZM219.603 51.2558C219.389 51.2558 218.996 51.541 218.425 52.0757C217.461 52.9669 217.247 54.2858 218.032 54.2858C218.675 54.2858 219.282 53.5729 219.674 52.2896C219.888 51.6123 219.853 51.2558 219.603 51.2558ZM191.083 56.6741C190.798 56.6741 190.726 56.995 190.869 57.5653C191.119 58.4921 192.261 59.7041 192.904 59.7041C193.546 59.7041 193.189 58.2783 192.332 57.494C191.761 56.9237 191.333 56.6741 191.083 56.6741ZM237.985 56.6741C237.771 56.6741 237.414 56.9237 236.914 57.4227C236.165 58.207 235.844 59.7041 236.415 59.7041C237.093 59.7041 237.914 58.7773 238.128 57.7435C238.271 57.0306 238.235 56.6741 237.985 56.6741ZM181.053 60.4171C180.839 60.4171 180.875 60.7735 181.089 61.4508C181.267 62.0568 181.767 62.841 182.231 63.1262C182.552 63.3757 182.766 63.5183 182.873 63.5183C183.016 63.5183 183.052 63.3045 183.123 62.8054C183.23 62.1281 182.981 61.736 182.231 61.1656C181.624 60.6666 181.267 60.4171 181.053 60.4171ZM186.086 64.4808C186.015 64.4808 186.193 64.659 186.586 65.0868C187.014 65.5502 187.264 65.7641 187.407 65.7641C187.478 65.7641 187.514 65.6928 187.514 65.5146C187.514 65.372 187.157 65.0868 186.728 64.8016C186.371 64.5877 186.157 64.4808 186.086 64.4808ZM112.592 68.7228C112.128 68.7228 111.521 68.8297 111.057 69.0436C109.558 69.7565 109.665 70.1486 111.307 70.1486C112.556 70.1486 113.52 69.6852 113.52 69.1149C113.484 68.8654 113.091 68.7228 112.592 68.7228ZM225.956 70.5051C225.635 70.5051 225.064 70.8259 224.671 71.1824C223.886 71.931 223.708 73.2143 224.421 73.2143C225.706 73.1786 227.241 70.5051 225.956 70.5051ZM155.71 70.8616L156.103 71.8597C156.424 72.7509 157.638 73.8203 158.209 73.8203C158.28 73.8203 158.352 73.7846 158.423 73.749C158.923 73.2499 158.102 71.931 156.959 71.3963L155.71 70.8616ZM164.455 69.9704C164.277 69.9704 164.277 70.2556 164.277 71.0042C164.277 71.7171 164.562 72.6083 164.955 73.0717L165.633 73.8916L165.812 72.9647C166.026 71.8953 165.633 70.8259 164.848 70.1843C164.669 70.0773 164.527 69.9704 164.455 69.9704ZM232.381 74.3906C232.238 74.3906 232.203 74.4975 232.203 74.7114C232.203 75.6739 232.988 76.8859 233.845 77.2423C234.13 77.3849 234.344 77.4206 234.487 77.4206C234.666 77.4206 234.737 77.278 234.737 76.9928C234.737 76.2442 233.845 74.9966 232.917 74.5688C232.631 74.4619 232.488 74.3906 232.381 74.3906ZM237.557 78.3118C237.378 78.3118 237.022 78.49 236.522 78.8108C236.093 79.096 235.737 79.6307 235.737 79.9515C235.737 80.2723 235.594 80.6288 235.38 80.7001C235.201 80.7714 235.165 81.0209 235.344 81.2348C235.415 81.3417 235.522 81.3774 235.629 81.3774C236.236 81.3774 237.414 80.201 237.664 79.1673C237.842 78.5969 237.807 78.3118 237.557 78.3118ZM115.447 80.3793C115.233 80.3793 114.947 80.4506 114.483 80.5575C113.841 80.7001 113.306 81.9834 113.555 82.6963C113.591 82.7676 113.662 82.8033 113.734 82.8033C114.234 82.8033 115.519 81.7339 115.733 80.9853C115.875 80.5575 115.804 80.3793 115.447 80.3793ZM197.901 81.3061C197.223 81.3061 196.294 81.52 195.938 81.8764C195.081 82.6607 195.259 83.0171 196.366 83.0171C197.294 83.0171 198.579 82.1616 198.579 81.5556C198.579 81.3774 198.293 81.3061 197.901 81.3061ZM206.824 79.6663C206.574 79.6663 206.432 79.9872 206.432 80.5932C206.432 81.5556 207.645 83.4449 208.074 83.4449C208.181 83.4449 208.216 83.3736 208.252 83.1954C208.323 81.9834 208.145 81.1991 207.645 80.4149C207.324 79.9159 207.038 79.6663 206.824 79.6663ZM229.347 82.6963C228.276 82.6963 228.276 82.6963 228.848 83.5518C229.347 84.2648 229.99 84.6569 230.632 84.6569C230.882 84.6569 231.132 84.5856 231.346 84.4787C231.882 84.1935 231.882 84.1222 231.168 83.4449C230.739 82.9815 229.954 82.6963 229.347 82.6963ZM110.807 85.6906L111.806 86.5462C112.449 87.1165 112.984 87.4017 113.27 87.4017C113.413 87.4017 113.52 87.3304 113.52 87.1522C113.484 86.5818 112.913 86.1184 111.913 85.9045L110.807 85.6906ZM127.833 86.1184C127.512 86.1184 127.191 86.3323 126.37 86.8313L125.12 87.5799L126.477 87.6869C126.619 87.6869 126.798 87.6869 126.905 87.6869C127.619 87.6869 128.154 87.5443 128.583 87.1878C129.225 86.6175 129.225 86.5462 128.618 86.3323C128.261 86.2253 128.047 86.1184 127.833 86.1184ZM224.778 86.5105C224.671 86.5105 224.529 86.6888 224.243 86.9739C223.565 87.6869 223.386 88.7563 223.922 88.7563C224.493 88.7563 225.1 87.7582 224.957 87.0452C224.921 86.6888 224.885 86.5105 224.778 86.5105ZM163.349 91.9288C163.242 91.9288 163.206 91.9645 163.206 92.0714C163.206 93.0339 164.063 94.4598 164.812 94.7806C165.133 94.9232 165.348 94.9945 165.49 94.9945C165.669 94.9945 165.705 94.8519 165.705 94.5667C165.705 94.2459 165.455 93.6042 165.133 93.2121C164.634 92.5705 163.706 91.9288 163.349 91.9288ZM118.481 93.1765C118.338 93.1765 118.374 93.6755 118.553 94.2459C118.874 95.3866 119.73 96.1708 120.23 96.1708C120.48 96.1708 120.659 95.9926 120.659 95.5292C120.659 94.8519 119.088 93.1765 118.481 93.1765ZM153.533 91.109V92.4992C153.533 93.2834 153.783 94.3885 154.068 94.9588C154.711 96.2065 156.603 97.4897 157.709 97.4897C157.78 97.4897 157.852 97.4897 157.923 97.4541C158.709 97.3115 158.709 97.3115 157.923 97.2402C157.209 97.2046 157.102 96.9907 157.102 95.8143C157.102 94.2459 156.246 92.8913 154.604 91.7862L153.533 91.109ZM143.36 94.6736C143.182 94.6736 143.003 94.8519 142.825 95.1727C142.289 96.0995 142.325 97.062 142.932 97.5254C143.039 97.6323 143.182 97.668 143.289 97.668C143.86 97.668 144.252 96.6699 144.003 95.7074C143.86 95.0301 143.61 94.6736 143.36 94.6736ZM241.519 97.8819C241.376 97.8819 240.805 98.3096 240.234 98.88C239.377 99.7711 239.27 100.092 239.449 101.268C239.556 102.053 239.734 102.765 239.806 102.872C239.877 102.908 239.948 102.944 240.02 102.944C240.52 102.944 241.483 102.124 241.84 101.304C242.269 100.27 242.054 97.8819 241.519 97.8819ZM238.057 105.403C237.985 105.403 237.914 105.582 237.95 105.902C237.95 106.116 237.985 106.259 238.057 106.259C238.092 106.259 238.128 106.223 238.164 106.116C238.271 105.867 238.235 105.582 238.128 105.475C238.092 105.403 238.092 105.403 238.057 105.403ZM128.797 105.368C128.725 105.368 128.154 105.617 127.512 105.867C126.37 106.33 125.299 107.827 125.798 108.255C125.87 108.326 125.977 108.362 126.084 108.362C126.727 108.362 127.976 107.4 128.404 106.401C128.654 105.867 128.797 105.403 128.797 105.368ZM245.945 109.396C245.445 109.396 244.731 109.717 244.339 110.073C243.411 110.964 243.446 111.428 244.446 111.428C245.445 111.428 245.909 111.107 246.445 110.144C246.837 109.467 246.766 109.396 245.945 109.396ZM126.477 118.521C125.87 118.521 125.049 118.807 124.335 119.377L123.336 120.197L124.799 120.232C125.763 120.232 126.441 120.019 126.834 119.626C127.512 118.878 127.155 118.521 126.477 118.521ZM207.181 121.195V122.407C207.181 123.084 207.395 124.047 207.681 124.581C208.181 125.437 210.358 127.29 210.858 127.29C210.893 127.29 210.929 127.29 210.929 127.255C211.036 127.184 210.965 126.328 210.786 125.366C210.465 123.512 209.751 122.478 208.181 121.73L207.181 121.195ZM210.322 129.037C209.823 129.037 209.323 129.144 209.002 129.322C208.609 129.572 208.752 129.75 209.608 130.178C210.108 130.427 210.429 130.534 210.786 130.534C211.072 130.534 211.322 130.463 211.643 130.32C212.535 129.964 212.571 129.893 211.964 129.465C211.572 129.18 210.929 129.037 210.322 129.037ZM174.414 129.18C174.735 129.251 174.985 129.322 175.164 129.358C175.378 129.465 175.628 129.536 175.877 129.643C176.056 129.821 176.234 129.928 176.306 129.928C176.734 129.928 179.447 137.093 181.981 144.829C182.302 145.862 182.445 147.074 182.695 150.603C183.123 157.127 183.088 157.234 181.696 159.551C181.053 160.62 180.446 161.476 180.339 161.476C179.839 161.476 179.09 160.692 178.84 159.943C178.483 158.695 178.697 157.412 179.554 156.022C179.947 155.38 180.518 154.703 180.803 154.525C181.41 154.168 182.017 152.421 181.803 151.637C181.731 151.352 181.588 150.354 181.481 149.32C181.196 146.361 179.982 144.686 177.484 143.795C176.698 143.51 175.984 143.403 175.306 143.403C174.414 143.403 173.557 143.617 172.629 144.08C170.238 145.256 169.274 147.074 169.167 150.532C169.131 152.707 169.381 153.99 170.095 154.56C170.345 154.81 170.809 155.38 171.059 155.915C171.344 156.414 171.737 157.127 171.951 157.483C172.165 157.84 172.344 158.374 172.344 158.695C172.344 159.872 171.13 161.583 170.238 161.583C170.024 161.583 169.488 160.87 168.774 159.729L167.596 157.875L167.561 156.164C167.561 155.202 167.632 153.847 167.703 153.134C167.811 152.421 167.953 150.568 168.025 149.035C168.203 145.969 168.31 145.577 170.952 136.737C172.558 131.354 173.022 130.285 174.057 129.429C174.2 129.358 174.307 129.251 174.414 129.18ZM171.309 200.438C171.88 200.438 172.879 200.687 173.307 200.972C173.771 201.293 173.843 201.436 173.843 202.398V203.503L173.2 203.396C173.129 203.396 172.986 203.361 172.879 203.361C172.486 203.361 171.915 203.432 171.487 203.503C171.023 203.61 170.488 203.646 169.809 203.646C169.345 203.646 168.81 203.61 168.167 203.575C166.918 203.468 165.133 203.361 164.17 203.325C163.242 203.254 162.528 203.147 162.599 203.076C162.706 203.004 163.563 202.719 164.527 202.434C166.847 201.757 170.737 200.58 170.987 200.473C171.059 200.438 171.201 200.438 171.309 200.438ZM187.478 33.6107C186.978 33.6107 186.086 33.9671 185.408 34.5018C184.373 35.3217 184.301 35.4999 184.301 37.8526C184.301 39.8845 184.087 41.2034 183.873 41.2034C183.766 41.2034 183.659 40.9539 183.587 40.3836C183.445 39.528 183.088 38.9933 182.195 38.4586C181.624 38.1022 181.196 37.9239 180.91 37.9239C180.375 37.9239 180.303 38.4943 180.696 39.6706C181.053 40.8826 182.231 42.1302 183.302 42.4867C183.659 42.6293 181.731 46.5861 180.625 47.9763C180.482 48.1546 180.375 48.2971 180.268 48.2971C180.089 48.2971 179.947 47.8337 179.697 46.5861C179.268 44.5186 177.841 42.0946 176.377 40.8826L175.592 40.241L176.199 41.0965C177.769 43.2709 178.483 44.4473 178.198 44.4473C178.09 44.4473 177.912 44.3047 177.591 44.0552C177.162 43.6631 176.663 43.4848 176.127 43.4848C175.77 43.4848 175.378 43.5918 175.056 43.77C174.307 44.1978 175.949 45.0889 177.305 45.0889C177.412 45.0889 177.484 45.0889 177.591 45.0889C177.734 45.0889 177.876 45.0889 178.019 45.0889C178.626 45.0889 178.804 45.2672 178.983 45.8375C179.483 47.5129 179.304 49.9013 178.59 51.2558C176.413 55.3196 176.341 60.4171 178.376 66.0849C179.09 68.0455 179.59 69.6852 179.554 69.7209C179.554 69.7209 179.554 69.7209 179.518 69.7209C179.375 69.7209 178.626 69.2931 177.841 68.7228C176.984 68.1168 175.021 66.9404 173.45 66.0849C170.809 64.659 170.666 64.4808 170.559 63.3044C170.488 62.0212 169.56 60.3458 168.953 60.3458C168.739 60.3458 168.596 61.13 168.596 62.0568C168.596 63.2688 168.56 63.6253 168.239 63.6253C168.132 63.6253 167.989 63.5896 167.775 63.5183C164.705 62.6272 163.027 60.524 161.743 55.783C160.6 51.7192 160.993 48.2258 162.742 46.4079C163.099 46.0514 163.135 45.8019 162.92 45.8019C162.671 45.8019 162.278 45.3028 161.992 44.6968C161.743 44.1265 160.993 43.164 160.386 42.6293L159.28 41.6312V43.0927C159.28 44.3403 159.494 44.7325 160.493 45.6593L161.743 46.7287L161.029 48.8675C160.672 50.0082 160.35 51.3271 160.35 51.8262C160.35 52.1114 160.315 52.2896 160.208 52.2896C160.029 52.2896 159.565 51.8618 158.566 50.8637C157.174 49.4378 156.817 48.8318 156.781 47.905C156.781 47.2634 156.46 46.3366 156.067 45.8732C155.71 45.4454 155.532 45.2672 155.46 45.2672C155.389 45.2672 155.353 45.4098 155.318 45.7306C155.175 47.0852 155.175 48.4397 155.318 48.4397H155.353C155.782 48.4397 158.673 51.6479 159.672 53.252C160.243 54.2145 161.029 56.0325 161.386 57.3158C161.743 58.5634 162.314 60.2032 162.635 60.9518C163.063 61.8429 163.206 62.1281 162.992 62.1281C162.92 62.1281 162.778 62.0925 162.599 62.0212C162.242 61.8429 159.708 61.7003 156.959 61.6291C150.142 61.4508 150.32 61.5221 150.57 59.6685C150.749 58.4565 150.642 57.9218 149.892 56.7098C149.392 55.8899 148.714 55.07 148.429 54.8205C148.286 54.7136 148.179 54.6423 148.072 54.6423C147.893 54.6423 147.786 54.9274 147.643 55.6047C147.322 57.3158 147.75 59.0268 148.75 59.918C149.571 60.6309 149.785 60.9874 149.392 60.9874C149.142 60.9874 148.714 60.8805 148.072 60.6666C146.001 59.9893 143.824 58.1713 141.611 55.177C140.647 53.8937 139.505 52.6104 139.112 52.3609C139.005 52.3252 138.97 52.2896 138.934 52.2896C138.827 52.2896 139.041 52.6104 139.612 53.2164C140.219 53.8937 140.754 54.4997 140.754 54.571H140.719C140.576 54.571 140.04 54.4284 139.434 54.2145C138.577 53.9293 137.72 53.7867 136.935 53.7867C136.293 53.7867 135.686 53.8937 135.222 54.1076C134.865 54.2502 134.758 54.3215 134.865 54.3215C134.936 54.3215 135.15 54.2858 135.507 54.2502C135.686 54.2145 135.829 54.2145 135.971 54.2145C136.257 54.2145 136.471 54.2858 136.471 54.4284C136.471 54.6066 136.257 54.7492 135.971 54.7492C135.186 54.7492 133.83 55.9256 132.937 57.4584L132.081 58.9199L133.223 58.706C135.579 58.2783 136.899 57.3871 137.613 55.8543C137.97 55.0344 138.399 54.3927 138.506 54.3927C138.613 54.3927 139.398 54.7492 140.255 55.2483C141.932 56.2107 144.681 59.4902 143.753 59.4902C143.003 59.4902 141.111 60.4883 141.111 60.8448C141.111 61.0943 141.504 61.2013 142.004 61.2013C142.789 61.2013 143.895 60.9161 144.324 60.4884C144.681 60.1675 144.859 59.9893 145.073 59.9893C145.323 59.9893 145.644 60.2032 146.287 60.6309C147.001 61.0943 148.036 61.5578 148.607 61.6647C149.785 61.9142 150.071 62.5202 149 62.5202C147.465 62.5202 143.289 64.9086 141.325 66.9404C140.219 68.0455 139.327 69.1149 139.327 69.2575C139.327 69.3644 139.041 69.4001 138.648 69.4001C138.434 69.4001 138.22 69.4001 137.97 69.3644C137.685 69.3288 137.47 69.2931 137.256 69.2931C136.721 69.2931 136.364 69.4357 136.114 69.7565C135.686 70.2199 135.686 70.3625 136.15 70.6477C136.364 70.7903 136.685 70.8259 137.006 70.8259C137.827 70.8259 138.827 70.5051 139.148 70.0773C141.897 65.871 145.466 63.7679 151.927 62.3776L152.89 62.1638L152.034 63.0549C151.534 63.554 151.141 64.053 151.141 64.2313C151.141 64.3739 151.034 64.6947 150.927 65.0155C150.749 65.4076 150.927 65.5502 151.677 65.5502C153.105 65.5502 154.675 64.5521 155.139 63.2688C155.532 62.235 155.674 62.1638 157.209 62.1638C159.601 62.1638 163.67 63.3401 168.025 65.265C171.737 66.9404 172.237 67.2969 171.487 67.7247C171.023 68.0098 171.023 69.1149 171.523 70.0061C171.701 70.3625 171.808 70.5408 171.915 70.5408C172.022 70.5408 172.165 70.3269 172.415 69.9348C172.665 69.507 172.879 68.8654 172.915 68.5089C172.915 68.1881 172.95 68.0098 173.129 68.0098C173.415 68.0098 174.021 68.4019 175.342 69.3644C177.769 71.1467 180.66 74.355 181.624 76.3868C182.731 78.7395 182.873 85.3698 181.874 89.291C181.196 92.0714 179.161 96.6699 178.626 96.6699C178.519 96.6699 177.448 95.3509 176.27 93.7112C174.235 90.8238 174.164 90.6812 174.057 88.1859C173.914 84.9777 174.235 84.0509 175.628 83.9083C176.591 83.8014 178.519 82.2329 178.126 81.8408C178.09 81.8408 178.055 81.8051 177.983 81.8051C177.733 81.8051 177.198 81.8764 176.627 82.019C176.127 82.1616 175.842 82.2329 175.663 82.2329C175.485 82.2329 175.52 82.1616 175.663 81.9834C175.913 81.7338 176.092 80.8427 176.092 79.9515C176.092 78.4543 175.949 78.1335 174.45 76.6364C173.522 75.7095 172.665 74.961 172.522 74.961C172.165 74.9966 172.451 77.5275 172.95 78.7752C173.165 79.2742 173.843 80.0228 174.45 80.4149C175.056 80.807 175.628 81.1991 175.699 81.2348C175.77 81.3061 175.485 81.7695 175.056 82.3398C173.986 83.7301 172.879 86.1897 172.594 87.7582L172.344 89.0771L170.024 87.7582C168.739 87.0096 166.954 86.1184 166.026 85.8332C164.027 85.1559 163.777 84.3717 165.383 83.7301C166.418 83.338 167.168 81.9477 166.668 81.413C166.633 81.3774 166.561 81.3774 166.49 81.3774C166.24 81.3774 165.776 81.52 165.348 81.7695L164.312 82.3398V81.0922C164.312 79.9515 164.634 77.6345 165.169 75.1035C165.276 74.6401 165.312 74.3906 165.312 74.3906C165.276 74.4263 165.205 74.6045 165.062 74.9253C164.848 75.3887 164.527 76.4581 164.312 77.278L163.884 78.8108L163.242 77.6345C162.885 76.9928 162.064 75.9947 161.421 75.4244L160.243 74.4263L161.278 75.6026C163.028 77.6701 163.599 79.2386 163.599 82.2685C163.599 83.837 163.456 85.0846 163.313 85.0846C162.671 85.0846 156.924 83.1241 155.567 82.4468C153.033 81.1991 152.962 81.0922 154.068 80.7357C155.139 80.3436 155.853 79.0247 155.674 77.7414L155.567 76.9215L154.318 77.7414C153.39 78.3118 153.033 78.8465 152.89 79.702L152.712 80.8427L151.605 79.595C150.999 78.8821 150.285 77.6701 150.071 76.9215C149.785 76.0304 148.928 74.8897 147.715 73.749C146.68 72.7509 145.752 71.5745 145.609 71.1111C145.43 70.3982 144.074 69.1862 143.61 69.1862C143.538 69.1862 143.503 69.1862 143.467 69.2218C143.396 69.2931 143.503 69.8278 143.646 70.3982C143.86 71.1467 144.467 71.7527 145.716 72.5013C146.929 73.2143 147.822 74.1054 148.571 75.3531C149.499 76.8502 149.821 77.6701 149.571 77.6701C149.464 77.6701 149.214 77.5275 148.857 77.1711C148.143 76.4938 146.394 76.0304 144.966 76.0304C144.467 76.0304 144.003 76.1017 143.646 76.2086C142.789 76.4938 142.825 76.5294 144.538 77.7771C145.894 78.7752 146.323 78.989 147.501 78.989C147.715 78.989 147.929 78.989 148.179 78.989C148.536 78.9534 148.857 78.9534 149.071 78.9534C150.035 78.9534 150.213 79.1673 150.749 79.9515C151.57 81.1991 153.426 82.5537 156.031 83.7301C157.031 84.1935 157.852 84.7282 157.888 84.8351C157.888 84.9421 157.031 84.9777 155.71 84.9777C151.641 84.9777 143.253 84.5856 141.825 84.2291C140.183 83.837 140.183 83.837 140.076 81.8051C140.04 81.0209 137.756 78.3474 137.149 78.3118C136.471 78.3118 136.828 80.9496 137.685 82.126L138.577 83.338L136.721 82.625C135.686 82.2685 133.865 81.6269 132.616 81.2704C130.903 80.7714 129.903 80.2367 128.583 78.989C126.619 77.2067 126.441 76.7433 127.69 76.4581C128.975 76.1373 130.046 74.2837 130.046 72.3944V70.7903L128.904 71.3606C127.083 72.2162 126.477 72.8934 126.477 73.8916C126.477 74.6045 126.334 74.9966 126.12 74.9966C125.906 74.9966 125.62 74.6758 125.299 74.0698C125.013 73.4281 124.228 72.3944 123.585 71.7171C122.586 70.6477 122.515 70.3625 122.836 69.6496C123.121 69.0792 123.121 68.5445 122.907 67.9742C122.693 67.4395 122.443 67.1543 122.193 67.1543C121.801 67.1543 121.479 67.9029 121.479 69.1505V70.113L119.873 69.5426C118.588 69.0792 118.089 68.6515 117.446 67.4751C116.732 66.1562 115.304 64.8016 114.662 64.8016C114.591 64.8016 114.519 64.8373 114.483 64.8729C114.019 65.3007 114.805 66.9761 115.983 68.0455C117.053 69.0079 117.125 69.1505 116.518 69.1505C116.125 69.1505 115.34 69.507 114.805 70.0061L113.805 70.8259L115.197 70.8616C116.161 70.8616 116.875 70.612 117.41 70.1486C117.803 69.7922 118.267 69.6496 118.838 69.6496C120.23 69.6496 121.979 70.719 123.657 72.7152C124.478 73.7133 124.621 74.0698 124.299 74.3193C124.157 74.4263 123.871 74.4619 123.478 74.4619C122.479 74.4619 120.944 74.1411 119.873 73.6777C119.409 73.4638 119.159 73.3568 119.088 73.3568C119.052 73.3568 119.195 73.4994 119.516 73.749C120.373 74.3906 122.336 74.9253 123.907 74.9253C124.978 74.9253 125.12 75.0679 125.977 76.8502C126.477 77.9196 127.262 79.2029 127.762 79.702L128.654 80.6288L127.476 80.8427C126.798 80.9496 125.691 81.3061 124.978 81.6982L123.693 82.3042L121.337 81.2704C119.802 80.5932 118.981 80.0228 118.981 79.6307C118.981 79.3099 118.553 78.6326 118.017 78.1692C117.375 77.6345 116.946 77.3493 116.696 77.3493C116.34 77.3493 116.447 77.9909 117.018 79.2029C117.446 80.0228 117.946 80.3793 119.052 80.7001C120.551 81.1279 122.55 82.3398 122.55 82.8389C122.55 83.338 118.695 85.8332 116.946 86.5105C116.125 86.8313 115.733 87.0809 115.983 87.0809C116.018 87.0809 116.054 87.0809 116.125 87.0809L117.053 86.9739L116.375 88.2216C116.018 88.8989 115.626 90.0039 115.519 90.6812L115.304 91.9288L116.554 91.2515C118.553 90.1465 119.409 89.0058 119.588 87.4017C119.766 86.0115 119.945 85.7619 122.015 84.3361C124.87 82.3755 126.37 81.7695 128.547 81.7695C130.367 81.7695 134.294 82.625 134.829 83.1241C135.293 83.5518 133.437 85.4411 132.009 86.0471C131.438 86.2966 131.153 86.4749 131.402 86.5105C132.152 86.5105 133.33 85.8332 134.722 84.6212C135.507 83.9083 135.829 83.6588 136.257 83.6588C136.471 83.6588 136.757 83.7301 137.114 83.837C138.434 84.2648 138.577 84.6569 137.542 84.9064C137.114 85.0134 136.828 85.3698 136.828 85.7976C136.828 86.261 137.042 86.4749 137.328 86.4749C137.685 86.4749 138.149 86.1184 138.541 85.4768C138.863 84.9064 139.184 84.6212 139.505 84.6212C139.576 84.6212 139.612 84.6212 139.684 84.6569C141.183 85.2629 144.11 85.8332 146.751 86.0471L149.678 86.261L147.75 87.0096C144.681 88.1859 139.148 91.5011 138.434 92.6061C138.399 92.6774 138.327 92.7131 138.22 92.7131C138.006 92.7131 137.685 92.5705 137.256 92.2853C136.757 91.9288 136.364 91.7862 135.936 91.7862C135.721 91.7862 135.507 91.8219 135.257 91.8932L134.222 92.1784L135.222 92.9269C135.757 93.3191 136.435 93.6755 136.721 93.6755C137.934 93.6755 136.257 95.1727 133.723 96.3134C131.545 97.3115 130.474 97.5254 128.226 97.668C127.583 97.5254 127.048 97.5254 126.619 97.5254C125.798 97.5254 125.299 97.4897 125.299 97.4184C125.299 97.2759 125.477 96.8481 125.691 96.456C126.12 95.6718 125.334 93.1765 124.406 92.4635C124.299 92.3922 124.192 92.321 124.121 92.321C123.907 92.321 123.728 92.6418 123.514 93.4973C122.764 96.0995 123.942 97.8462 126.477 97.8462H127.976L126.798 98.7374C125.656 99.5929 124.014 102.159 124.371 102.48C124.406 102.516 124.478 102.516 124.585 102.516C125.263 102.516 127.298 101.767 127.976 101.233C128.333 100.912 128.94 100.056 129.332 99.2364C129.725 98.3809 130.26 97.8106 130.617 97.8106C130.938 97.7749 132.081 97.4897 133.08 97.1689C134.008 96.8837 134.758 96.6342 134.936 96.6342C134.972 96.6342 134.972 96.6342 134.972 96.6342C134.972 96.7055 134.651 97.2759 134.258 97.9531C131.26 102.979 130.689 104.797 131.545 105.974L132.045 106.651L132.438 105.974C132.973 105.011 132.937 104.227 132.331 103.585C131.866 103.086 132.081 102.587 134.329 99.1651C137.328 94.531 138.077 93.6399 140.362 92.0001C142.253 90.6456 145.537 89.0771 146.216 89.0771C146.394 89.0771 146.358 89.184 146.108 89.4336C145.323 90.1821 145.859 94.4241 146.715 94.4241C147.715 94.4241 148.179 90.6455 147.286 89.4692C146.822 88.7919 146.858 88.7206 147.75 88.3285C148.5 88.0433 151.605 87.0096 151.998 86.9739C152.034 87.0096 151.82 87.473 151.498 88.0077C151.213 88.5424 151.07 89.1127 151.177 89.2197C151.248 89.291 151.356 89.3266 151.463 89.3266C152.105 89.3266 153.319 88.4354 153.64 87.6512C153.961 86.7957 154.282 86.6531 155.603 86.4392C156.103 86.3679 156.995 86.3323 157.995 86.3323C158.673 86.3323 159.422 86.3323 160.101 86.3679C164.205 86.5818 166.454 87.6512 170.166 91.1802C173.272 94.1389 174.807 96.6342 175.842 100.413C176.52 102.837 176.556 103.942 176.02 106.223L175.628 107.934L174.093 105.974C173.236 104.94 171.701 103.443 170.702 102.694C168.703 101.233 166.954 99.0938 166.561 97.668C166.418 97.0976 166.311 96.8481 166.24 96.8481C166.133 96.8481 166.169 97.4897 166.418 98.4522C166.633 99.379 166.633 99.7355 166.454 99.7355C166.418 99.7355 166.383 99.7355 166.347 99.6998C163.706 98.6304 161.278 97.7749 160.315 97.6323C159.922 97.561 159.637 97.5254 159.565 97.5254C159.422 97.5254 159.708 97.6323 160.565 97.8462L161.957 98.274L160.636 98.8443C159.922 99.1651 159.351 99.5929 159.351 99.8068C159.351 100.056 159.708 100.163 160.208 100.163C160.957 100.163 161.992 99.9137 162.492 99.486C162.813 99.2008 163.028 99.0225 163.313 99.0225C163.884 99.0225 164.812 99.6642 167.311 101.447C169.167 102.765 169.702 103.336 169.024 103.336C168.881 103.336 168.703 103.3 168.453 103.265C168.346 103.265 168.275 103.229 168.167 103.229C167.382 103.229 166.49 103.728 166.49 104.191C166.49 104.512 167.097 104.69 167.775 104.69C168.31 104.69 168.846 104.583 169.238 104.334C169.56 104.12 169.809 104.013 170.059 104.013C170.666 104.013 171.237 104.726 172.701 106.829C174.878 109.895 174.949 110.43 173.807 113.424L172.843 115.919L171.594 114.6C170.273 113.21 166.775 110.964 164.705 110.251C164.027 110.002 162.992 109.467 162.385 109.075C160.458 107.72 159.208 107.328 155.603 106.722C151.855 106.116 149.714 105.617 149.714 105.296C149.714 105.189 150.106 104.69 150.606 104.12C151.356 103.265 151.498 102.765 151.498 100.983C151.498 99.8068 151.356 98.7374 151.177 98.6661C151.141 98.6661 151.141 98.6304 151.106 98.6304C150.499 98.6304 148.643 101.553 148.643 102.552C148.643 103.051 148.786 103.871 149 104.37C149.214 104.869 149.285 105.047 149.142 105.047C149.035 105.047 148.786 104.94 148.322 104.726C147.358 104.263 146.251 103.122 145.145 101.625C145.002 101.375 144.895 101.268 144.859 101.268C144.823 101.268 144.931 101.482 145.109 101.839C145.359 102.302 145.859 103.086 146.216 103.585C146.787 104.655 146.787 104.655 146.037 104.655C145.644 104.655 144.788 104.904 144.181 105.189C143.324 105.582 143.182 105.795 143.574 106.045C143.895 106.223 144.288 106.33 144.681 106.33C145.287 106.33 145.894 106.116 146.43 105.724C146.858 105.403 147.072 105.225 147.322 105.225C147.572 105.225 147.857 105.403 148.393 105.724C149 106.045 151.07 106.722 153.033 107.257C157.388 108.326 158.173 108.718 156.139 108.754C153.533 108.754 149.535 109.752 147.822 110.786C146.894 111.321 145.109 112.925 143.788 114.315C142.503 115.67 140.861 117.131 140.148 117.488C139.541 117.844 139.184 118.022 139.041 118.022C138.827 118.022 139.041 117.666 139.469 116.775C139.969 115.777 139.969 115.349 139.612 113.745C139.398 112.711 139.077 111.748 138.898 111.642H138.863C138.399 111.642 137.114 114.208 137.114 115.135C137.114 115.563 137.363 116.454 137.649 117.131C138.077 118.129 138.113 118.414 137.756 118.628C137.685 118.664 137.613 118.7 137.578 118.7C137.328 118.7 137.221 118.343 137.078 117.595C136.935 116.668 136.471 115.848 135.686 115.064C135.008 114.422 134.365 113.887 134.258 113.887C134.115 113.887 134.151 114.672 134.258 115.634C134.436 116.953 134.722 117.523 135.436 118.094C136.685 119.02 136.65 119.27 135.329 119.27C134.615 119.27 133.794 118.878 132.83 118.058C132.081 117.452 131.652 117.131 131.474 117.131C131.295 117.131 131.581 117.595 132.295 118.486L133.187 119.591L132.045 119.733C131.652 119.805 131.795 119.805 132.402 119.805C132.723 119.805 133.223 119.805 133.794 119.769C134.579 119.733 135.115 119.733 135.543 119.733C136.685 119.733 136.65 119.876 136.4 120.446C136.221 120.874 136.221 121.658 136.364 122.157L136.614 123.084L137.435 122.086C137.97 121.444 138.184 120.803 138.113 120.197C137.97 119.377 138.113 119.199 139.112 118.913C139.755 118.7 140.933 118.094 141.718 117.523L143.182 116.525L142.967 117.951C142.86 118.771 142.61 119.912 142.432 120.553C142.253 121.195 142.218 121.801 142.289 121.908C142.325 121.908 142.325 121.908 142.325 121.908C142.396 121.908 142.468 121.765 142.468 121.587C142.468 121.516 142.503 121.516 142.539 121.516C142.718 121.516 143.182 121.908 143.753 122.549C144.574 123.476 145.073 123.904 145.359 123.904C145.573 123.904 145.68 123.654 145.68 123.155C145.68 121.801 144.966 120.339 144.038 119.876C143.253 119.519 143.146 119.27 143.36 118.236C144.11 114.458 147.536 111.321 151.748 110.608C152.212 110.536 152.498 110.501 152.64 110.501C152.89 110.501 152.712 110.643 152.248 111.036C151.82 111.392 151.32 111.998 151.07 112.39C150.642 113.21 150.535 116.882 150.963 116.882C151.534 116.882 153.818 114.351 154.033 113.46C154.14 112.996 154.068 112.105 153.89 111.535L153.569 110.465H155.782C158.316 110.465 160.886 111.036 163.063 112.105C164.527 112.818 165.312 113.531 164.669 113.531C164.098 113.531 161.029 116.276 160.458 117.274C160.065 117.987 159.672 118.272 158.958 118.272C157.816 118.272 156.174 119.234 157.102 119.306C157.673 119.377 158.137 119.413 158.494 119.413C159.28 119.413 159.672 119.234 159.779 118.878C159.886 118.557 160.386 117.951 160.886 117.523L161.814 116.703L161.564 117.488C161.278 118.307 162.028 119.698 162.563 119.698C162.671 119.698 162.778 119.662 162.849 119.519C163.277 118.878 163.242 116.953 162.813 116.668C162.599 116.525 162.528 116.311 162.671 116.133C162.992 115.634 165.562 114.493 166.347 114.493C167.311 114.493 169.024 116.668 170.559 119.805C171.416 121.551 171.737 122.264 171.915 124.118C171.773 124.617 171.665 125.223 171.558 125.9C171.13 128.502 170.809 129.251 167.739 135.418C164.277 142.333 163.848 143.545 163.527 146.896C163.42 147.93 163.135 150.318 162.885 152.208C162.599 154.382 162.421 157.02 162.349 159.373C162.278 163.009 162.278 163.151 162.849 165.219C163.456 167.429 163.741 168.213 164.527 169.318C164.812 169.781 165.062 170.53 165.169 171.528C165.455 173.417 166.026 175.592 166.954 178.194C167.668 180.19 168.239 183.292 168.346 185.858L168.417 187.248L167.561 188.14C166.526 189.209 163.956 191.205 163.384 191.419C163.135 191.49 162.492 191.882 161.885 192.239C161.314 192.631 160.672 192.916 160.493 192.916C159.744 192.916 154.461 194.912 149.749 196.944C145.966 198.584 142.218 200.545 141.861 201.115C141.789 201.222 141.468 201.436 141.111 201.578C140.754 201.721 140.183 202.113 139.862 202.434C137.97 204.252 138.184 206.284 140.433 207.318C141.682 207.888 143.217 208.173 146.073 208.173C148.5 208.173 151.855 207.959 156.781 207.567C162.028 207.139 165.205 206.925 167.132 206.925C167.882 206.925 168.417 206.961 168.81 206.997C169.774 207.139 171.13 208.28 171.737 209.385C171.987 209.884 172.415 211.096 172.701 212.13C172.986 213.164 173.415 214.304 173.7 214.661C174.057 215.16 174.2 215.588 174.2 216.372C174.2 217.263 174.235 217.406 174.592 217.406C175.092 217.406 175.128 218.225 174.699 219.758C174.557 220.364 174.378 221.719 174.378 222.824C174.343 223.929 174.2 225.319 174.057 225.996C172.736 231.201 172.629 232.27 173.165 235.728C173.843 240.077 173.843 241.538 173.272 244.355C172.986 245.745 172.665 247.242 172.594 247.705C172.486 248.169 172.415 249.773 172.379 251.306C172.344 253.837 172.344 254.122 172.701 254.657C172.915 254.977 173.093 255.405 173.093 255.583C173.093 255.797 173.236 256.154 173.414 256.368C173.629 256.653 173.807 256.724 174.2 256.724C174.271 256.724 174.378 256.724 174.45 256.724C175.092 256.653 175.164 256.617 175.128 256.225C175.092 255.975 175.128 255.833 175.199 255.833C175.306 255.833 175.485 255.975 175.77 256.296C176.02 256.581 176.127 256.688 176.27 256.688C176.377 256.688 176.52 256.617 176.734 256.474C176.948 256.332 177.162 256.225 177.234 256.225H177.269C177.269 256.261 177.305 256.296 177.341 256.296C177.591 256.296 178.447 255.548 178.59 255.156C178.84 254.478 178.626 254.015 177.412 252.518C176.377 251.234 176.199 250.735 176.199 248.882C176.163 246.957 176.413 245.816 177.698 242.002C178.198 240.433 178.804 238.437 179.054 237.546C180.268 232.876 180.196 233.34 180.268 226.745L180.339 220.507L181.017 218.439C181.41 217.299 181.874 215.695 182.124 214.803C182.624 212.878 183.159 211.31 184.194 208.458C186.015 203.61 186.621 200.153 186.3 196.552C186.05 193.522 185.872 192.952 184.158 189.744C182.659 186.963 182.552 186.678 182.552 185.573C182.517 183.541 183.016 180.119 183.552 178.693C184.301 176.697 185.301 172.704 185.515 171.065C185.622 169.96 185.836 169.354 186.371 168.498C187.157 167.179 187.906 164.541 188.192 162.046C188.656 158.125 187.549 147.502 186.229 143.581C185.586 141.585 184.944 140.23 182.695 135.988C179.947 130.784 178.554 127.718 178.376 126.471C178.198 125.259 177.733 123.548 177.377 122.799C177.162 118.236 178.769 114.458 182.766 109.61C184.908 106.972 185.622 106.294 186.836 106.294C187.085 106.294 187.335 106.33 187.656 106.366C189.548 106.687 193.903 108.362 195.009 109.253C195.616 109.717 195.83 110.216 195.723 111C195.616 111.998 195.509 112.105 194.545 112.105C193.939 112.105 192.975 112.426 192.404 112.782L191.333 113.46L192.654 113.566C192.796 113.566 192.904 113.566 193.046 113.566C193.689 113.566 194.367 113.46 194.724 113.281C194.974 113.174 195.117 113.103 195.224 113.103C195.402 113.103 195.438 113.246 195.438 113.638C195.438 114.671 194.153 117.63 193.118 118.913C192.261 119.983 189.905 121.409 189.013 121.409C188.799 121.409 188.37 121.623 188.12 121.872C187.585 122.371 187.014 124.118 187.371 124.118C188.12 124.118 189.691 123.013 189.87 122.371C189.977 121.908 190.762 121.231 191.833 120.696C194.153 119.484 195.759 117.238 196.687 113.852L197.437 111.178L198.293 112.426C198.9 113.424 199.186 114.529 199.436 116.989C199.578 118.771 199.864 120.625 200.042 121.159C200.364 121.979 200.292 122.086 199.221 122.229C197.829 122.478 197.115 123.191 196.33 124.938L195.759 126.221L196.937 125.972C198.615 125.651 199.864 124.688 200.007 123.654C200.078 123.155 200.257 122.728 200.435 122.728C201.292 122.728 201.399 126.257 200.578 127.469L200.007 128.324L200.756 127.504C201.185 127.077 201.506 126.257 201.506 125.686V124.653L203.041 126.114C203.862 126.934 204.861 127.754 205.254 127.896C205.325 127.932 205.361 127.932 205.396 127.932C205.504 127.932 205.147 127.54 204.433 126.97C203.612 126.292 202.541 125.116 202.077 124.332C201.149 122.87 200.435 119.626 200.435 117.06C200.435 116.062 200.471 115.741 200.792 115.741C200.899 115.741 201.042 115.777 201.256 115.848C202.719 116.24 203.933 116.953 205.111 118.094C205.539 118.486 205.825 118.735 205.932 118.735C205.968 118.735 205.968 118.664 205.896 118.557C205.289 117.523 203.612 116.133 201.863 115.242C199.9 114.244 199.543 113.531 201.006 113.531C201.185 113.531 201.363 113.531 201.613 113.566C201.898 113.602 202.184 113.602 202.398 113.602C202.934 113.602 203.326 113.531 203.433 113.388C203.755 112.889 202.577 112.354 201.363 112.354C201.22 112.354 201.113 112.354 200.97 112.39C200.792 112.426 200.613 112.426 200.471 112.426C199.864 112.426 199.578 112.212 199.221 111.642C197.758 109.324 193.475 106.473 189.905 105.403C188.799 105.083 187.906 104.655 187.906 104.512C187.906 103.871 194.617 100.128 195.759 100.128C195.973 100.128 195.938 100.52 195.581 101.126C195.295 101.66 195.045 102.338 195.045 102.659C195.045 102.872 195.152 102.944 195.295 102.944C195.83 102.944 197.151 101.732 197.437 100.734L197.794 99.6642L198.4 101.233C198.936 102.552 199.328 102.908 200.97 103.728C201.863 104.191 202.684 104.477 203.041 104.477C203.112 104.477 203.148 104.477 203.183 104.441C203.683 103.942 201.756 101.019 200.542 100.484C199.9 100.199 199.364 99.8424 199.364 99.6642C199.364 99.5573 199.757 99.486 200.435 99.486C202.434 99.486 206.896 99.9494 210.893 100.662C214.927 101.411 216.033 101.696 217.247 102.552L218.71 103.585L217.39 104.298C215.962 105.047 215.855 105.617 217.104 105.617C217.211 105.617 217.318 105.617 217.425 105.617C217.604 105.617 217.747 105.582 217.889 105.582C218.496 105.582 218.496 105.795 218.389 106.9C218.246 108.219 219.174 111.249 219.71 111.249C219.853 111.249 220.281 110.394 220.674 109.396C221.209 107.863 221.245 107.328 220.923 106.508C220.709 105.938 220.602 105.51 220.709 105.51C220.995 105.546 224.743 108.683 224.743 108.932C224.743 109.075 224.421 109.253 224.029 109.324C223.279 109.503 222.316 111.107 222.744 111.499C222.815 111.57 222.887 111.606 223.029 111.606C223.672 111.606 224.957 110.643 225.064 110.002C225.135 109.538 225.207 109.289 225.421 109.289C225.635 109.289 226.063 109.538 226.777 110.073C228.455 111.285 228.883 112.818 228.312 115.527C228.027 116.882 227.67 117.701 227.384 117.701C226.742 117.701 225.492 118.913 225.492 119.555C225.492 119.84 225.778 120.054 226.135 120.054C227.063 120.054 228.348 118.628 228.348 117.63C228.348 117.167 228.562 116.133 228.848 115.384C229.169 114.529 229.276 113.495 229.169 112.747C229.026 111.962 229.026 111.642 229.276 111.642C229.312 111.642 229.383 111.642 229.454 111.677C229.74 111.784 230.811 112.141 231.846 112.461C233.559 112.996 233.702 113.139 233.702 114.137C233.702 114.957 234.023 115.491 234.951 116.276C235.665 116.846 236.379 117.309 236.557 117.309C237.129 117.309 236.95 114.814 236.343 113.994C235.808 113.281 235.844 113.246 237.022 113.246C238.199 113.246 242.09 112.283 241.84 112.069C241.84 112.069 241.805 112.069 241.769 112.069C241.519 112.069 240.662 112.248 239.627 112.533C238.663 112.782 238.021 112.889 237.271 112.889C236.736 112.889 236.129 112.818 235.38 112.675C234.166 112.461 232.703 112.141 232.131 111.927L231.132 111.57L233.202 110.572C235.451 109.538 237.985 107.542 237.985 106.865C237.985 106.687 237.95 106.615 237.878 106.615C237.807 106.615 237.664 106.687 237.486 106.829C237.343 106.936 237.236 107.007 237.2 107.007C237.093 107.007 237.093 106.829 237.164 106.401C237.378 105.403 236.593 103.977 234.987 102.516L233.702 101.34V103.3C233.702 105.118 233.809 105.368 235.094 106.58C236.343 107.756 236.415 107.934 235.879 108.362C235.201 108.932 230.739 110.929 230.097 110.929C229.133 110.929 224.707 107.685 221.637 104.726L218.282 101.553L220.031 101.304C222.173 101.019 224.493 100.021 228.134 97.7749C229.669 96.7768 231.061 96.0282 231.203 96.0282C231.346 96.0282 231.739 96.3847 232.06 96.8837C232.417 97.4184 232.988 97.7393 233.523 97.7393C234.666 97.7393 234.666 97.2759 233.488 96.1352C232.56 95.2796 232.56 95.2083 233.202 94.7449C234.309 93.9607 238.806 91.9645 239.484 91.9645C239.841 91.9645 240.127 92.1427 240.127 92.2853C240.127 92.7487 241.769 94.3172 242.269 94.3172C242.911 94.3172 242.661 93.3191 241.769 92.4635L240.912 91.6437L242.304 91.715C242.376 91.715 242.447 91.715 242.518 91.715C243.446 91.715 243.982 91.5011 244.767 90.7525C246.052 89.5761 246.088 89.3623 244.981 89.1127C244.767 89.0771 244.553 89.0414 244.339 89.0414C243.339 89.0414 242.411 89.5405 241.947 90.3247C241.59 90.9664 241.019 91.2515 239.484 91.5367C238.378 91.715 237.164 91.9645 236.843 92.1071C236.772 92.1427 236.7 92.1427 236.629 92.1427C235.986 92.1427 236.772 90.3247 237.95 89.2553C238.556 88.7206 239.056 88.1146 239.056 87.8651C239.056 87.6869 239.342 87.5086 239.77 87.5086C239.806 87.5086 239.841 87.5086 239.877 87.5086C240.163 87.5443 240.591 87.5443 240.912 87.5443C241.055 87.5443 241.162 87.5443 241.269 87.5443C242.09 87.5086 243.589 86.1541 243.875 85.2272C244.089 84.5499 243.982 84.4787 242.661 84.4787C241.555 84.4787 241.091 84.6925 240.52 85.3698L239.806 86.2253L239.663 84.9421C239.592 84.3361 239.556 84.0152 239.52 84.0152C239.484 84.0152 239.484 84.4074 239.484 85.1916C239.413 86.6531 238.342 88.8989 237.664 88.8989C237.521 88.8989 237.271 87.7938 237.2 86.4749C237.093 85.1203 236.736 83.4805 236.415 82.8389C236.201 82.4468 236.093 82.1973 236.058 82.1616C236.058 82.1616 236.058 82.2329 236.129 82.3398C236.236 82.6963 236.415 84.1935 236.522 85.655C236.7 89.0771 236.129 91.0377 234.452 92.6061C232.81 94.1746 226.456 97.9175 223.601 98.9869C221.851 99.6642 219.46 100.056 217.176 100.056C215.962 100.056 214.784 99.9494 213.749 99.7355C211.714 99.3434 210.822 98.7374 212.25 98.7374C212.607 98.7374 213.82 98.2027 214.963 97.561L217.033 96.4203L217.997 97.0976C218.461 97.4184 218.782 97.5967 219.139 97.5967C219.389 97.5967 219.71 97.5254 220.138 97.3828L221.352 96.9907L220.388 96.1708C219.853 95.7787 219.174 95.3866 218.853 95.3866C218.532 95.3866 218.996 94.638 220.21 93.2478C221.066 92.3209 221.566 91.6793 221.53 91.6793C221.495 91.6793 221.459 91.715 221.423 91.7506C221.066 92.0358 220.888 92.1784 220.816 92.1784C220.709 92.1784 220.745 92.0001 220.816 91.608C220.888 91.1446 220.602 90.4673 220.102 89.8613L219.246 88.8632L218.782 90.1465C218.389 91.3228 218.425 91.5367 219.139 92.4635L219.96 93.4617L218.389 94.7449C217.533 95.4579 216.39 96.2777 215.855 96.5629L214.891 97.0976L215.391 95.9213C215.676 95.244 215.926 94.2459 215.926 93.6042V92.4992L214.606 93.7468C213.535 94.7449 213.285 95.2796 213.214 96.456C213.178 97.8106 213.071 97.9531 211.786 98.3809C211.179 98.5591 210.644 98.6661 209.894 98.6661C209.251 98.6661 208.43 98.5948 207.324 98.4522C205.611 98.2383 202.791 98.0957 200.97 98.0957C197.758 98.0957 197.223 97.8818 198.258 97.0976C198.543 96.8481 198.793 96.4203 198.793 96.0995C198.793 95.8856 198.757 95.743 198.722 95.743C198.686 95.743 198.579 95.85 198.472 96.0282C198.365 96.1708 198.293 96.2777 198.222 96.2777C198.115 96.2777 198.043 96.1352 197.936 95.8143C197.687 95.137 196.152 93.8894 195.688 93.8894C195.616 93.8894 195.581 93.9251 195.581 93.9964C195.581 94.7806 196.366 96.2777 197.044 96.7768C197.794 97.2759 197.794 97.2759 196.937 97.8106C196.509 98.0957 195.652 98.4166 195.045 98.5591C190.94 99.5216 185.551 102.373 181.91 105.475L179.875 107.221L180.089 105.261C180.339 102.801 182.731 97.561 184.051 96.5629C184.587 96.2065 185.658 95.3153 186.443 94.6023C187.656 93.6042 188.477 93.2121 191.083 92.6418C197.579 91.1802 198.757 90.8594 200.792 89.9326C201.934 89.4336 203.647 88.4354 204.576 87.7582C205.539 87.0452 206.039 86.76 206.396 86.76C206.539 86.76 206.681 86.8313 206.824 86.9026C207.003 87.0452 207.217 87.1165 207.538 87.1165C207.859 87.1165 208.288 87.0452 208.859 86.867L210.322 86.4749L209.18 86.1541C208.752 85.9402 208.145 85.7976 207.752 85.7976C207.645 85.7976 207.574 85.7976 207.502 85.8332C207.288 85.8689 207.146 85.9045 207.038 85.9045C206.717 85.9045 206.86 85.6194 207.431 84.7638C207.502 84.6569 207.538 84.5856 207.502 84.5856C207.395 84.5856 206.789 85.1203 205.968 85.9758C203.005 88.9345 198.936 90.7525 193.225 91.5011C191.761 91.6793 190.226 91.9288 189.834 92.0358C189.798 92.0358 189.762 92.0358 189.727 92.0358C189.441 92.0358 189.798 91.5724 190.798 90.6099C191.726 89.7187 193.046 87.9364 193.76 86.6531C195.009 84.4074 195.045 84.3004 194.403 83.837C193.974 83.5162 193.332 83.338 192.832 83.338C192.439 83.338 192.154 83.4449 192.154 83.6588C192.154 83.8727 192.582 84.1935 193.153 84.4074C193.689 84.6569 194.189 84.8351 194.26 84.8708C194.902 85.2985 189.762 90.503 186.621 92.6061C185.443 93.3904 184.801 93.7468 184.551 93.7468C184.337 93.7468 184.337 93.5686 184.444 93.1765C184.551 92.8557 184.872 91.2159 185.194 89.5405C185.943 85.3342 187.835 81.7339 190.798 78.9178C195.545 74.3906 200.185 72.1092 204.825 72.1092C207.931 72.1092 208.716 72.3944 208.43 73.2499C207.895 74.854 207.859 75.8165 208.252 76.9572C208.43 77.5632 208.752 77.9909 208.966 77.9909C209.002 77.9909 209.002 77.9909 209.037 77.9909C209.751 77.5632 210.715 75.0322 210.501 74.0341L210.287 73.036L211.857 73.8203C212.714 74.2124 213.785 74.8184 214.249 75.0679L215.07 75.567L214.142 76.2799C213.499 76.7433 213.214 77.278 213.321 77.7771C213.392 78.1692 213.428 78.3118 213.642 78.3118C213.785 78.3118 213.999 78.2405 214.32 78.0622C214.784 77.8127 215.391 77.3136 215.605 76.8859C215.748 76.6007 215.855 76.4581 216.069 76.4581C216.426 76.4581 217.068 76.9572 218.853 78.2048C220.388 79.3455 221.994 80.4862 222.351 80.7357C222.708 80.9853 223.136 81.7339 223.279 82.4468C223.422 83.1241 223.493 83.4449 223.529 83.4449C223.565 83.4449 223.565 83.1597 223.601 82.6607L223.636 81.5913L225.1 82.0547C226.063 82.3755 226.635 82.5537 226.813 82.5537C227.099 82.5537 226.563 82.1973 225.207 81.5556C224.065 81.0209 222.244 79.8802 221.245 79.0603L219.353 77.5632L220.816 76.8146C221.53 76.4581 221.923 76.3155 222.208 76.3155C222.458 76.3155 222.637 76.4225 222.887 76.6364C223.279 76.9572 224.136 77.1711 224.85 77.1711C225.385 77.1711 225.814 77.0641 225.992 76.8502C226.278 76.4225 225.028 75.8165 223.85 75.8165C223.279 75.8165 222.994 75.6739 223.136 75.46C223.172 75.4244 223.172 75.3887 223.101 75.3887C222.958 75.3887 222.565 75.5313 222.03 75.8165C221.138 76.2799 220.388 76.4938 219.638 76.4938C218.532 76.4938 217.39 75.9947 215.676 74.854C211.25 71.9666 208.109 70.612 205.396 70.5051C204.04 70.4338 202.969 70.2556 202.969 70.1486C202.969 69.6139 208.716 67.8672 211.536 67.5821L213.499 67.3325L214.106 68.6515C214.534 69.507 215.284 70.2556 216.355 70.8616C217.354 71.4319 218.032 71.7527 218.389 71.7527C218.925 71.7527 218.71 71.0042 217.818 69.3288L216.997 67.7247H220.459C222.351 67.7247 224.743 67.5821 225.778 67.4038C226.313 67.2969 226.777 67.2612 227.241 67.2612C228.455 67.2612 229.419 67.6177 230.311 68.4376C230.954 69.0079 231.846 69.2931 232.631 69.2931C233.131 69.2931 233.559 69.1862 233.88 68.9366C234.487 68.4732 234.523 68.3663 234.059 68.0455C233.702 67.8316 233.167 67.7247 232.631 67.7247C232.096 67.7247 231.56 67.8316 231.31 68.0811C231.203 68.1881 231.096 68.2237 230.954 68.2237C230.668 68.2237 230.311 68.0098 229.776 67.5821L228.669 66.6909L230.168 65.978C231.739 65.1937 234.594 62.8767 235.165 61.8786C235.201 61.8073 235.201 61.7716 235.165 61.7716C235.023 61.7716 234.416 62.3063 233.559 63.1262C232.31 64.3026 231.418 64.9442 231.132 64.9442C230.954 64.9442 231.025 64.659 231.418 64.0887C232.096 63.0906 231.953 60.7022 231.168 59.0625L230.632 58.3139L229.847 59.7754C228.883 61.4508 228.812 62.8767 229.526 64.0887C229.811 64.5521 230.025 65.0868 230.061 65.3363C230.061 65.871 227.063 66.7978 224.386 67.0117L222.101 67.2256L222.672 66.4057C222.994 65.978 223.279 65.0868 223.279 64.4095L223.244 63.2332L222.351 64.2313C221.673 64.9442 221.459 65.4789 221.602 66.2275L221.744 67.2256L218.853 66.9761C217.247 66.8335 215.105 66.6552 214.07 66.5483L212.214 66.3344L213.606 64.9086C214.356 64.1243 215.177 63.1619 215.391 62.7341C215.676 62.2707 216.14 62.0212 216.819 62.0212C217.39 62.0212 218.139 61.7003 218.639 61.1656L219.46 60.3101H218.461C217.925 60.3101 217.211 60.4527 216.854 60.6309C216.747 60.7022 216.64 60.7379 216.533 60.7379C216.212 60.7379 216.14 60.0962 215.998 57.7079C215.855 54.6779 215.783 54.4284 214.855 53.6798C214.32 53.252 213.749 52.8599 213.606 52.8599C212.964 52.8599 213.713 54.6066 214.677 55.3552C215.605 56.1038 215.712 56.389 215.712 58.2782C215.712 60.3101 214.927 62.6628 214.249 62.6628C214.07 62.6628 214.034 62.4133 214.142 62.1638C214.534 61.2369 213.535 59.3477 212.036 58.0287L210.536 56.7454L210.429 57.6723C210.179 59.8111 211.679 62.342 213.642 63.1262C213.963 63.2688 213.678 63.6609 212.857 64.3739C211.143 65.8354 209.323 66.6909 206.146 67.4395C203.041 68.2237 201.47 68.9366 199.15 70.612C198.222 71.2893 197.08 71.9666 196.616 72.1449L195.759 72.4657L196.794 70.3982C197.365 69.2931 197.936 67.4751 198.043 66.4414C198.472 62.7341 198.543 62.4133 199.436 62.1994C200.292 61.9855 201.577 60.524 201.363 59.918C201.327 59.8824 201.292 59.8467 201.185 59.8467C200.935 59.8467 200.471 59.9893 199.935 60.2745L198.579 60.9161L198.793 59.9893C199.364 57.8148 200.185 56.5672 201.934 55.2839C202.505 54.8918 202.826 54.5353 202.648 54.5353C202.47 54.5353 201.72 54.9987 200.97 55.5691L199.65 56.5672V55.676C199.65 55.177 199.4 54.3215 199.043 53.8224C198.508 52.9312 198.508 52.8243 199.043 52.2896C199.436 51.9688 199.65 51.2202 199.65 50.329L199.614 48.9031L198.936 49.723C198.543 50.1508 198.186 50.7924 198.186 51.1489C198.151 51.4697 198.115 52.0044 198.079 52.1826C198.043 52.4322 198.293 53.1808 198.65 53.8224C199.471 55.3196 199.436 55.676 198.579 58.8486C198.222 60.2745 197.794 61.8429 197.687 62.4133L197.472 63.4114L196.83 62.4133C196.473 61.8786 195.723 61.0587 195.152 60.5953L194.117 59.7398L195.045 60.7379C195.581 61.3082 196.187 62.1281 196.437 62.5559C197.115 63.8035 196.973 66.9404 196.152 68.6871C195.509 70.113 192.475 74.2124 191.797 74.6045H191.761C191.333 74.6045 189.298 71.0398 189.298 70.2556C189.298 69.9704 189.62 69.5426 190.012 69.2931C190.94 68.6515 191.369 66.9761 190.583 66.9761C190.298 66.9761 189.727 67.2969 189.37 67.6534L188.692 68.3663L188.442 67.5821C188.335 67.1543 188.228 66.1206 188.192 65.265C188.156 64.4808 188.156 64.1243 188.12 64.1243C188.085 64.1243 188.013 64.3739 187.871 64.8373C187.585 66.0493 188.656 70.4695 189.941 73.1786C190.369 74.1054 190.69 74.9966 190.69 75.2105C190.655 75.4244 189.405 76.7077 187.871 78.0622L185.086 80.5219L184.48 77.9553C184.158 76.4938 183.088 73.1786 182.088 70.5408C179.375 63.2688 178.626 60.9518 178.376 58.4565C178.09 55.6404 178.519 54.7136 181.588 51.541L183.873 49.224L184.658 50.1508C185.158 50.7568 185.8 51.0776 186.264 51.0776C186.586 51.0776 186.8 50.935 186.8 50.5785C186.8 50.2577 186.407 49.6517 185.907 49.224L184.979 48.4397L185.979 47.7624C187.514 46.7643 188.977 46.1227 191.833 45.1959C193.296 44.7325 194.117 44.3047 193.689 44.3047H192.868L193.582 43.1997C193.974 42.6293 194.296 41.8807 194.26 41.5955C194.26 41.4886 194.224 41.453 194.189 41.453C194.117 41.453 194.01 41.6312 193.903 41.9164C193.439 43.0214 192.225 44.2334 190.976 44.875C190.512 45.0889 190.191 45.2315 189.977 45.2315C189.655 45.2315 189.727 44.8751 190.048 44.0552C190.334 43.164 190.298 42.7006 189.655 41.2747C188.977 39.8132 188.37 38.9933 187.978 38.9933C187.871 38.9933 187.799 39.029 187.728 39.1359C187.621 39.3141 187.442 40.2766 187.3 41.2747C187.121 42.8788 187.192 43.2709 188.013 44.3403L188.906 45.588L186.8 46.6574C185.658 47.2277 183.623 48.5823 182.267 49.6517C180.982 50.6855 179.875 51.5054 179.732 51.5054C179.697 51.4697 180.303 50.2934 181.089 48.8675C183.694 44.3403 184.337 42.3798 184.551 38.7082C184.73 35.6069 184.801 35.4286 185.551 35.4286C186.264 35.4286 187.871 34.181 187.871 33.6463C187.871 33.7176 187.692 33.6107 187.478 33.6107Z" fill="#667A53"/>
</g>
<defs>
<clipPath id="clip0_37:19">
<rect width="317" height="283" fill="white" transform="translate(0 0.79834)"/>
</clipPath>
</defs>
</svg>
