<svg width="42" height="42" viewBox="0 0 42 42" fill="none" xmlns="http://www.w3.org/2000/svg">
<path d="M12.6 33.6C10.29 33.6 8.421 35.49 8.421 37.8C8.421 40.11 10.29 42 12.6 42C14.91 42 16.8 40.11 16.8 37.8C16.8 35.49 14.91 33.6 12.6 33.6ZM0 0V4.2H4.2L11.76 20.139L8.925 25.284C8.589 25.872 8.4 26.565 8.4 27.3C8.4 29.61 10.29 31.5 12.6 31.5H37.8V27.3H13.482C13.188 27.3 12.957 27.069 12.957 26.775L13.02 26.523L14.91 23.1H30.555C32.13 23.1 33.516 22.239 34.23 20.937L41.748 7.308C41.916 7.014 42 6.657 42 6.3C42 5.145 41.055 4.2 39.9 4.2H8.841L6.867 0H0ZM33.6 33.6C31.29 33.6 29.421 35.49 29.421 37.8C29.421 40.11 31.29 42 33.6 42C35.91 42 37.8 40.11 37.8 37.8C37.8 35.49 35.91 33.6 33.6 33.6Z" fill="black"/>
</svg>
