<svg width="38" height="38" viewBox="0 0 38 38" fill="none" xmlns="http://www.w3.org/2000/svg">
<path d="M37.036 38H34.661C34.3146 38 34.0054 37.8824 33.7332 37.6471C33.4611 37.4119 33.2879 37.1333 33.2137 36.8113L31.5809 28.4907H17.3309L18.9637 36.8113C19.0379 37.1333 18.9822 37.4119 18.7967 37.6471C18.6112 37.8824 18.3452 38 17.9988 38H15.6238C15.3022 38 15.0054 37.8824 14.7332 37.6471C14.4611 37.4119 14.2879 37.1333 14.2137 36.8113L7.16291 1.18866C7.08869 0.841968 7.14436 0.557185 7.3299 0.334311C7.51545 0.111437 7.7814 0 8.12776 0H29.8738C30.1707 0 30.4057 0.0928641 30.5789 0.278592C30.7521 0.464321 30.8387 0.693385 30.8387 0.965787C30.8387 0.990551 30.8511 1.02151 30.8758 1.05865C30.9005 1.0958 30.9129 1.12675 30.9129 1.15152L37.9637 36.8113C38.0379 37.1333 37.9822 37.4119 37.7967 37.6471C37.6112 37.8824 37.3576 38 37.036 38ZM21.3758 11.8495C20.1636 11.8495 19.0688 11.6204 18.0916 11.1623C17.1144 10.7041 16.6258 10.1408 16.6258 9.47214C16.6258 8.82828 16.9412 8.2711 17.5721 7.80059C18.203 7.33008 19.075 7.09482 20.1883 7.09482C21.3758 7.09482 22.118 7.14435 22.4149 7.2434C22.7117 7.34246 23.1571 7.68915 23.7508 8.28348C23.8498 8.4073 23.9611 8.58065 24.0848 8.80352C24.2085 9.02639 24.3322 9.19355 24.4559 9.30499C24.5796 9.41642 24.7404 9.47214 24.9383 9.47214C25.2847 9.47214 25.5877 9.35451 25.8475 9.11926C26.1072 8.884 26.2 8.60541 26.1258 8.28348C25.8289 7.07006 25.3774 6.2219 24.7713 5.739C24.1652 5.25611 23.0334 4.91561 21.3758 4.7175C21.3758 4.29651 21.3696 3.98078 21.3572 3.77028C21.3449 3.55979 21.3016 3.32454 21.2274 3.06452C21.1531 2.8045 21.0294 2.61877 20.8563 2.50733C20.6831 2.39589 20.4604 2.34018 20.1883 2.34018C19.9162 2.34018 19.6935 2.40209 19.5203 2.5259C19.3472 2.64972 19.2235 2.84783 19.1492 3.12023C19.075 3.39264 19.0317 3.63408 19.0194 3.84457C19.007 4.05507 19.0008 4.34604 19.0008 4.7175C17.2443 4.94037 16.0135 5.36755 15.3084 5.99902C14.6033 6.6305 14.2508 7.78821 14.2508 9.47214C14.2508 11.1561 14.9002 12.3695 16.199 13.1124C17.4979 13.8553 19.2235 14.2268 21.3758 14.2268C22.588 14.2268 23.6828 14.462 24.66 14.9326C25.6372 15.4031 26.1258 15.9602 26.1258 16.6041C26.1258 17.248 25.8104 17.8051 25.1795 18.2757C24.5487 18.7462 23.6766 18.9814 22.5633 18.9814C21.3758 18.9814 20.6336 18.9319 20.3367 18.8328C20.0399 18.7338 19.5946 18.3871 19.0008 17.7928C18.9018 17.6937 18.7905 17.5327 18.6668 17.3099C18.5431 17.087 18.4194 16.9137 18.2957 16.7898C18.172 16.666 18.0112 16.6041 17.8133 16.6041C17.4669 16.6041 17.1639 16.7279 16.9041 16.9756C16.6444 17.2232 16.5516 17.4956 16.6258 17.7928C16.9227 19.031 17.3742 19.8915 17.9803 20.3744C18.5864 20.8573 19.7182 21.1854 21.3758 21.3587C21.3758 21.8045 21.382 22.1264 21.3944 22.3245C21.4067 22.5226 21.45 22.7517 21.5242 23.0117C21.5985 23.2718 21.716 23.4575 21.8768 23.5689C22.0376 23.6804 22.2602 23.7361 22.5447 23.7361C22.8293 23.7361 23.0581 23.6742 23.2313 23.5503C23.4044 23.4265 23.5281 23.2284 23.6024 22.956C23.6766 22.6836 23.7199 22.4484 23.7322 22.2502C23.7446 22.0521 23.7508 21.755 23.7508 21.3587C25.5073 21.1606 26.7381 20.7458 27.4432 20.1144C28.1483 19.4829 28.5008 18.3128 28.5008 16.6041C28.5008 14.9449 27.8514 13.7377 26.5526 12.9824C25.2537 12.2271 23.5281 11.8495 21.3758 11.8495ZM6.42072 28.4907L4.78791 36.8113C4.71369 37.1333 4.54052 37.4119 4.26838 37.6471C3.99624 37.8824 3.687 38 3.34065 38H0.965646C0.644031 38 0.390451 37.8824 0.204904 37.6471C0.0193569 37.4119 -0.0363072 37.1333 0.0379116 36.8113L5.9383 6.98338L10.2059 28.4907H6.42072ZM24.9754 30.868L23.7879 36.8113C23.7137 37.1333 23.5405 37.4119 23.2684 37.6471C22.9962 37.8824 22.6994 38 22.3778 38H21.3387L19.9656 32.0938L20.2254 30.868H24.9754Z" fill="black"/>
</svg>
