<svg width="313" height="54" viewBox="0 0 313 54" fill="none" xmlns="http://www.w3.org/2000/svg">
<rect width="313" height="54" rx="27" fill="#E5E0E0"/>
<rect width="217" height="54" rx="27" fill="#667A52" fill-opacity="0.59"/>
<rect x="154" width="63" height="54" rx="27" fill="#829071"/>
<path d="M185.849 22.2381H189.619V16.5238H195.274V12.7143H189.619V7H185.849V12.7143H180.194V16.5238H185.849V22.2381ZM178.31 39.381C176.236 39.381 174.559 41.0952 174.559 43.1905C174.559 45.2857 176.236 47 178.31 47C180.383 47 182.079 45.2857 182.079 43.1905C182.079 41.0952 180.383 39.381 178.31 39.381ZM197.159 39.381C195.085 39.381 193.408 41.0952 193.408 43.1905C193.408 45.2857 195.085 47 197.159 47C199.232 47 200.929 45.2857 200.929 43.1905C200.929 41.0952 199.232 39.381 197.159 39.381ZM178.63 33.1905L178.687 32.9619L180.383 29.8571H194.426C195.839 29.8571 197.083 29.0762 197.724 27.8952L205 14.5429L201.72 12.7143H201.701L199.628 16.5238L194.426 26.0476H181.193L180.948 25.5333L176.726 16.5238L174.936 12.7143L173.164 8.90476H167V12.7143H170.77L177.556 27.1714L175.011 31.8381C174.709 32.3714 174.54 33 174.54 33.6667C174.54 35.7619 176.236 37.4762 178.31 37.4762H200.929V33.6667H179.101C178.856 33.6667 178.63 33.4571 178.63 33.1905Z" fill="#FCF2EA"/>
</svg>
