<svg width="14" height="16" viewBox="0 0 14 16" fill="none" xmlns="http://www.w3.org/2000/svg">
<path d="M13.6207 6.19229C12.3374 6.19539 11.0855 5.79037 10.0419 5.03442V10.3066C10.0416 11.2831 9.74667 12.2362 9.19661 13.0384C8.64655 13.8407 7.86758 14.4539 6.96385 14.796C6.06012 15.1382 5.07471 15.193 4.13938 14.9531C3.20406 14.7131 2.3634 14.19 1.72982 13.4535C1.09624 12.717 0.699931 11.8024 0.59389 10.8318C0.48785 9.86128 0.677131 8.8811 1.13642 8.02235C1.59572 7.1636 2.30313 6.46722 3.16407 6.02632C4.02501 5.58541 4.99844 5.42101 5.9542 5.55509V8.20683C5.51685 8.06761 5.0472 8.0718 4.61234 8.21881C4.17748 8.36582 3.79964 8.64812 3.53277 9.0254C3.26591 9.40269 3.12367 9.85566 3.12637 10.3196C3.12907 10.7836 3.27657 11.2348 3.54781 11.6089C3.81905 11.983 4.20015 12.2608 4.63669 12.4026C5.07323 12.5444 5.54289 12.543 5.9786 12.3986C6.41431 12.2542 6.79378 11.9741 7.06283 11.5984C7.33187 11.2227 7.47673 10.7706 7.47672 10.3066V0H10.0419C10.0402 0.219224 10.0583 0.43815 10.0962 0.654009C10.1853 1.13588 10.3706 1.59429 10.6409 2.00118C10.9111 2.40808 11.2605 2.75492 11.6677 3.02048C12.247 3.40813 12.9262 3.61475 13.6207 3.6146V6.19229Z" fill="white"/>
</svg>
