<svg width="16" height="15" viewBox="0 0 16 15" fill="none" xmlns="http://www.w3.org/2000/svg">
<g clip-path="url(#clip0_43_681)">
<path d="M13.335 4.68457C13.341 4.80607 13.3432 4.92907 13.3432 5.05057C13.3432 8.79307 10.4955 13.1071 5.28825 13.1071C3.6885 13.1071 2.20125 12.6383 0.947998 11.8343C1.68928 11.924 2.44096 11.8666 3.16008 11.6656C3.87919 11.4646 4.55165 11.1239 5.139 10.6628C4.54831 10.6517 3.97588 10.4562 3.50173 10.1037C3.02759 9.75128 2.67543 9.25947 2.4945 8.69707C2.91904 8.77646 3.35598 8.7598 3.77325 8.64832C3.13246 8.51838 2.5563 8.1709 2.14241 7.66474C1.72852 7.15859 1.50236 6.5249 1.50225 5.87107V5.83582C1.8954 6.05452 2.3351 6.17614 2.78475 6.19057C2.18465 5.79051 1.75986 5.17651 1.59706 4.4739C1.43427 3.77129 1.54575 3.03303 1.90875 2.40982C2.61959 3.28467 3.50651 4.0002 4.51191 4.50993C5.5173 5.01967 6.61868 5.31222 7.7445 5.36857C7.69579 5.15678 7.67138 4.94013 7.67175 4.72282C7.67175 4.35115 7.74497 3.98312 7.88722 3.63975C8.02948 3.29638 8.23798 2.9844 8.50083 2.72162C8.76367 2.45884 9.07571 2.25042 9.41912 2.10826C9.76253 1.96609 10.1306 1.89297 10.5022 1.89307C10.8896 1.89244 11.2729 1.9714 11.6285 2.12506C11.9841 2.27871 12.3043 2.50379 12.5692 2.78632C13.2031 2.66084 13.811 2.42854 14.367 2.09932C14.1555 2.75497 13.7131 3.31149 13.122 3.66532C13.6832 3.59879 14.2313 3.44863 14.748 3.21982C14.3684 3.78865 13.8898 4.28476 13.335 4.68457Z" fill="white"/>
</g>
<defs>
<clipPath id="clip0_43_681">
<rect width="15" height="15" fill="white" transform="translate(0.3479)"/>
</clipPath>
</defs>
</svg>
