<svg width="68" height="69" viewBox="0 0 68 69" fill="none" xmlns="http://www.w3.org/2000/svg">
<g clip-path="url(#clip0_43_694)" filter="url(#filter0_i_43_694)">
<ellipse cx="33.8264" cy="35.6447" rx="33.2483" ry="33.3263" fill="#A6BFA4"/>
<mask id="mask0_43_694" style="mask-type:alpha" maskUnits="userSpaceOnUse" x="-1" y="1" width="69" height="69">
<path d="M67.5 35.0871C67.5 53.9064 52.281 69.1669 33.5 69.1669C14.7248 69.1669 -0.5 53.9121 -0.5 35.0871C-0.5 16.2679 14.7248 1.00732 33.5 1.00732C52.2752 1.00732 67.5 16.2679 67.5 35.0871Z" fill="#F7DAA2"/>
</mask>
<g mask="url(#mask0_43_694)">
<path d="M52.833 54.5098C50.6993 51.8379 33.7861 45.9783 33.7861 45.9783C33.7861 45.9783 17.2255 52.4581 14.7334 54.5098C12.2412 56.5616 11.3044 69.5096 11.3044 69.5096H55.7646C55.7704 69.5038 54.9667 57.1759 52.833 54.5098Z" fill="#293033"/>
<path d="M39.0248 48.6044C39.0248 48.6044 38.3772 51.7516 33.786 51.7516C29.1949 51.7516 28.5473 48.6044 28.5473 48.6044C28.5473 48.6044 29.8252 46.06 28.5473 43.0752C27.2694 40.0903 40.586 39.4817 39.0248 43.0752C37.4636 46.6628 39.0248 48.6044 39.0248 48.6044Z" fill="#DDA778"/>
<path d="M44.7205 36.804C45.0558 32.3238 47.8892 25.8671 47.8892 25.8671C51.9252 16.8256 47.7388 3.19364 39.9154 7.38406C30.2416 -1.47785 14.93 10.9138 20.1109 25.7454C20.1109 25.7454 22.5684 31.75 22.8055 36.1838C23.0426 40.6119 30.9875 49.4738 33.5375 49.6187C36.0875 49.7636 44.3909 41.2842 44.7205 36.804Z" fill="#442928"/>
<path d="M48.5889 28.4579C48.5889 30.8284 46.912 34.0799 45.7845 34.0799C44.6569 34.0799 43.7375 32.1556 43.7375 29.7909C43.7375 27.4204 44.894 26.1975 45.7845 25.502C46.8773 24.6442 48.5889 25.502 48.5889 28.4579Z" fill="#F9BB8D"/>
<path d="M19.3188 28.4579C19.3188 30.8284 20.9957 34.0799 22.1233 34.0799C23.2508 34.0799 24.1702 32.1556 24.1702 29.7909C24.1702 27.4204 23.0137 26.1975 22.1233 25.502C21.0304 24.6442 19.3188 25.502 19.3188 28.4579Z" fill="#F9BB8D"/>
<path d="M34 9.67358C26.0609 9.67358 22.551 15.2492 22.551 23.5663C22.551 27.8031 22.551 31.1184 22.551 33.9815C22.551 41.2264 30.9007 47.4222 33.5374 47.4222C36.1742 47.4222 45.449 40.1773 45.449 33.315C45.449 30.6025 45.449 27.4785 45.449 23.5663C45.449 15.2492 41.9391 9.67358 34 9.67358Z" fill="#F9BB8D"/>
<path d="M45.4491 29.507L46.1603 23.4387C46.1603 15.1216 41.9392 8.92578 33.9943 8.92578C26.0552 8.92578 21.7358 16.0141 21.7358 24.3312L22.5511 30.84C22.5511 30.84 24.4304 29.5649 24.3437 27.2176C24.1528 21.8796 26.9457 21.0913 31.2882 20.2567C38.1345 18.9469 40.06 14.8318 40.06 14.8318C40.06 14.8318 42.3035 15.5968 43.7375 18.9469C44.6627 21.1145 43.4542 23.4735 43.379 24.8297C43.3096 26.1917 45.4491 29.507 45.4491 29.507Z" fill="#442928"/>
<path d="M34.7459 43.0811C34.0463 43.1274 32.7626 43.2491 32.3347 43.0811C33.6184 45.0575 32.3347 47.8569 32.3347 47.8569H34.7459C34.7459 47.8627 33.6936 45.469 34.7459 43.0811Z" fill="#442928"/>
</g>
</g>
<defs>
<filter id="filter0_i_43_694" x="0" y="0" width="68" height="73" filterUnits="userSpaceOnUse" color-interpolation-filters="sRGB">
<feFlood flood-opacity="0" result="BackgroundImageFix"/>
<feBlend mode="normal" in="SourceGraphic" in2="BackgroundImageFix" result="shape"/>
<feColorMatrix in="SourceAlpha" type="matrix" values="0 0 0 0 0 0 0 0 0 0 0 0 0 0 0 0 0 0 127 0" result="hardAlpha"/>
<feOffset dy="4"/>
<feGaussianBlur stdDeviation="2"/>
<feComposite in2="hardAlpha" operator="arithmetic" k2="-1" k3="1"/>
<feColorMatrix type="matrix" values="0 0 0 0 0 0 0 0 0 0 0 0 0 0 0 0 0 0 0.25 0"/>
<feBlend mode="normal" in2="shape" result="effect1_innerShadow_43_694"/>
</filter>
<clipPath id="clip0_43_694">
<rect width="68" height="69" fill="white"/>
</clipPath>
</defs>
</svg>
