<svg width="288" height="202" viewBox="0 0 288 202" fill="none" xmlns="http://www.w3.org/2000/svg">
<path d="M144 202C46.4448 202 2.33284 109.447 0.63623 104.866C-0.212077 102.117 -0.212077 99.3674 0.63623 96.6183C2.33284 92.9529 46.4448 0.400146 144 0.400146C241.555 0.400146 285.667 92.9529 287.364 97.5347C288.212 100.284 288.212 103.033 287.364 105.782C285.667 109.447 241.555 202 144 202ZM17.6024 101.2C26.9337 118.611 67.6524 183.673 144 183.673C220.348 183.673 260.218 118.611 270.398 101.2C261.066 83.7892 220.348 18.7274 144 18.7274C67.6524 18.7274 27.782 83.7892 17.6024 101.2Z" fill="black"/>
<path d="M144 173.2C95.9996 173.2 57.5996 141.2 57.5996 101.2C57.5996 61.2 95.9996 29.2 144 29.2C192 29.2 230.4 61.2 230.4 101.2C230.4 141.2 192 173.2 144 173.2ZM144 45.2C106.56 45.2 76.7996 70 76.7996 101.2C76.7996 132.4 106.56 157.2 144 157.2C181.44 157.2 211.2 132.4 211.2 101.2C211.2 70 181.44 45.2 144 45.2Z" fill="black"/>
<path d="M144 144.4C127.872 144.4 115.2 125.392 115.2 101.2C115.2 96.016 117.504 92.56 120.96 92.56C124.416 92.56 126.72 96.016 126.72 101.2C126.72 115.888 134.208 127.12 144 127.12C153.792 127.12 161.28 115.888 161.28 101.2C161.28 86.512 153.792 75.28 144 75.28C140.544 75.28 138.24 71.824 138.24 66.64C138.24 61.456 140.544 58 144 58C160.128 58 172.8 77.008 172.8 101.2C172.8 125.392 160.128 144.4 144 144.4Z" fill="black"/>
</svg>
