<svg width="15" height="16" viewBox="0 0 15 16" fill="none" xmlns="http://www.w3.org/2000/svg">
<path d="M12.7533 2.19422C11.3504 0.778596 9.48214 0 7.49665 0C3.39844 0 0.0636161 3.35706 0.0636161 7.48261C0.0636161 8.80049 0.405134 10.088 1.05469 11.2239L0 15.1L3.94085 14.0585C5.02567 14.6551 6.24777 14.9686 7.4933 14.9686H7.49665C11.5915 14.9686 15 11.6115 15 7.48598C15 5.48725 14.1562 3.60985 12.7533 2.19422ZM7.49665 13.708C6.38504 13.708 5.29687 13.408 4.34933 12.8418L4.125 12.707L1.78795 13.3238L2.41071 11.0284L2.26339 10.7925C1.64397 9.80154 1.3192 8.65893 1.3192 7.48261C1.3192 4.05476 4.09152 1.26395 7.5 1.26395C9.15067 1.26395 10.7009 1.9111 11.8661 3.08742C13.0312 4.26374 13.7478 5.8243 13.7444 7.48598C13.7444 10.9172 10.9018 13.708 7.49665 13.708ZM10.885 9.04991C10.7009 8.95553 9.78683 8.50388 9.61607 8.44321C9.44531 8.37917 9.32143 8.34884 9.19755 8.53759C9.07366 8.72634 8.71875 9.14429 8.60826 9.27237C8.50112 9.39708 8.39062 9.41393 8.20647 9.31955C7.11496 8.77015 6.39844 8.33873 5.67857 7.095C5.48772 6.76468 5.86942 6.78828 6.22433 6.07372C6.2846 5.94901 6.25446 5.84115 6.20759 5.74678C6.16071 5.6524 5.78906 4.73224 5.63504 4.35811C5.48438 3.99409 5.33036 4.04465 5.21652 4.03791C5.10938 4.03117 4.98549 4.03117 4.86161 4.03117C4.73772 4.03117 4.53683 4.07836 4.36607 4.26374C4.19531 4.45249 3.71652 4.90414 3.71652 5.8243C3.71652 6.74446 4.38281 7.63428 4.47321 7.75899C4.56696 7.8837 5.78237 9.77121 7.64732 10.5835C8.82589 11.0958 9.28795 11.1396 9.87723 11.052C10.2355 10.9981 10.9754 10.6004 11.1295 10.1622C11.2835 9.72402 11.2835 9.34989 11.2366 9.27237C11.1931 9.1881 11.0692 9.14091 10.885 9.04991Z" fill="white"/>
</svg>
